<mxfile host="app.diagrams.net" modified="2023-03-01T02:34:55.996Z" agent="5.0 (Macintosh; Intel Mac OS X 10_15_7) AppleWebKit/537.36 (KHTML, like Gecko) Chrome/107.0.0.0 Safari/537.36" etag="NYn9SKzbL_VTEvDRWGq9" version="20.8.23" type="github">
  <diagram name="Page-1" id="VdLhYEpRakPm8CxhkjVO">
    <mxGraphModel dx="1434" dy="736" grid="1" gridSize="10" guides="1" tooltips="1" connect="1" arrows="1" fold="1" page="1" pageScale="1" pageWidth="827" pageHeight="1169" math="0" shadow="0">
      <root>
        <mxCell id="0" />
        <mxCell id="1" parent="0" />
        <mxCell id="wimUQkEXMuBrnLNLjIfS-7" value="" style="group;strokeColor=none;labelBackgroundColor=none;fontColor=default;" vertex="1" connectable="0" parent="1">
          <mxGeometry x="890" y="160" width="130" height="120" as="geometry" />
        </mxCell>
        <mxCell id="wimUQkEXMuBrnLNLjIfS-2" value="" style="endArrow=classic;html=1;rounded=0;strokeColor=#007FFF;shadow=0;strokeWidth=4;" edge="1" parent="wimUQkEXMuBrnLNLjIfS-7">
          <mxGeometry width="50" height="50" relative="1" as="geometry">
            <mxPoint y="120" as="sourcePoint" />
            <mxPoint x="130" y="120" as="targetPoint" />
          </mxGeometry>
        </mxCell>
        <mxCell id="wimUQkEXMuBrnLNLjIfS-3" value="" style="endArrow=classic;html=1;rounded=0;strokeColor=#00CC66;shadow=0;strokeWidth=4;" edge="1" parent="wimUQkEXMuBrnLNLjIfS-7">
          <mxGeometry width="50" height="50" relative="1" as="geometry">
            <mxPoint y="120" as="sourcePoint" />
            <mxPoint as="targetPoint" />
          </mxGeometry>
        </mxCell>
        <mxCell id="wimUQkEXMuBrnLNLjIfS-4" value="" style="endArrow=classic;html=1;rounded=0;strokeColor=#FF0000;shadow=0;strokeWidth=4;" edge="1" parent="wimUQkEXMuBrnLNLjIfS-7">
          <mxGeometry width="50" height="50" relative="1" as="geometry">
            <mxPoint y="120" as="sourcePoint" />
            <mxPoint x="45" y="66" as="targetPoint" />
          </mxGeometry>
        </mxCell>
        <mxCell id="wimUQkEXMuBrnLNLjIfS-10" value="" style="shape=image;html=1;verticalAlign=top;verticalLabelPosition=bottom;labelBackgroundColor=#ffffff;imageAspect=0;aspect=fixed;image=https://cdn1.iconfinder.com/data/icons/electronics-glyph-24/24/camera_digital_camera_photo_camera_photo_shoot_photography-128.png;rotation=0;" vertex="1" parent="1">
          <mxGeometry x="210" width="68" height="68" as="geometry">
            <mxPoint x="20" y="20" as="offset" />
          </mxGeometry>
        </mxCell>
        <mxCell id="wimUQkEXMuBrnLNLjIfS-13" value="" style="points=[[0,0.5,0],[0.19,0.02,0],[0.59,0,0],[0.985,0.02,0],[1,0.5,0],[0.985,0.98,0],[0.59,1,0],[0.19,0.98,0]];verticalLabelPosition=bottom;sketch=0;html=1;verticalAlign=top;aspect=fixed;align=center;pointerEvents=1;shape=mxgraph.cisco19.camera;fillColor=#005073;strokeColor=none;labelBackgroundColor=none;fontColor=default;rotation=-155;" vertex="1" parent="1">
          <mxGeometry x="139.99999999999997" y="170.34" width="64" height="35.56" as="geometry" />
        </mxCell>
        <mxCell id="wimUQkEXMuBrnLNLjIfS-14" value="" style="shape=trapezoid;perimeter=trapezoidPerimeter;whiteSpace=wrap;html=1;fixedSize=1;labelBackgroundColor=none;fillStyle=cross-hatch;strokeColor=default;fontColor=default;fillColor=#CCCCCC;gradientColor=none;size=50;gradientDirection=radial;strokeWidth=1;rounded=0;shadow=0;" vertex="1" parent="1">
          <mxGeometry x="548.07" y="350" width="190" height="90" as="geometry" />
        </mxCell>
        <mxCell id="wimUQkEXMuBrnLNLjIfS-1" value="" style="shape=image;verticalLabelPosition=bottom;labelBackgroundColor=default;verticalAlign=top;aspect=fixed;imageAspect=0;image=data:image/png,iVBORw0KGgoAAAANSUhEUgAAAREAAAIdCAYAAAAavkloAAAKrGlDQ1BJQ0MgUHJvZmlsZQAAeJyVlwdQU1kXgO976SGhJYQOoTdBOgGkhNACKEgHUQlJgFBCDIRmVxZXYEVREcGKrooouBZAFhuiWFgUFLtukEVAWRcLoqLyP2AI7v7z///8Z+bM+d5555577p1735wHAFmRIxKlwYoApAuzxKF+XvTomFg6bgDAQB0QgSHAc7iZImZISBBAZMb+XT7cA9CkvWM5mevf3/9XUeLxM7kAQCEIJ/AyuekIn0b0JVckzgIAtQ/xG+RkiSa5DWGqGCkQ4QeTnDTNw5OcMMVoMBUTHspCmAoAnsThiJMAINERPz2bm4TkIXkibC3kCYQIixB2T0/P4CF8AmFTJAbxkSbzMxK+y5P0t5wJspwcTpKMp9cyJXhvQaYojZP3f27H/5b0NMnMHMaIkpLF/qGIVUb27EFqRqCMhQkLgmdYwJuKn+JkiX/EDHMzWbEzzON4B8rGpi0ImuFEgS9blieLHT7D/EyfsBkWZ4TK5koUs5gzzBHPzitJjZD5k/lsWf785PCoGc4WRC6Y4czUsMDZGJbML5aEyurnC/28Zuf1la09PfO79QrYsrFZyeH+srVzZuvnC5mzOTOjZbXx+N4+szERsnhRlpdsLlFaiCyen+Yn82dmh8nGZiEHcnZsiGwPUzgBITMMWCADpCEqBnQQhDx5A5DFz82aXAgrQ5QnFiQlZ9GZyA3j09lCrtUcuq21rR0Ak/d1+ji8o03dQ4h2Y9a3ngiAm3BiYqJl1hf4GYDTegAQpbM+k24A5JFzf20LVyLOnvZN3SUM8hVQAFTka6ADDIApsAS2wBG4Ak/gAwJAMAgHMWAJ4IJkkI5UngNWgLWgEBSDzWA7qAR7wQFwBBwHJ0EjaAGXwFVwE9wGPeAxkIJ+8AqMgA9gHIIgHESGKJA6pAsZQRaQLcSA3CEfKAgKhWKgeCgJEkISaAW0HiqGyqBKaD9UA/0CnYUuQdehLugh1AsNQW+hzzAKJsFUWBs2hufCDJgJB8Lh8GI4CV4G58MF8Ca4Aq6Gj8EN8CX4JtwDS+FX8CgKoORQNJQeyhLFQLFQwahYVCJKjFqFKkKVo6pRdahmVDvqDkqKGkZ9QmPRFDQdbYl2RfujI9Bc9DL0KnQJuhJ9BN2AbkPfQfeiR9DfMGSMFsYC44JhY6IxSZgcTCGmHHMIcwZzBdOD6cd8wGKxNKwJ1gnrj43BpmCXY0uwu7H12IvYLmwfdhSHw6njLHBuuGAcB5eFK8TtxB3DXcB14/pxH/FyeF28Ld4XH4sX4tfhy/FH8efx3fgB/DhBkWBEcCEEE3iEPEIp4SChmXCL0E8YJyoRTYhuxHBiCnEtsYJYR7xCfEJ8Jycnpy/nLLdQTiC3Rq5C7oTcNbleuU8kZZI5iUWKI0lIm0iHSRdJD0nvyGSyMdmTHEvOIm8i15Avk5+RP8pT5K3k2fI8+dXyVfIN8t3yrxUICkYKTIUlCvkK5QqnFG4pDCsSFI0VWYocxVWKVYpnFe8rjipRlGyUgpXSlUqUjipdVxpUxikbK/so85QLlA8oX1buo6AoBhQWhUtZTzlIuULpp2KpJlQ2NYVaTD1O7aSOqCir2KtEquSqVKmcU5HSUDRjGpuWRiulnaTdo31W1VZlqvJVN6rWqXarjqlpqnmq8dWK1OrVetQ+q9PVfdRT1beoN6o/1UBrmGss1MjR2KNxRWNYk6rpqsnVLNI8qflIC9Yy1wrVWq51QKtDa1RbR9tPW6S9U/uy9rAOTcdTJ0Vnm855nSFdiq67rkB3m+4F3Zd0FTqTnkavoLfRR/S09Pz1JHr79Tr1xvVN9CP01+nX6z81IBowDBINthm0GowY6hrON1xhWGv4yIhgxDBKNtph1G40ZmxiHGW8wbjReNBEzYRtkm9Sa/LElGzqYbrMtNr0rhnWjGGWarbb7LY5bO5gnmxeZX7LArZwtBBY7LbomoOZ4zxHOKd6zn1LkiXTMtuy1rLXimYVZLXOqtHq9VzDubFzt8xtn/vN2sE6zfqg9WMbZZsAm3U2zTZvbc1tubZVtnftyHa+dqvtmuze2FvY8+332D9woDjMd9jg0Orw1dHJUexY5zjkZOgU77TL6T6DyghhlDCuOWOcvZxXO7c4f3JxdMlyOenyl6ula6rrUdfBeSbz+PMOzutz03fjuO13k7rT3ePd97lLPfQ8OB7VHs89DTx5noc8B5hmzBTmMeZrL2svsdcZrzGWC2sl66I3ytvPu8i700fZJ8Kn0ueZr75vkm+t74ifg99yv4v+GP9A/y3+99nabC67hj0S4BSwMqAtkBQYFlgZ+DzIPEgc1Dwfnh8wf+v8JwuMFggXNAaDYHbw1uCnISYhy0J+XYhdGLKwauGLUJvQFaHtYZSwpWFHwz6Ee4WXhj+OMI2QRLRGKkTGRdZEjkV5R5VFSaPnRq+MvhmjESOIaYrFxUbGHoodXeSzaPui/jiHuMK4e4tNFucuvr5EY0naknNLFZZylp6Kx8RHxR+N/8IJ5lRzRhPYCbsSRrgs7g7uK54nbxtviO/GL+MPJLolliUOJrklbU0aSvZILk8eFrAElYI3Kf4pe1PGUoNTD6dOpEWl1afj0+PTzwqVhanCtgydjNyMLpGFqFAkXeaybPuyEXGg+FAmlLk4symLijRGHRJTyQ+S3mz37KrsjzmROadylXKFuR155nkb8wbyffN/Xo5ezl3eukJvxdoVvSuZK/evglYlrGpdbbC6YHX/Gr81R9YS16au/W2d9bqyde/XR61vLtAuWFPQ94PfD7WF8oXiwvsbXDfs/RH9o+DHzo12G3du/FbEK7pRbF1cXvylhFty4yebnyp+mtiUuKmz1LF0z2bsZuHme1s8thwpUyrLL+vbOn9rwzb6tqJt77cv3X693L587w7iDskOaUVQRdNOw52bd36pTK7sqfKqqt+ltWvjrrHdvN3dezz31O3V3lu89/M+wb4H+/32N1QbV5cfwB7IPvDiYOTB9p8ZP9cc0jhUfOjrYeFh6ZHQI201TjU1R7WOltbCtZLaoWNxx24f9z7eVGdZt7+eVl98ApyQnHj5S/wv904Gnmw9xThVd9ro9K4zlDNFDVBDXsNIY3KjtCmmqetswNnWZtfmM79a/Xq4Ra+l6pzKudLzxPMF5ycu5F8YvSi6OHwp6VJf69LWx5ejL99tW9jWeSXwyrWrvlcvtzPbL1xzu9Zy3eX62RuMG403HW82dDh0nPnN4bcznY6dDbecbjXddr7d3DWv63y3R/elO953rt5l373Zs6Cn617EvQf34+5LH/AeDD5Me/jmUfaj8cdrnmCeFD1VfFr+TOtZ9e9mv9dLHaXner17O56HPX/cx+179UfmH1/6C16QX5QP6A7UDNoOtgz5Dt1+uehl/yvRq/Hhwj+V/tz12vT16b88/+oYiR7pfyN+M/G25J36u8Pv7d+3joaMPvuQ/mF8rOij+scjnxif2j9HfR4Yz/mC+1Lx1exr87fAb08m0icmRBwxZ6oVQCEKJyYC8PYwAOQYACi3kf5h0XQ/PSXQ9D/AFIH/xNM995Q4AlCHmMm2iHURgBOIGq9BciM62RKFewLYzk6mM73vVJ8+KVjkj2Wf2yT1qPHWgH/IdA//Xd3/tGAyqz34p/0XMYMGlNvAfyAAAQAASURBVHhe7P0HvKVpdd6JfjvHkyt3phtocs4SpgGBQQEkoWQlHK5kS/OzbGuu7/WdGY/vHXs8Y8tJY9mWbF/LtmQhLAkly4oIMAiQEKLJdO7q6sqnTtz57L3n+T/r/U5VNy3obqpN7aq9q0+fc/b59hff93nXetaz1sqy+Wt+B+Z3YH4H5ndgfgfmd2B+B+Z3YH4H5ndgfgfmd2B+B+Z3YH4H5ndgfgfmd2B+B+Z34AndgcIT2nq+8TV3B55109FaqVRsFwpZSxdf1NcgKxTH2TTrfereh3auuRsyv+AvugNzEJkPiv078NxbjgEUq9NC4dA0KxycTAq3lAvDH2o2mgeyrLSQFbLiZDKdFovFvUJhcn6rs/cTxcLkrul0ckYgc75YKOxqQG196t4Tw/ltvXbuwBxErp1n/ZhX+oLbbigXi4XVyXj6tdNs8s9ajeYxYYXGBf/pazrV5wrxT28LQPynKf/0t+HeXrY3nmTlUnGst3vj6eDe4XD6N/XZj37yrge2rvHbe01c/hxEronH/MiLlMWxKjB4hiyN59Ur2f9UqdQPFQqlRqVcyqqVUnZ6fVsYUMgq5bKBhJ/9z9/l0whM+A689AbDrFotZaM9eTgClbI+U61UBSyDh3e6w39ULk7vKhSmn9P2J+68+/jcQrkKx9scRK7Ch/qnXdKzbzqyWCyWX18pF///1XJtpVwqZ6VSISsXSplcmGwynWSlYikrCUwmk4m+prYyioWiLZCxfsY4sXWi76PRXjYaj7P+aCjwKGUV7Q9rhe1q1RrWiU9le3dnWK1mnxqNJ9/08c/df/IauuXXxKXOQeQaeMzPuvHwaqFYfkOlOP2HtWrrJiyGSgmro5IV9V00RyafJtsTaDDxxW3Y6ijrb+AFQLE33hN4hJeDCYI1wh/5x7YlbQvQbHe7tkiKAqOqrJKS3usNBlmtUsuK5eGd5zc2/8In7nro49fAbb9mLnEOIlf5o37mDYdurZQKv92sLzytOxhlC82mLQtFXAwYNQGJrQpxGwYPBWAAhbEABbPDgGDkCB4EwOG3UnJpoE9we7BQ+Ah/5+vkuXPZ6tKS9w+Q3H/yVLa6KG62MD6z09n91jvvOfGhq/zWXzOXNweRq/RR337D4XahVH6rgOFfVsq11UatZleloAktD8aAwWSHB+FnLIe6uAyDhH4fYXnAf8jV8d8BFP3bk1USZKvAQi4PFgguTP6yhaLXnv62sbOb1QQwrXrN751avyBwmmT1amFjt9f7jk/d+/DvXKW3/5q6rHBa56+r6g7cfuOh63Z6m7+42Fz4+Va9vQrRyVdFVkGjWsmajYatBnMixbKApGrgwGUZ7o0cccE8qZYqel8goX8RhRnv2yTcMD4jKBEAYbVggUyyqXaM5dGsVQVWBQFGxUBV17FvOnzQLk65VF+plqvvetEzbviaq+rGX6MXM7dErrIH/7zbjsl9Kf9updS8mckMWLRbTZOkZYdo4TmwNiJwy89YFXAkEKNYIkUIUX0n4lIuV/R9ZCDwYNHmwYPo7+ORAaMi1nQqCwPuBHfIbpB+7/b72WKzLpdGUR7zJEWRsHvZTrdvQBrt9U/tTfZe/wefuvfzV9ljuKYuZw4iV9HjfsEzrn+GrIf3aqW/zpESOA5NXK362VhWAtbBYDiy+9Gq1w0cewKKcFUmiqqMZbFowus3/6wICyAB/4GFwnv8DRK2rFBwrSxCVaA00D4Uecn6A1kr+lniNAPQ+tZGtrrQ8hfA0+kPs6Zcm9F4qohN11Gcrd7GH4/2Jq/90Cfv6V5Fj+KauhRGzPx1FdyB5z/9+utKheJv1mvt6yBCsQoWmg0DCa9aCfeilC20ZFHorcV6w9ZAs4b1McmGw71sqVkTwIATUxOiELCEcTuKrrRr/C7XJIVtsVYAKtwTGR0Gka1SJ+v0BgKTbrYmUnUyaVm2ZpDSPgfDoY7ftBZlMhlnZy5s6fPN5w1H2y/RUf/bVfAYrslLmFsiV8FjF4A0q+XC+6qVxZcx+ZOMw1GTqtwQQrUAgh0RuSFEZVoNuRkOwYoEFZgosCtth8BHFgS8CdtLxSp3RlaHvrBG9vYAArk2slaKYmeD39D+IWw1kroCiU5vmB0/q8jMYjvr6/e+xGhLrZaPuSnrY3lRwKJ/g9FI1kgvO7u1Ixuo/2lZI6/+0CfvnefizOB4nFsiM/jQvviUi2+rVRZeZnaD/+FyiMvI+Q4meLVSNDmKJQHvgfnQ6XWztqyVuqyMiSwJ3Bs4jIasE4d2DTyyYgQWuB6Smmk78R/6V5QrY/UqLIgAxeRprZhJ9qr9HMi2e31ZQnVn7I0ne3JjGtqmmHXEh/CCcC3rnK4/uJqd3th4dm+w9Uq9PY/WzOB4nFsiM/jQLj3lFzzjhlta9ebHJpPial0Ep0VfKSQbeg4AhAhMWZZGxSQnBGturizKvRjJKmhUy1lbfAUTvVaD7yjblcGSgRCFKAVEKvoZTQkIQoiXHzqyNhbgQUS0jkSbwH0gh9/q9OwqlQUyqEuwchZbjX0B2/r2rl2iPf311PlzX5Ar9EqRrJsz/kiuudOfh3hn+JGLSK2XipN3S1u6iuw8VKZhFeCS1AUMiMqQtgMGtfQ1FGg4IiMw2d3t6G9Fb8tn+WI7vSVQKWeLDYWElRsDd7LUrMbfxWnIf9LfGiZbV1oKEU8lfRfMVBXubXAO+vyyOBbAxwpXLBp9jhAw59lu1LIDSwv6xCS756HTAr76LSJlsUbmrxm7A3NLZMYe2COtkBvftNRa+i0sBayQgXJYmhKVYW3ARbTqcj3EgfCeeY6iclpEsBb1nq0V/QNQ2prsWCkNuTVNZeS1G9KUyJVpOJnu4jpjglSgAAgMBR5YInAbuEFDEvAEEN3+nsO4hIW3e6NsbzrW94FcnZr4FEhaWS1yocjPgU85fnY92+gMBFrlbLe7+TnRLq98/x9/bnuGH8s1d+pzTmRGH/nzn36dDInJPyUKU5VFARUCqdrSCo+7gotSrzNRxXcoEgIY4FJglQAuQENXk3t1URPa8vdStrJQlygMK6SoaExEc/JoDG4O2hArVkW4AiZVuT8L+uoLHIj2XNjpZMtyVzA9tsV9wJqsy9JRVSNZKiFCWxChC/A0dEy4FSyo1XYr62kfB1YO3Hpm4/zN2sEnZ/SxXJOnPQeRGX3s0n/cpnDus4h6kA+DRbHYbovElOJ0OBaYVG1hNGsNJ8WhDYE8DTBRCFfuyHJ7UX6Gwr4JeKoIzmRlLIkQJRrTkHUTKTREZ8iLmYg4rZpPaaJOVULeQCRIreKMm+ygIjKbna63W9SxIXDHzrUpZOcEMJEBrGiQrBa+nzq/mRVM9E5k/dSz3X6vOhyObpiDyGwNyrk7M1vPy2f7/GdcV1Zlsfe1m2uvwarAnWgILPrScyjZTnkrY4dYD6+0TWYO5F5YM6LPrinE2h8OsgMLC9lARCjWC1YI4NC0VSBLgqxeWwrIWsVvkNmrz1KPiIjNWMARYV0BgN7HdaEcABGfkf7GzwNJ6JHRD4aTbEcWT0/vdx0eVjavzvG0NCK835dls90dShJ/OOsM+9mn7v707ynT+Bve//G7Iowzf13xd2BuiVzxj+iLT1Bz/KXlcusV/IU0+/bSolZzgKKqCT2RFqNtsrTmaM3E6tRdhVwhM4f6e1nAgZK1LPFYQ25LQ8pUgILoDPyKMEUvkazmLQCQyOPFssAlgaSFL7UYTfsDbBooUXGhxH0U+yoDICBDN1IoCkz0ud64Z2voYSXhsW9CvLccOZB9/uGzspYq2UNnz2ZLArhGo3WjNscnmoPIjIzNOYjMyIO69DQn0/7fXVo4VMby4LW82Mym4ingR7A8cEXqAoeCrIWuBF0HBCpdan7oC9XosbWl7MzGVnbdgRXXCGnKlaiLRLUbI0gY7Q1lMQTxKU/D+TaudCYLIs/+LZhYnbqqWUWAoBwYgUvF5GlRPAzkLq5KsTjMhkKcpkAFU+bYgWVZQuPsvERma0utrCUAUbaxz323P+B4dZ2U6hPMX7NyB+Yh3ll5Uuk8X3j7sVKt1rqB6EtTlsVSu5l99v4TIlE1cTWZrz+8al0IFgYSdLQYWBC4M2g0cD0oYXh0bVmRlIF4lJYtFECjgJ4DAFLoti73qFDUXCaJT2ZICam6zmEPVEHKnkLHRFl4Txjm6mhVgUJDLpbLKgp8FhfaWUucDUBFmYBV3Cm5OwjRzm93bMFg7XC+6FKwkIRrczd7hsblHERm6GHFqU4rkqNr0af+aebJefP1R7K7pbVAYFrXBGYSU7eDCApg0RcXAZkKUOBGbIrk5DtCMxLiAJmGgERl3LOyCFfzHCJhneYvYEHLgdvkMgHwHBKb9eW6YGHswsOIrAUgppCvhI+TTJ59Uy2tIIumLSABaFoCj6bO7/pDq3afyJ85K6uIqA+yeJVVVHuKIu7M/DUjd2DuzszIg7p4mpqS5bKq/MiVkPsAudmS5bBZ2VWEZmx5Oiv7QJYKQIEYzLJ2TfjtnW52UAIvIiFEZ1Rn1bslF8aVykj/lzWQuyx8JuXvhcDVKlVS+iOhri4upT/qZ127VURqJKvXvgAwWxSEcJOV8bAiMdcfWjMvwt9OrisyQ8hZv1PXZEPABtg16pWaLJrmzD2Wa/iE55bIrD18zTmdsjJXIlTKRHzgxGlHaOAtNuS+PHDqrEECeTplUbFAEJsRsWGbupSokK6UOKtquyJZvL1eNhr0s7E+M5G1oV4yqeZIlFWN+iOptmq6Z1gmaEzgTMjLQU0/EWiNiczo88jfKUEAAlmgJpDjPNeW2nbDsHVefPst5nEoWoTLJfemLhq3PWuP5Vo+3zmIzNrT12xUhTJbkIAEqzeTb1kRmiqWh6wA9B3mKnBp9A9XAfcH4KBGCFXOXCaRpy8SdU/gMdU2IVF3Bp9fLiOQ0CN+jvfixyT6IGKT6rVindiN4sP6H++T9Us2LwQq9UeGslYADHibFfElnKvzafSRFdUdkQCuqM8cmrXHci2f7xxEZuzpa6UvKRNWgRPUpyI90YQst5XLUrUClcS3JU3Gnooyw13sKQQLeDj5TuSlhWWIx+BT9L+xuI2osUpxZtgQcITGVAlI7KgEZOTf/VPK4eNnXCbcqrx2CYjggs3aH3oSRGzOt1Gome1xYQA3lKufuPvB7DrxNlhMqrsaRZ9L07/36hfeenTGHs01e7pzEJmxR8/cVquH8q5k5TWt7lHcsJDdffyEi/2soBHRSk94ti8gWRPAQLTiMjCRqQ0iNbt8opCuQ3LmxZXzoEgARgKTx7g/Dp0ksiTAhFAvmpQYTgBEMkbST5ldmQAnettIFSvrY0WRGpcLENDwCi6FWq/TBW0rOe38NQt3YA4is/CULjlHiE1NtgmTF6l7XfL27Y5yVjQh0XGQN0OVdSIwtxw7bFKVad2SEA2LwRwGHAWchzUhTO6c90iRVRLt9qf/F9+gcFcuuj2AA1wI1ghWDYI040zu8sDL6Lgcn/NzyUVtK4l7dtt1h6Mko/YBMPbEoyy26+rtWzwzY4/mmj3dOYjM2KNX/svgwsaFTU4bfoGVPa+NijNSIf3fNT/C8lAox7oQVKtEa0oQna6VGvxG9JrJ1agBIlHIOQEK1sOlIAZ4XAIg+Z9MpuK+6HjsM/afA8nFyI4iwOZLDDxEg3yeOj+5WlA9CiWPNjb7f/cPPnGPr3H+uvLvwBxErvxn9Igz1FrfKRbHD6JIhbTc2FRFwULoOSBZyaiFSIUzQUlKEyo4EbfFpJgQvWKSpZBjgUO26Sj5xM//FtXSAkhcES0wIL4SGAAV/A7P0kPqnvgRg5TDwRcvwWQvQGYdS+wXnYjrlOia5G6NS+XC2Rl7LNf06c5BZMYe/2fuOzNdWjjwY7gluAFEPqLdJa0eSlapIgw7JjEXgjBnvWAhmDlhAsNLhDWR4iu+AwBLRF5S9CX3bNL9iVKLF1/xa/5eAhd9yyuhAUZO4iNKc8l+A3lUhkAEMGDXsdQdRa24EVswk444k86MPZZr+nTnIDKDj19z82FrRDTpUKxubnez3Y6IVhGqu92eiVS+4CkgW50PQ6uIS9yIPHRrkVlyaS51XHLQyC2ORwJIbovEu7m1wk9YK27Zm1wagMQhYIeUEaAFgQqwuAK8gI5sX7ieqb6rlMGWwGSefDdD43IOIjP0sPJTFf+wCR9Clq2rsytsy6TFvWFyMmFJ0kf8VVM0hodMKcTQjGCNXCRScXfy1pk5l5EfZz/Mm6ySi7fq4hsGEADgEqpkR7VV43VxO1eFF5jwDqpaws9cA2BIM6tTUrBSsAitC+k6M/hYrtlTnoPIDD768Xi0u7O7q9QV+tqGpJ1kvDPnL5hbIKGuT6MocSFEReAq4CIAnBCDhfvBlMYSAXguBY7H4E0fdZcucW348RKQ4UeKPsOLBP8Rne98PMoMUAvWERpk8pHTw/muSMHqYPV0ukfgaQYfyzV7ynMQmcFHL/egJ+K0T/sFt7PUqr5B/xYRlksqcTiVAE0xErkxUoiSfJcmM1aHm3UnV4jJj4vB5A4cCT7ky73CVXn0hhdJVz7POa3LzRrK6nBJxfQJQI/6IahWGXzk6gAk23LDsEhkXY31ftQ4mL9m4g7MQWQmHtMjT1KreW95qbGJSKurZlG4E7gpB5STws/oRURQimBVLgzRGoGGOQdbBVRrp2tdFFy2ZWKylWME6XnxdVG5+ujb9AiweSTn6v3hUh1YaAgYlP0roZlLJeociB5xLPQr5NHknAlKW6JLvW5XFRUpyjh/zcodmIPIrDypS87zY5850d/aOHcn8vZllTlEB8LEZBIi2GLSwjeYvExSdj5u7kP/ABysD4d9Q7zmvafAiS2DfBZfChaPZX8kPbztjDzqE7QrxAt1WsuOwBCNofBQrmflPAEx5/WkFhcLUrFKbauyJlaTzF8zcgfmIDIjD+rRp9moL/yvvV5vgmUBoRriLfXYFbeQC76YpI6GpMmbi8rY16Xg4DyXfSIkWSOPNY1zEdklJxPAcjFYvG/QpM+7B46sDgo6E37GGumKr+HPuDZYRVAmvAdPQm5QxHDmr1m5A3MQmZUn9ajzVO+Y05p8wg9qcCDSIslNSXiDPVUM23X+DBOYlR47A4yg8noeuiVCcukrBGVp8j4GL5KHbPPMXoNHApVHS+T3AUr7jHohKkqkc9xUH5oNRW6IGuWulXvXCAThcwASRYhU+ZUg8fw1K3dgDiKz8qQedZ6K3E4oOkaJQyqsU0UsdGVEbCLhDlfGldr1PhYLHIQbUDnGqw/n1seXWfjzGf2lZnbsMrbY51cSWCTOVjVEVC9E1gfHpnIaLwvSZJ2sKXEQ14oKjc1KeV6UaIbG5RxEZuhhXXqq6pWrnnH01VZlM+XFRANuhTVEXCI6g/PIoyKgSx5mBWhyPsROSC4a8ex/lJ+S/5rEaPu/8sOjwjh2nRJBu5/F+yhwMkgIyEzqpl1gLeVELz+vLCweKBdGf29GH8s1edpzEJnRx77QrBVUIcwaUDiPllo1YJEgO485HqHckLPnsvaLKf65xXDpPDch+lhWiV2dL/26KIuPiE4eDYrjqGWEyhLwh11Fa/JtsYqwTKxl0XkOB70Li81GRa1BX/Q/vf3V89KdMzI25yAyIw/q0afZrlbGy+rCvbbQdL8X+uviGhB5YaUf0zpTURtWdxcd0leeH8PP0Zwq8mf2+Y50kFCffjnYiI0fvdkjQAkwSW4O2hAiz4sqSZAn5lkGn45FFKdWmu5Oelt3veMFz3ueOujNixLNyNicg8iMPKhHn+ZitTxarlWnw34va9EaU5PxJjWDokAzk3Ukt4YVPrdCcoLTqf9JLJYn3OVmxn5YF2C5FFACLh7zTrGrHAjCkrlI3l7M97Vt5D6/bEP1MshWi9zSsSiTuNquXah2p3+7pIjNm5777OMz+miuudOeg8iMPnI10h4fW1osv/ymI9mOGlQ98PAZq0SbSqcHKMSZ2KVwScM8NKsZm1sBeS2RgIdHAkTu1sS76W9YDJfeqwQWl26DBZS/Lm4bcET0hdPI65fUU4V5N8ASoNChT8UNHnjDy5/3Hs769NbW9ow+mmvutOcgMqOPvFoqSyZy4Y/Wmq3sTbffkD33psPZAyfPZsvqJcNsR6WaF/7hEln1sRhyl8Z5Kvu6j4s1PyLQ+0jg2HdtEjdikNm3VFLy3aWWSw4wyVVh23BdVNtE4IErFS061T1P3y3Hn0566uT3KTWgWKaY0sGFxYUZfTTX3GnPQWRGH/n/7z9/cNgfF94oaXuXnriTvjJ4dS22QMSL5CpUIjRghYsmpxqoYQ2k4su4I5faGAkh4ptRYN8e8U/hu+xzIf6Vf/ohF63llkx+a22L6M3UItzAEU3IVZeV3B2dv0oW9NuN9j/4nn/2awOu4VEBoRl9StfGac9BZIaf899+1/u2j69vvkLZJtmiMmEPLy/YAkH+DmBE1i5V10W6auLmAq+wQnThOTfyiPJEcUNCwp5YjWRRJCxIkLNvi0Q0JudC9t2cR3Eocmdygje/5ZwjgMLhR+O9yWhamv6zv/zWGsBCI6z5azbuwBxEZuM5PeZZ/i/fdsfS1tbZ/+dvfez+Hzus5LubjxyMTnbaGiChoRS/E7HhldcLYeW/lCfhb/593125hOkI8+Mxjn+xpCJWDoKxPG0uj9g4+gMPk/Zfln6F9zh+WCChZnVltqxQG0wmlR/5V78xeN/xh4qv/js/NVetzsjYnIPIjDyoxzrNtZXl6Z9//Ru/72B77/vrkry3VWKwq3Avsndk7QCJe+pqVmOhRMp/mtVhbtiK2NeNPUpAljs6ySi5xNpIZ3PR2wn3Kbk04QZd3Aa4Kbu6fHAzPoUEEXl0RrVHJrI+PB7/xk/+6mOh1gw/qav71OcgMsPPVzqtvUFvJ/v+N37twXtUAJ6Ix0ueeXN2dGVJtTw6zuZFFg+IUKIw50mwVS6Geh95A3L+ImFMWCEhbb0Y9s0RwurXsHRysjUnYS2p503UqXA0KluQWx8Xyd0olUh2rwRzI0Vw5tbHDI7HOYjM4EPLT/mHfuI93Xu3Oicv7PSy5y01sxNn1y19f1iAgosAFzKklkjyLy4aGkGl5kWZL70Fj2kC5HiQ3J39MHHydPKw7X5dVtdL1XHFaziD2JqQsIAeGREKMhapfqk07cjRmRcjmsHxOAeRGXxol55yNxs9a6osms9tdLJxZ1fAsZfdcHg1a8gq2ZUVQvq9K6urnSYka7S8zNti5mn8F/f4aFMgNyguMT68cc5zAAJ5Bz1AZFeaFYpCw8IUKRItc2ma/Jd9zYo+nLcBZV8mZSe9D/34L3xwd8YfxzV5+nMQmfHHPi4Udu85+dBZmmLfev1hVSfte4J+4STiM7kzFANCM6J/rnCWTI19buQR1kG6GV/kVMSH7NXYs4lCRvAuYX2k/jJEgdCAoAVxDk9iPFIUKPeH8nadnFcUjh73a9XFH5nxR3HNnv4cRGb80WsVL620K+dvPrimgkQLqpZeEyfSzlbVVpOapZQnhHPYlUWSA8B+9CTXgJhcvQQ5vsin2Q+x7PMi4Zs80iUCUCopg9hAkQiWnDzNgQjLJQcQVLbiVEcqiThvEzGjY3EOIjP64PLT/tGf+i+jvWr55ac2HvhxsniX6o3smJp4AyBDE5ZR7OdSFwQB2qWq1EsDNvsb5kZJjh/8/ghwebSkvmDXKXdt4uMBTI88VryHa5VrQVKxpHlEZkbH4hxEZvTBXXra/+9/+1udUbn11z535qHKH99/77HP3P/w1uuee5NaMdT3JzJAgm4EC4C5PZZALbcmHgMfAgIe5dbE718cQAmOpaAM3YbbQVzcJB0jP1n9CUBxTk/aDSUCuv1edw/SZv6ayTswr9kwk4/ti0/6f/3p32bGIvM89X1vevEbutXmH8hVqJIdm/ebyaMxIToLXqOk0OuXjqvmbSRCXBYYET9bTJZiu4jNykrnZ58uAL1/ihHamabayz6y3B4KSRN+pnevznNcJA48f83kHZhbIjP52L70SRfr0+/t9Tfvk+5CgRHaQgRgsOpDZAIqUecjcSGXmByX+hQWoqVDPUKjlr+XgIRfCSVf9HcCpFKazb4XhAWSV5fnnDgXt5PQafL+/DWbd2AOIrP53L7kWStX9kd3djpvbLeqm8fPnDyDK0PbhmjZEFXHnLaveeuf9wlWTIaYzLlk/eKBLvbszeXzUU5AhZAEIJHch7+SPu9dRWJeXjaRfaGgBdDgQ8JqQcuyp03mxZlndSjOQWRWn9yXOO9//6sfGQ96/a2TZ098ajDoXqB0InMb98GvS/yXPHEutwSSdxJAYk9kv2Jq+mx8OI/m9NQ8yy3D98En/0wOJvF559d4n+rYB5AI0PIqbHqPRjhzU2RGx+IcRGb0wX3Z01Z7PJTqeyIcWPWtFdE0JZ/G9U+1A1yKcDsCKi4m0F1M9X/0cS7lT9xtT5wKDAiy+v19sX+snKRwzQEkdCqhV+npPNgeq+bAcmvrX/zKR+Yh3i/7UK/MDebE6pX5XL7is6rX64XFhaWnlY6Vr8PyKGuyh7DL7oPdDwnVlNdC2waEYbkbc9FQiXeSNCyhx368BcGZIjyO8kRt6Es4kHCXkg7Nfwh+JPZIlTPyZzgkqtqsuPd1X/EFz3fwVbsDc0vkq3brn9oDV6uVSaNeX1hQZi8vxGaAx/ktKcs1eXOC9dKaqHlxoXzCY6nkxYYuBYEAAlk1O4OsVBEvQrMYvcc+4TnyhDwXKYL3SJYOTC5RGYCJ/XbkCg3Hwx3RIRtP7d2Y7/2pvANzEHkq7+5Xdd/F5XKpUqspd+XE+ZijPaqfyQLoq1xATqbmUZJo8RDWApbCPleSAGCf80jWhAs/q6sddOh++cTcmmE/CYAiwmOByD7Jut3tZdsSw+HS1CvZw//8Pf9t7sp8VcfKV3bwOYh8Zffvivz0X/6211WX2vXfVgnC2kD8w1El5GEplAtoQpS6L11XX+HegcAk13Ukh2TfJcmjNgYVcyi5cxNbjveUbNe/OPcBHVsu+lvwKxFWzn/2ZwgzCzggZQGz0XjUG+5N/+wVeRPnJ/W478AcRB73rZqlDadiKcrHkKAvL0gGf3A5u1vV4PfUiyYnNXFtmPS4F0zqcD1ygvViaHa/7CHg4GhNvNCNVKpRYCh3W/xzCtvuR3sSW5vvHyDp69gQvNXK6Av/8lc/9OAs3dn5uX7xHZgTq1fjqJA70uv3J6Vm2bksdmFEgO6IxIRQVc8r59QAIExqCiZL7fXIO4EGBLAAOJJgrUTfziRMK4gHibqtF92ZPCKTR3Ds5mj7COtS+3XP5+AiRHAn0/LcCrkKxt/cErkKHuKjL0FWQFH6jcln73vY1Y4Jv770WTfJEgmgwJ1BYRqKUU1s9XyJcG+EfaO+R/qeQCK3OHJLBBCoKmOX9/c/Q0xZ/0IRYnslRYOiYPRoqhCv/oZKdbC38/F/8u7fP3MV3v5r7pLmIHIVPnK5FMVGvdbo9vp7DZGfVdX3oFDRljiMs6q/ukW2rf6J1vALIIGrCC3JxdYPtJ7YD8sKBByWTS+7K7J4chWsccMyesLJ2i79bMm9tlPCf9bB8tF2avE53ZuUvvEqvPXX5CXNQeQqfOxyYSYttZU7srZYYzY36zVbI8+99frs0/efCGtAE5sU/D6VzqiTKgDJizrn+S35rcmJ0NxNieruATApWJOquoc0Pnkx+zVduyJxe6PI2UGC3x9u/eE//vn3nrwKb/01eUlzELkKH/tP/dKHOuc2znzouoNrBdcvlWVA57nFdiN7zYuekT2kkO9mR2UM4Snk2mxrYiP62td4JHAAZHjlRZ1zJyUv1457lCfxUcWd47gIs0DJ/AgukQALIrUzGGQbKh690+30u4PJ3Aq5isbdHESuood56aXUa60/V6kUdlGjmgvRbG+pwdWNRw9YHHZuaydb31FNVs12LAXUq2zHV4RqldqfWkxggUDIXlr9DNBg3wYot8QM2Xu0jkhnIjDpy4XheCQA0m9XCYEn+oPB+av0tl+TlzWPzlylj11RlVKtUmurPWVqWykroRxcxU3HDmR/8vmIrDZVuMg9amQtDHb2skVxKG2iNbTmlMuDpj3yYi4tC6CdWLWOxaFSA+ZOYgtCtwARdVank6KjMR3VeT23sZXd/eCZTIejR2bUCpi/roo7MLdErorH+MUXcf7C6f8DVSkTnBlLu0qsBkjW60SyPue267M/uevB7OyFLVsIZy5sGxT64i7GAgZ4U7YngpN30MuPYg7V1czihTXTE1BghRQFOEUdi7AQWhT+dnZzOzt9fit78XNuzpYXFxcEMNWr9LZfk5c1t0Suwsf+fX/2xde3Wu23cmlUfq/XFIoVoFCVzJETAcmzn3adydGPfure7GZZJnTPAzTqaqZN+PeACj2Pp8OsLVKWkCyQgUWC20INEdshSTNS0Wc6colKen+k8AtVzPjMaVkfp9Y3s1PnNrKXv+BWAdWOzgUzZ/yli6ldhc/kar6kuSVylT3d73jDcxfvO37X/9Sst1awOkJlGgQnvEhZirG2aqHy85EDy9krnndr9ql7T8jd2JbFsJVtKa8FEnRXlkVfYDIYElWRnkQk7MA1WhGOIUDD3QELSrZcqmrj2R/SomIk/mNk6wMi9fjp9ez5z77JvgvJgIrsqM2d/Jz566q5A3NL5Kp5lFn23W9+wcFuv/uep93y/FdiNVwqDFMynn+vSq1aFCG6qMQ8oi7wF3e89FnZfQ+fzc7JpSGak1dBW1Evm2GZpL2Sij5Xs5rqtUrlkbQj0ZqTF0TspsCH0C/5NBd2O9muEuy+cPxU9soXPkOfK2cjCFZZOmvLy0vbuxfa+ljnKrr11/SlzEHkKnn83/OWFx3e2xv9frt18FkrC21rQLATalKV+if9VxdpSvCEhz6V27EgkDCwyGLh5xNn1rMPf/Ke7MXq5/vQGRGtywvZgphQqsaPRLJWBTCEbctyX8bqtOcWmLJaACgslZ1eVyHcXnZaPMsN1x3MXvWiZxpA4GUgdZHgd3uyisb9d+mwd1wlt/6av4y5b3oVDAEByEHxGx9oN1duP3ZgyapQKVY1gStZVRN+bXVJ0RKRqvq5UhaoaMI7fAtPImPigmqMdGQ5bO7IgpCa9f4TZzXZxYc0a/7MoZVFAU1JP1dkYQwcKsZiIQvYuTSWvk+yzd1udl5uzIuefYs0Kc2UwRvuVBlCRud1dn0r29ze2hkOu8/5iV/8yENXwe2/5i9hDiIzPgTe+Q0vP7K1s/0bxw4eexG8xE1HV+RSDDXR6xaClZT+v7TUkmq1HgSruIy6LA+sAlSqgABd6CihiDtDlGWqbN+TIkPhSvZoiCWRGkl76ELyAYN1wasunpQ3kc7fI/D5pjteki0IQIgG8YKTGY4FNsm32lbz8TNqOD4e7d7X7Y9e9ZO//NGzM/4IrvnTn4PIDA+Bd37jK29YbNQ/VqvUDyFtb6jCT1PchcqrOkSLZXH04Ionel1/xy3hb1gVTG4mOgNgoN4vXXEZFC2i7WZHIV9qlU0EJjtq0P3xLzwo9+ZCtrLQdHvOptwiR2ncDnOSLen9dquerSy2s5WlBd9R+A8S/dCagCd05+Mz65sSuelLQaNMYehPT8aFN/7Ur31snog3w+NwDiIz+vC+800vvV1cxu/fcODAERSh1wssXASZnBZZG+S1kKrPZKamiEolmgilV26tKivFQjHxHOIqABE40s2drqIrSpIjEiOLpCe+I+9uB2FK3xpKGlYU4QFA/uDOL9jUeOtrX2DXCbACYBCgAS4uQaB9r8oS6iTidUvHOKOwL+4Nx+h0N+9VBOjV//rXPja3SGZ0LM5BZIYe3Ne87DkHRqOtv3tw7dBLVlpLzzy62FhYW8LVYPJiZcgCEBoABIAInAcTG9K0JUuEqExBX4CAIyvapiarBLcG12cwohudsm2VVzMY0V4i/obVQP0Q94qh+ZWFaNQpUc3UPRUXSkI2ojeWyKM1kWgN14jDNMWhuEOe9gGAnD63mTVrZYPXQK7Xxtb6F/qD6Z/9d7/58Qdm6HHMTzXdgXl0ZgaGwguf+/RDsg3+zbhQfvHq2m3XLcllOLBQyVZapawhrmJVbgTuS0VcR08Tnck80uRG19Em1Ks/AihR1R03Rq4G76UyhkRn4EVK5NkQSREJWy/WDCi4IENJ2eE0qgIfaoK4UrwsHkAEN4rPA0xWjeDiaB9YKoR8W9KGwMWgoB+LG0GQxnZYOHy2KCArrRx45pkLW5983XOXfn1x6dj//Ksf+tx9M/BY5qc4B5Erewy89Lm3laXrWpGQ62WD8eRft5qHjtXqrWx17YDAoyYQkUWRjQQgCwYHJi11O5isJVkG9LilYhnuDGYG4NCouVbZfqp+1DkVGIh8NcBgcdQjsW5oF8c1jQwCI0VjwkWSyIzCQ9QXkWVRKuvLClYS/OqyLgQU+nk43jMPA5HrOiRSsQpDbLXg+qAtQbOystTO9rRvRYsWSqUXfte4mH3dS55x4mdWV2/8cRVgPfHBj3+BBjXz1xV8B+buzBX2cF73smevDIbTl5TL05/b6YxWirVWaarQKpN0ZWnJxOatNxzJFgqDrF0ZZzeKC2GiYm3syUpALQoYkNq/RJhVP6/JcgFMqERG/5mCLAksBviTkMLrPddZdV/cbCg3hBfEqvvUCBAK1p0EWABW7jmTKpURBl6QCnZbJCzAgNvT1T6wTiB7a/o7ER8iPXAjx6VHgXBdbsPN4DSp6HOnH+UTB5PsQl9uz+bmqc/e9dnP1Oqrf1MWzafv/MzdczC5wsZqfjpzd+YKeTCvf8ntz1xdrv+n/qD4HGGCqghplW7Xsp1O13JydB/kuhQFKMPhIFtYbWVrDdGjoIAmYZEMXZkucCLUCYnap1H/1Gn85kPEhWhC7wkUitMAHn63i0FCnawFQYTdE4d/qaGqbQCgov7mCor6Ij+G42GoIKHHCiKfBkvEdVv5u36vkEEs4MKBmejz0ym1TWgwHmUZqThPnROsm6XFetYUyDTBwK7Oo9o4OhzXj65vrP/emfMPfeZ5z77t2z/12XtOXSGPa34al9yBOYh8lYfDm1/6jJuWFuq/eWFndOu5rWllSZbGwRUlvynRdWt7xyHZmhpE8Q9LYnV1NatLBFYphewcnYdrnGp20x6CicmkJykO1WpL2zL5Ce8WCP3iviThF25MXuldXolMD9pKADhxPKwFFTK0MI1ITklAMND+yzoPteDOijqvsoACdwXgCECThSOAqMsCUcsK8ygTnVddROqIfjfaBA7nnERpVDlDs1KTvmWqVnwQsgstbV+eZG3l9UxLDVkog5XVpZu/ZjTZfu8LnvvMr7/z01+Y8yVf5TH76MPPQeSr9EDe8bXPv3E86f/S+s7wlsqwvXpwdVFWQVWkpioaVmvZhkKpzWZTk5YVe2gAWTt42Cv7QrutSd0TAEQBIayGrut4RB1UJjihGqySmvZV1teeJnlFIIDrAZAQjXFDbV1/BaKUvzvfJtL1ZGoE6SlrZIzlIgByxAdXKEVfqlVqlQAScCXqaNelJYUsERGy9OiF/8AiKRRVTkBWRl1cSE+KWLga5PiEkCmZCMELgEQ4uZgtNgvarp8dOrianVcmcFc5OOXiwu2TUuf3X/qi53znx/7kMx/+Kj22+WEf4w7MQeS/87D4jtc+78YLW2f+pcKud7Qaa42bjhERwWUoyZKQq6D531xazZqrpez8+XOyDlCVCgxqhHAhMsvZg8ePZzevNJVEV9NkG9lKwEVARDrU/7AOiIqQdS9yUlaA+AsBDuFcJrjdH0/YkKJjPQT/GuaIc2NcZSi0JOhQMDL8icSlNKx+1d8BMaqHpGiPI0Gp1ghAMRaoVGXmiOfxcZHKcxgiM9sKJUu1KoDoy11DECfXhwPpmusGviy7/tiRbEO5OJu7uzr/hRubjdJvvPplL/qLi83Sb/3m+z82T+L77zx+H+twcxB5ih/C97zhhVVxGYcvbJ76u+326isWFxdvPnroUA3dBtNyQUpPiE3CqQNNmq76To0UKKE6uuc0lsWEFVtEJdJzC8jQZ+xlJ88P1S9m6FAqPAYfcEGgPRUX0uQ0+Gj1J9wr2JBFwzwuGEwQhOX1yvL2EBGijXfRdEQtM1yZIEZDuV6wlVFOtUQ4JtZEUUDRk3sSfWmi5QTWB987Qsc98TS4Xw2BA0WQsHeI+myKjI3KaER8sIrkNukYg14vK/keAUrI93Vvuh2B49rykcMHf7G4t/3gt77x5d+y0Kje99O/9sHNp/gxznf/Je7AHESeouHxXXe84NCpMw/8fZGLX99qLh++7sgRAwDRjzVxAhCKvOAvCppAZXEcBS3ociqyKTyIuIRo1yBBmPiMZnvBRGm/37NV8Jl7H8wOLUijYR2ICEn0GgIMyhI6GiMQGtNbRrNPQq6sNhHvoGPjfih6ayk6bgSRlIY+N1WkRSZHVkAKD5CkymZGjsASZwNjiQRO5M26BXYiRoeyMAxG1GXUMbtCLNSpAA6XCldjvkTnSviYLGI5TL4Hp5WUNyTMKw7lgEK+JAFOitK6ZL2svSBNzKEDqk2yk9XqigDt7GSLC0flEq3dtNoo//Gw39n74W991RfkZL3p//rFD15xFeT/wV94s7zEQvaj/+Y3r9ro0jzEe5lB5M/d8cLrp9P+r7Ray89s1hvyKtBqFDRRq45ekK9C1a9FuRtwBvvlBwUkHfkyPa36napk4trm5KmTynrdtPqzWWtkt9x6iwBCaf7b57LdC+cUUu0KREShaP/kw2DREGJFobqoLxSq1FDFmmHVT7ynrYWozC7Q0TlUJS4L9Wq0lgCMAAOIURdgtlIs+JZpEpGpd4wtoKgQH1L586pchgXE35ygJ1DBSuHzcCsq0GxQJPw70jXxeaT0Q1lZuDZwJi5dIAtKLEzWWj6Q7Y6KWW+vmB0/cUr8yIbuX0FZyYvZobXV7KA6/LWzfjY0sCoUrVYUguNvEtit/+8/+/shcvkqvv73733DwbWFxY8NBp37dV+/4Yd/6jd3v4qn85Qdeg4il+nWft8bX3x9f9j5jUZ98RnVaq22KDcFwMgtDtwWlx8UmOQp+ug7mDSunK6vXU3AbqmVdRsr2aZcg89/7rOaPOoTM6lo0hzOXvSyF7o40HTzVDbaOpuVVdMDa4KEOVZ4i0L8RAUqTvsHVAQUAoKW+JESbozNnyh1qP/7XOBBLEyzaE0qWCoYahsUsFRyN1dCqJeQsQsZYU1oYTVIUO1M7ore68v62FBZAVwXXBlIVtsvqXhRWC9hweD68HkiQFgeuDc5QayDZyXdp8bCUrZ48Jiq0qs8wQMnVbJgW5L8jiJUi9ltT7shm/Y62cGWgEc2S0VRJAwogdq0090+tblz7ncXmgd+9O//3Pu/KpXl/7/f9dq1wwtrn7rroYdHz7nuhhtPnL/nn99w6NiP/IWf+q+P6ld6mQbgV3E3c3fmK7z573zji1cfePiu/1M6ju9YXlyS6lLRBQEG4MDL4KFJgXWQ1yclUQ6JOa4F6fvmMrTNiviCigBjZAAQZ0CIVNYB85Uq6mTCVpdUjX1lOWu05FZoBZ9qxY+6HmDHNNtWXRCHWzXhmcwtnYd5Djo5kBSH64FQDCtCElIVMjJxitK0Jc1HWZwEoICVJM1K1kfHgZoVwpTzhqOhjiqfFwComV00Atd5QKICOhMd19YOoISYTd+JIhmY9DP7X2q1DF64bM7D0fa084yKbCheJwplt7NTslQOHDyQnVW+zY4EaU1FbjY3NrUv1SxZXcva5bGEd7oG2S64dcDcQrN2bLG99H2q8vb2/9e3v+zjsrG+RxB49h+++wP/XVyK/887XrOkZ/Wb73nf73zsHV/75m98/o2HsoVa/QfK1dH/ohPc/AqH3BX38TmIfAWP5P/xlpc+Rwluv/O8Z730KMDRdBYrk5bwZtmJZ4utpi2DEHMxoQCOikEBN4eQLVwHE4nJUx0j8Er9X4h+QEjK7UDUxYQtCXQEMVp99T25IdU93BKI02F2QOcAQcm2Ne2TymO8iNiwVE8ALAAmAQKggO4DHgNDxipWnQdULOfdlZWg4so+P4eG9TbXQg6NXSLrSTBuirp+9CsIzAAKCeRk5SAqw8XC6iIyRNYwNwJQacnF8nH1eZbnI0AA90JAsq2SBJVmS8Iz/X35iKwtEcmnz+tvKnfQamfnz53Prnvus7PKUMWfdd6Er3V3HE1yNjNAN20uNmvN14mPeajT3zn9zjfc/KsrS0f/1j/5pQ9vfAWP/ct+VAmFf3918WnPqzYPrEleJ7BuZs+9frF6fOvsH//y3/y+5739H/yH7pfdyQxtMAeRJ/Gw/to3f811Csb+l3pj+QUUHybcyYqKoMsZrZpIWB74+ERFSnlyGnoMFJ9EU2SuMwlZxR0KhWMwmChXhXR9KUpbkq2LVlHeSqz8dWXqAjVUY0fHUZd6ld9V/thTvqXVXR00E+mpiaoJXJgAPmyvtwEq60j4FAlxAVb8XGVCkwMDAqW/MaGxfqSBDRDUG1gfhIABChs/Uo9BAiOZdw13QEnXhmQ+50Ks/tA9qSt3x6CVsn7ZHz/zcoeblIPDMRqcI2BMKFnAOJCrJIZJ4jOiugK3Qd/itUMClLoBM1S1nBTWGKDeR+NiHQpc8dLR2nWtHxyNem//H9/x4s+q9tuf+7Ff+NDpJ/r4f/JHv6vIcf+HH/+Fx3RL/s53v35RoehvvLA1qN149JZb9nRNx7e3s6PTZnZg+eDT7j/14IqOOQeRJ3rjr5btf/Qdd6xlhcFvlSvN5660WzUARKazNRVOgsOXh4zUast7gAIujFtLkpviOYbWI0hQZu9UZoHdGyYXK7RCvGV9EEJ09dBBaUJOymrpZ1Wl6XcU4lzNlkwkTmpMzOAzqnzXZyvViHbgxtisqDpVLlPgx5OJMOwASTzglR4KhYM8iSFPfY6RUMevtkp0vlvqlgc/wmyMa5L2BBJU1wmghEsSylXaRXg7snyxPuw2oZINfob9kZgHEVvFNMM6074nAk2UroAT5QW4f8pazhpSre7o/WURqaXsXgMX57Crgksj3ZOCwLSF4hXhXCJ0cRNxmcjbwRBDdFdRnpEqzsptqx3emywc7vW7n/vhb3jOHzUbK3/+H/7nDz78eMboP/vht/7ycrvx8vd98A9+4F/81W9/7w/9+LsfAQZ/73vvKBYq1d/a6uwd6yg1AXK7r/Pa1c9/fO+57CW33aAEx+xnf/Vvfc9bv+nv/8xVAyRzYvXxjB5t86Pf/vojigz8YbncuOGAQrSY6Eta7dyDNgEFP1sBKpCwdkJDHiKVCciqzsSoJaslJlgUU8YQD30FiWfdbKu6ko2XDmXHH7g3+8TH7sy6UoTKx89e+epXZwcPLmW1vZ1sdbDuxDarQm0daBJrUtsl0jG8V/sJAgLcF62eWDuQnCO9738IyTS5cTM4OlEW9Cq8CDtzDZClqExNkLLa64trh8PAdWk3GvCgkT8DZMkSskuRuuLhxiC3N4hq/5wnIjjOjfA0kx0gKuYhbbJ9ExiMFKk6O6plW+WF7L4HTmQf//id2baIW6y1sqTxL3ju7dnzVQ5ySQt7TVwOyEf5A1xF33DIWoEVIB1RIoGPeBfAHsk9x9F9GZ5bf/h91dri96oFxvo/+oUPgjZf9PpnP/Lt7ZsOH9hUpKw0GQ02Tp984P3lysL3/Q8/+as7+cZ///vfsJpVF+/q9SZrYwEhETVu547C00dU/e2ZB1rZ4nIr6xf6f6zWG6//hv/tP24/zuF3RW827//xOB7P3/j2Nx5TePbOVmvphiPKml2WDuPwmsoOyr1gQlD8mIrn+AxwHqzohHMtGdcAhhcAI+BJDC6aiCTJMfEAFaIhzGLX6BDoYDVIS54tLC8LEBSi1eRAW9FTNfUykRMdpyNlGhOTzxAxwXLgi4ltn8mQhBI1rCJmHgDCKo4wLbgZWQD6PD8zsaolqUZNxCr0LDdmTNMqxGm4XvTdTcpVazwSgGEJASLufmdSNQgOQKYKeEC6WnUbHfMQjY3JodHscgvO8L4sraeCvC0m30fC34ruJOvFJQ18kZr4er8nqwzOBZ0L58sVO5qk8wfY2uKjOGJFz6UhroZm5k1ZjQdXlhzuPryqSvayJNutVvXQoZve1KjV76qUxp/869/6Grmqj3z92A9/S+GGg6v3TuVfoapVPtDKSvvw28+defDH//E737o/hyrV0rsmk9LK6kIrO7WhvCf3KkZFrPsIWOv+LumcVyvLL9kb7nz34xh6M7HJnBP5Mo/pr3/bG4+qfugnK6Xa2oHlRVcIo2gxazegkL8YyHAPkQMShYs9uDH/GUDkpsidcC6JNqhJP8Kk6lF/w0aI/qf536ypJ4yAYoMWDEpSI7tlb6xVcyrTWLb5ztZWVtHvdX2u0ploctQNIh6tcB6yBHBRSrgz4Vn4pdhFWAOADiDFOu2kuiBvsWBcbEiTFMYEfgG5OtSGq8KLzuWzYXHopZ9pQcWqX5MwjH2NBHT8bUw2sSY9JQQgkUcGB0WStE1f4IcrhPs0ki7GAjp9DjAFaFDiYqFwFMAC96hA0SMBdQ4u3JOiJiSV0aTAyYY6l7YEM3BN3Meafu6LR8IlxJWBd+JmYJFwDbSxgIReleaGco+EubdEmrQLraXdzs5H/vq3fM2f0aQ/+49/4f3WdegMWnLYDuEOEjEjI7quPKfqwVvfuT4e/FVtsvO/fc/rq6fOnD5/6y1HixtytdAH9WSNAKgdSHSuSeOgIznysoSDhWnx3plAiMdxknMQ+RI36a9+y+sOKcntj6bTikSgba9olCFkBUeh6abXTDhHOCA6Wf003PS+flNko+9BTeEfi7bgG1hhHT4JVwZ3BKLO9U/ljpS0n90RGbCaOBrcDdpbalBi7hMpqcj/1yfcM/eASgUYKYijwolq0hEaxTQI8IhiRLgOlpAAKkRgcCE4D1sDEQ42dyG5PJ9hMrsaPADCeWE9aFuI01z34kppqeBzhHQ9Tf35qASPK8G5RH8aXAf+zm3oSkGLxcSEjkkaVdbKiSh2JTXI2iRWK4j/AZwX24vZzs6urSlcq0998pPZ89/6erlrsmycs8NEpVQB9xvlbfBQgCEvrpFzhY8JfYzoVQE27TJ4pjv63i4sXl8oDe7d2N6490e/9Wteq9D9ucne9rsmhUNB3urcp7t6XjoehProws4qIKLPl266/mkv6lNZTvs6v72bqe2ws5jZbqIT62khYfx09LzbS0d+93HMz5nYZA4if8pj+svf+LWLMt8/2mgsXrfYbjnC4qI+uCQaQNKT2d8GQKhjyqDNU/M9WYnWKFrS14CpoX1gyWUGI3HX4GYgm49gqUfIJXMkEujIMxnKclBZQZnleyLl+Fxf0QhgyPuhd4zJz7E5DJnZqr9BgDNAgGk5lDXAMXxYWyEBLJ7MXpijOhncBVEcFynSvooiKl0hTRsz4SqUBWAfugasE7smkMd2L5LLpN1hhVDlDBcFiwedGUccSucRUvlwvXw2ukYZEoYObokjOfoN0HVNEpPAe9n29lY2khtCKYGyJj25MzyHqSwb+UkiLVXMSMBaVmGTeiMsQO6RIz26t5wiLwOMAQXiGl5KLqjDz8GdkKxY0HmiKr4gkOKZCjxuXb9w7r39Xv9bVteOvIbQdAWCQxZVTfehpupyCwq9f/qhe//DP/ze13+d7pxu5VSoHsCIEhd36+HzG+5nPCWUTXlJncNmpzsVLwKKRfx9xl9zTuRPeYAb22f+U6O5eDN8wJr86CX5uYRl7QiwmjMTWZkMHuIYZCHUBCwNTfwKBYtRoup7WxZMTYPI0Y2YQi5HSCMoVnzCo9ZakMmbLBV+YlJSOBldB0WIxvp9/Zzk7sodYXJ3VH2dfBMXDeLziWOwyQ6HImBAXo/VYc7BtUYiZwVlaF/EIkWSh/qyMI1tZd1Q1YxSiHtKmqvoPJXF78gHAIK1QQQGl4yJ2Zcr0Nck3qGwsz7TEwnLxCThD+4HuT64QRRlT8I2zmmkycU1oDzl+sJCSTwos0pWCBYKbTfp+TsSePLC5TIgyN0SPBogIa0/c9fdIVCDzAU803bmX4gWmR4Kd4akQlxR80i4NS6IpC/th5A8bs6xtWW5G6HtWVo68EzpZX5rfWO3ArezMFahqHI9W15UM6962+AzKdWO6BrKsr5G3V5nA7CB33G6g/aypm2x2IjWjHUD1+WSfvhzH/7ZCzs7QVxdBa+5JfIYD/EHv+Frblbxn69vq54HLSnzicOAxBKAFG3WtSIy0FREyGAg0HAflyQXp7YHExwiEIEULo7GlYeze+BqcvM9Ko9hkURtj6F8Bj5H6n+VgUctD0LHuCOk6QusqgKlUr0pDAvXCS0HG9iNMMkaKz7WUBwLi0Wru/araWuhWJ7bgps1ldWCVRVuRaT9sxqzH87P6lOWeaYv+7ZRFQpW/qX/hFSI2+jdy+TlM2hAAFuBgXvQSNMiBW5R/cTN45gwhnSE8I3oT1fXjHVEFIdQrWyPbEyDcVkII9w1ARS7LUzkDolTOaoweF+V6YlUlaRZASjgn7ibNBwP4y+sIFw0rsKFnDg2CltHzoKvYB8A7bIiKfDDF9SQvFprX68+OdsAvewh74uiTTz9ibbVs6vJhSz+7Z/97ck7X3vj7z391sUXiJwuwfs4IqSv1eW2wVnFp7QQiRNZXXuWGnrR2DjqUM74a26JPMYDrFYLvx2CKrH9REM0cBjU8A0e/KTCU2VMvWqxOnA7KpKsl4jS6IuaH4RBiQIIQRy1KKAYxTVwcWNNEA2ykrZBAAZRBxdSdKlCiEFZxToGoUGTmWkCI/feuLABC5MtS/p+QZYAAMFyi6WBq4H0PNwMuQdYGqnNAxo0gIOVnm0r2Pq4Q7IcaO3AC6AiSEwkaE8Ts9PtynqXVUFkSFaGgSbxGxwTt2KCpcP7Xt3FmeBqpWMhqccy4bvDyboOJPrcEzMh+gyT2u6GvlvfwiQnooQQTlYIHAr3f0FhdZd/TBoWSGgAdiSAAcDLci0gXwtCGMAcAGKncCS4aiQocnz+hpvh0Lxct55ADNR072IdDKsBqwQgObCyoGjOQvbp+06MAZyHuhdEJkepR0jlno53bvPcJ3BReB1YveGnBIDqhx6tNaBitnUPgXT2e156GzREkvMf0Hk+Zih5FvFkbok86qn94De85vblpQNPj1YIuQWBmAvJuIaDBh6Tx3J1D9JIVMubPDmSYT8fm4PENpm8WvmDkYiVO1/tWXn9xV9wQwAENCdUX8cvbzS10imfRfwAS2pJg39XNVe7qrXRrEqfwXqo49ic13cGrklHoQHgwarM+XhCahKYMXGYNlZmgNFlEKVGm+iaIEIdYvXfISSDB+H9ELR5GXeZxBC0hRbFx9TfTM7iG+kFSYy7BWFJxMdcBe0mdN8MHNoM7oPJTuTCxwYwHcWwkaISA9UAkkXEaIpcqSfwzrDnawWAaB5ek/SfkPHQFI3cRINOPNRo5RnWnnkaJenFMdCZQOyyFZaaLCSXQwhSGkAh/IuGZagF4hte+/IVZPhHZHUWuFeyAL2w6Dmd3zr/qdrqwex/fMdri+fOHv87tdpSi5opTzt8yM8bcR8XjPt66uymz0/ujy6AUXJ1vOaWyCXP8Yff/tpluSfvJU+lhXWhAc7g4sWkIQJDZIVIDcRmQ/Ut4EwgSAlJRk8VkCX0GURiwvTH2ojRDfhgiWB92LWxEIv1P0LBTi0heQ/TWmARxCph3pGEVtvZ9sY2SOCvHURi2icTDHfAgIKBIUCwmtRpt0xOJisFipiwKF1RmoZwLC/0zAnkxY3c5oFQNREUzgu9iy0NTQosEodtdE0I3XyNkYAX1gTBZJU0oKKaNBUcO0oPhCvBcWyNJOuOfbkSPKIwQNCAF66PpmPWXFyydQZBi9XDfcT1MBel439BIrQdWWQBB/F/wMG6Ej2TPJLDcwNsQ2YfUTIrhblP+nkIaarjAPpcO2CJOwuYsEhA4J7ZVMQX+a+Aq0DeEomLQr+9qXwrxZyXFg8+6+jqcunph5az65ql7MJux5wM2LSl4kt7ytJe4LmqnNt4oJL2V8lrbolc8iD7g61fWFs5cNTCK2fSsgKirNTPdGxD/KQBGIpQ/O3w/XOgsL8csU5bI7xKyNpRWegjRCHgEhhYkJZeBZNcmxWQLVl9x2q+0hdxGm6ATHYISM3bqhLScFH6Q+kiVMy5pRDiYKqoiCdDTGZIVXMtzFdORe+1ExnD5LS2xeegiarLsaZEk4j3C1KImqtxeDfZTImcRAiGq4CFxsVhLWDt8DKvQsQKfsHmDmASehhWfd8SnUdFLgeLcMNWHLNLf9DpQIY6smUTLjCS69nSpJtKiYr1hTUFiet7CnBpu5byZqhgD+gvAPpYXViJhIfhbAByIE2HAiiCvwngtbS/ghAwFK2h9kXqH2I3OBWfv/bZ1EJC177qgUWQXqcdF9XlucjDAn8E0sV2s7Vo3qeJW7uY3f/Z+7Objhzy8QnPP/foQZdv2OuMD0wqe4d1uPuuBhyZWyLpKf7QN75mbXHh0IvcUxapugY1Vogl69qmK98bjgPVI6szLRO8+kO4sUobAjxMPUH8t5x4ZBLhCgEyDFG+Y3NjZidTG3+eKA7b7IqjMJ+gY7qSOyur3Il+v5NtbW6Yx7AFowgBLk5ZZJ3dKHQmrNTMRU0WgAHhFpEMkA29QvAFlBiQBkWaBbKMCVGTs8LEsCwdTYZWYDKSmZBcI5m8XF2EaSN8bLsLwNW+yIfpyFpgwnDOuFITWkQAMOlzvkdYRtZqpIJG2l9dAjsDCODH5Pckl6AL8HPkqywrbCsBdNxbAwQcUgIHCFfczQjtCuidyxQkKiAHiJishT8hIZLzJlEwvC8L5LhOCwQd8bL2T0RwNEA/peprx1ZXLA6E0B32Uc2qNmyzfcNgOG4ORuODIsWbhxTJm8rlreh+HJT7w+974l2obk+d263OMHv20RtWbr/ulnt/6q98C/UQZv41B5H0CDd3z/6jZqO16taOyR3JdSEsmCbqbCoHuZdXVY+0c9wNTPKovm5ugu/47nYzgJeYJJe+kJGXabtg1yKaSU0knKIcYk18yK6IVdcGobUDsQF0JZqop1T9HPKuoo54Z7fVl0YWQbAt8S+Ea3G+XINdqFyN6lBtrMS4OPnkDaIxwtVMTpwTu1s6ZVp1co7cm4hUBa8S0vewbHCTFtU4nBUdIGZyQxBzr5xT5HsQMOt/CYyoPwI3koOfO+zpngEcVfQ3+o7Fwbkg+6fCfRRNQAFcys6cv+CqaPntxUhQsGVf4BftMQIpim6REYWXfDbwLMjjeS6AF2ACV2ReKiwpAxBaIEXFerrnIwHCsN8VoasvokLtlVft7PRvW1te+oBEdCsPnVt3VAay9Zk3HlWEZ9fj4cbDawrLq06uAOa6AysCcDUWsy04+6+5O6Nn+Ne+9Y5Ss1l/84J8YOe8MPCZZKToewBGH1ubxAaCiwOuZ5l2GrkpDd8Dli+b/TlxGuFGvxjlpP7b54lBzgrtQSwJ+VhuxdbmBf8NF6NYgkOwjSOJt0RYqnze1SpYUY3VaU0FAkcdE4ymFk2chnvBfm2ee0JEyBZ3CrFbLsnXWXilde8YibaY7AZKfdyNpvKwMQI0HYEoA9c1Vbaxp3OeFwPZmLgGLtRqWEDUVxWgC2mr+2yNy37KAAAt4CIkbpWpzo/IERNuCFeho3R0fTuKbJgcjoRl4wL8yTNuvMGFncIt1Gd9flExjuiN+R3xGEEAX3T7isoQxurZQ4ar66YWbLg9AjGBsoHMuU/BCR1ZWdE9H2Ytrt2W2J4BolBuHDtz+sRPPv3W226kdAGAeHZzx/tGOQugfPLkA8rgvdlWKMA61vX+2kf+8MzaigbcVSA4m1sieooafreUKo0jrEoMIuqC4GczKZmAzJ6wtknoYjISRoVT4HtIutGORL1R3udnfaHHYDsGvJPq0FjE5M4zW+EF7Htjyicio6tIAL+MtOLh4xtg5M4AOhzjoeMPZSdPno5OdI0F9aiJY3jKaj8RpaFLXdRIhaxNVb880S1Dpz+M5epRbzV3EUy2JrSLKFJcs3kTk8hhibA6o2Z1aQNAlONqvyhu+yKDrQ/VPQOgmNhYLRC7AAguIsfjFZYWVEO4YSFd1zMQqUrpAKwzCOVztM/AReJDmqCcM6s6rteyLCCnFfCsuJf+OXEnCachiU0Cc03wLylKxfZYQTTVgocxTUNtFdw6Hd/PXIC0JTVtRVYj95h8IToT/saf3DW9Tql4r3rBS54F4D7/tpt8DwBOZwrLHQW4n3PLdSbguX+L0owcVy+dxuEDy1t7nXfNvh0SC+Y1/1pcqP8SbSrzDm4MJDP5ya/GbI6VNIRWqD4nLtYT2gv3r0UvoX/wFWgjDCJJrOXQIZBkdyVWdJvTqDUhax35iDDsSKOZVpnkWNhaISFOk4VBbuJPtUWYxJvn5eooKNBaOaQWE1gvTIYogmSCly8LroKDiMgNmpWYaJxRLtO3JWR3g0zYcH/gQHAlPOF07c5OtkUWE9RuUFqtAbCyzhFiNfiWqDESNUpSZEvvAwiRQyQ9CVEvu4lhJZlHcdg1ABHyeK8g0KqoSbg4IvQtriNraNc/OCNFgDhpnkFepiB3OQOPA+DIsOYYFtDxD7DiZ/0dPQ+LhwEtHdt8Cz16dA0AH1+3HTtgKxW3dUtRsz+896HsebfeULj16OHs+kMrVqjCmXHPACzFXxyR2da2XGtTtXGXl1oKp2fZvefXKbhUa7QPvex//r63Lsz6BLzmQeRvfNsdB/ujwk2Yv+RO4PezasZgDem0TVxWdgaf/xI/RNFhBFgxUUcMdH3PFZgRtgyxlbdLEyAqpUe1dJvGBpYgC/syr+E4Okq6I+MVk9jGi8g80vJZIUfa54Yqn184v6V2C5tZcfFA9uC6ivRwPmzsVfUSwYQBKCwmXiYemcS+pliq+cc9iES2uHoAAYvArTJt0cRKbnI4uWrcHzey2t9LmqyY/TbiyDOiDYa4FU3WqC3L/Qw3CquCPjjI0YmK4JqQnDcQ0bkFeSnp/P333W+pPEWL8OqKQlTuJqkHVGlDMCZycz91IC+U5NqvgAzWgaM1cFBYVeFm2gIRziEQjELVoSmJJx+RtuBOpioWLddF714QB3XXqfOu/3pEhZIIAwNQB5foYIgLTG5VVH87paZbXDPXT3RvpGu+oCjNpx86aUtUcbS2rJVAsBl+XfMgcm79xN9ebi8pGJETbGHesirZOtHAYsIRwfAqhiuiB46vm7dNABAAGD7jEC4WgF2X+O7BqPfhHwAMfdKTyF8MWOa75hODTwuwRU4k3F1QC4aIrGhQpnAlfIbMoOzU6RPZXV/4nNSyC1lNILJw7BaDj3vkMkn5FG6Uzlbz0edQ0P5JtsPioQ6HOY0gbwwUuVbDifiBlp6sVt3ixuhNFLwAAZYP70kjoXNG9cm0C76F64YgrWjCxsRkTuIGRSX5PFLiySbgUmTDFo9D6NqPdiuXQiHbphZpfQaXhzB3X+Ky6OCn5wPkoLmQNUKyIYIxVKsQp5htbp+Bepj3HJkRYcyOnXgYQJr3LAZsTARjeXE/sOJkvZAxHU+7oPojyy672IPXEel909FDUiwv+T5bOq/vaItuPnbQP9PWlOs+vLZk0FwWf0W7j4fWL2QPX9h0VEzuaFlfMz8HZ/4CvlIAv+7YTXewehDWhdegEVNuxvfk2zPYnO5vkVbUT/XUdygyN+uD6ojSAKizgw+JZLjItfEKZ3+Zb8FLMKCd9er3ImJB3fKaXJndbfVY0eqFlJ6Iyf7Ln8EtKGTHHzye3fmJO+U+yU8vNLKTo2b24Llt4s8+V4RZUb0sEIGVkFXWOTWeGpHVC+9iUNT7KqwTVpYBJHErAIBJ5WjTSXlFtqOhN+4Alkis3rn1RpjU7AOUqiNFgCD3zccQcLA6u6YKkSTdf1+jznOg/XeEJVtC00mloXOT0EwWCXse7akToMBkZLl+1D3B1aH6GkDj0gO+l+BYsvvgTyLxyOStiXLuIdaMc2yMGUkpS7tSrCaslrBgHL7We1hGXef5lJRPFcmYnDdhcofn7bIgTFN/IfFphILXlBbR0jUCXgNZVC21t6i3Stnb73ilmrV3VMuk19dzjxs3w69rGkT+1ne/SfN14XpIMHxuMnWdt6Lf65jeKDK9YiURmR60ZdkWmYV57Ibayf+PPJYwicMQITqC9RKV0nF3QpEZ6fj5oAdG+poofTVp6poikaRbZQA9OXB1gk30wI8fsRTY7zj71J2fVX+auzWxVMzo6NOy6cLh7PMPnXdPXxN8jsQEvwO5x77ssgByFr+xw5h8eZg553JUOMeFmPlnR0j7YULhhmBFlYl8GHHgYNCqIOjKHRtOk9nJeQQXwv1ytTcACgMMt0qg7WZZes/WgiYtIDKRBua8FKL33HWvu94xaWsC1Q017YLYJnq0oygVBPGDp85Z+LbvYiVgYjFwNXndT/M6cFuAFQQrC0IiTnOrJFzBOH9zV8k15NxQxdJw/bC0IgsaJ0mEYnCFM8F6VdJM6kQYyma6ACIyg98CeE6JUB1r/xuKNJEBvEsjZTI0Z/x1TYOIJvPherUppXszJhgTVQMnr0DuQQkJ6VXN9kLymUPERLp6/sq1BqTtk1aP7+5SIdT1IMsWS4Mv92xhXzlnEdEUawtkqp9Rgh25IJ0diZNS2BdLKC/qw4S3ZZEmZ0G6ko9/5I+y++95SKa9oiGr12e1gzdlx891vIrLtAprx0RrRCAs0PL6B9iFboNaIOzUZDLAyeRLfABbEmEpkacCeAJiqbAy/ERR+6esIlEc+I3gXCjBSASHAtQOD6UIVBCbABIuEWFRar4yKbtCvl0B6bC+nPWV6nv6zPnshJp39UfqpUOUhIJQVAwTeJCa76JFmqyuzsY9smto89CuDo8t9C+4WABEKFUMmwlkHZ1JArNcWOfTYR9wJumeWfOi7XANIZ2b1JbF8mTX+o5bRs0TLhXAwEqhdSjA5FYeqooH4JxT+Pf6g2tyb1qQscI5eKbZfl3TIFIqTX4uUvjxhVOo0yZx1BBlYNgtIOxonoBVDXIPHx1gQDaOdRGKUK/omMG4JZTGMwggeocbifyQcFuIlqBhCJM7EvEESqpVUVP1Ls5gu4MVElaJQ5+4VLkPgr4Ba4K5qMlPwOPjH/3j7OMf+4QEUXp/8WhWOXRr9sDGXvbAeVWGl5WAZYLrgJAsnWmY8fqCP2DiOJyMRsS/c1AUpFgNXKusCc5W14ALYRdQk8nhVO3R9VAdFYqq7hGChWeAW4hcHaq4xTGDfKX+Cjk2mPpEMrqSym/sVbNhua1ud93s4YdPqWnVWf19YPUo1Cu3DG5kmhIKaWiFpoT7EfqVsCS4Hpes9CMJIHPFuaT38f3UNhXOhX0jtDPZGikAWJHsCY7nb/6Td9nKcE6VLAhAY0nFkng+5NHhlnEfEOVF+YMgxw8qYZDPASybqp+yo/D2rs6XBEqOqTareiSzPwVn/wqeJIj/jW97vRCifiurPaMlkudEkqWyfA5P2mUxY+hJHhGOkH6zymKJ8G6k2IdACQ6CQePCQAISJ6SllHvXIU2tJUeqkEUFdgd7NUmJMExUXrGm/JiNc2ccgXHlNPx57T8KFXvox0S3VQQoSe8hMdqkPJJb87nsTlVEP3duI9vTap7JKunXV7MvnFUF+b5aVzLPmdyEYg2QpMQjukqtLkwoh0jKLT5Ty0/zQLagokcOuThu3u1oUGTeWoKeAIp7GSUBQsnL/XPSnyZZHJdq+GaaBHCVbFv9dndKi9l2aSnrFFvZ+nY/+8Ln7srOnDljcV14GShskeIrX0bPYnt302A4HKsoEm1ELaUH3COaxflGpz4wLmrFTrCayKYxsIRlhlXFfgIM0cTYv/NnADtA51m33uxnTslDtm0LSOBAQmEc9xTLy1IAfR7O5vP3PZQdWV3yuR5cW5RIji6D42xlsZl99PP3qnF5K7vu0IEGgD3rr2tWsaohpB4yZc0H3Jjwz1nlXAMVAZRythmYJG1G60gmQyRpRUg3wCR+12TGxGdAmLRMuTQmPjR5mXwImTQwiYngLtHmIc+ARVNAZ7tTWx3lwyxKGdl1mrtnX4qCYJ4UiswEmx9h0RTCbYrDIPAqZnfd+1mFf9ezm26+JXvmc27PaocWs/7OQnZy+3xWkYhNnnh2WAOYZDVcDyfGmYDVTlzjVO6BJ1HkxxC2tDtgtwCJO+BKZfhwz3DD0LLk9TuojRoRlKj+Hs6SHcEAZQEN+g6so1MXdrOeQGSvupCNKwvZVCAx2Olld33+M7JAzonzoJ6K5P7KreFzZR232ZImRrvv7KqINQWg1XbU7R+SXsegDueke4NeBajwegARbhMs3Cq7M7hy5mqipUVBZdyCm00RulTugDDukqqd8RUdCymmpPaeiracFUGKNVPOXUZbHb3sOgEIoDJVYbYHT6/7WTeUd7WgbngPnDxnyXwsS8FKzfLrmgWRrd1z//SGpdtboRYN3xcXJr6HLsRUSGL8WV1sDXhlC1MXPYMVqSxzegMha5T2Q2PBrU0uANaLZiZRBqwAd4dhe5v/wa9wGPZKNObcaTVmA4wY4HE4T+7cMnImjmkGSF5mg9197U+gooF/fuN0dkFA8tCJ49lznvvcbFn++PL1z8imQ2lPtII/uHVBIKLEN9UNO6pVEqIX18PmOy4Hk8uh6phQuZrUjEJaeV2uUCdRlatCBTFHtnROiLSseo38WZ+bSzyikNXeBro3m8NC1plIN9E4ko2rbSk7JRwTo3z65H1S4j4sLuS0Vu2+wXmsyVpQNTTKKmIxUXKyohDrVACDmwMZXdUzAPjzmiQTWSMAJCCItZSL33yfuO+JR+G83bwrITHuFvo1ok5YmbqS2BYLDdDW+WN92OIwh4TbS/tQ2nzo2Yr43aG8JM22BDgci5DvjpqNEQqHkIUfedoNh7L7xfe0dB22eGf8dU2CyF/5pq+RJV96FdoIMkVdgQxQUNiSh0rKuitT2SpJQjBzc7E6e+nAy+DnZA6zPTkfDr8m5aWTzPhd7/e0WjIJMXuJ0piES/8cBtaKPCqpYLBcHFZWtqmIMwg2JIUiTZQGR8KE4gcO4UxgDHRARF/UW50UhtnDJx7MtpX1u7Z8OLtJJvnBwwcEYktZS+rL8bivznbr2eaZbbVBUOUwWRYqae86oG4FyiRhvwaBsEa4bkhUgyaRKR2nzHY6Lz5DCNdOgeXpAcRwFVRR7wvwegKOvrrQ9UsS9CmpjjwTolJnFF05Jf7j/LpqyCrJrq9Jx4wFinAbh3JXaCdK2fm9CTVXpdWgCHZPYVLJz284tubJiYUDGHJOYz+LVGAJQOZCIFHhuOyDgPHRpS90PQS0UzlJt/dQvRbxNJH5q2eWkiu507goQz1X2pguiZS3rgY9Cq6gzoPKaXAiR0lYJBoja+VWHW+bXBsd7yYBC6B0+sKmAtnyR2f8dU2CiNyQY+O96pE8R4QBFS0UmIRwHRpcGjz4sPnkUPGZFEIMmTXuDBMrLJSL3e6Z8hQ8BmDYJys0fVHyCl9MNUZNiLcAAiaaOBUl2uFPbykqsy5ZdK5wZX82tR1WjkgEMBbmeDTY9momltBrJUCDyY4qs6Acj96GAKyXPfDQg9mhgwdUE3Y5e/qznynrpJ2t3ni7ZPQi+cQrUFn9vEKQNZlTiw2VCFRNjCb5HuTfJPGajSH9nYnoiWOAi3sVFhHFgzSR9bmBfoZ4PKeJuKOo0aTWyqZ1QIqSAmqpoNT+DWXgnjjxcHb+/Hm1gtg0GW1DT/8LSNL9V0Rmos9TppHpJnpa9y0sMUpMktWLq+nolgB4Rz9TSAhOBMCGZ3XN1zwYRv0UE6e4go7HGRBdktFHD6Ea+zLhrBsdwjxXZ4xK/1iuuKMJWKtyzbDMeOb3HD/txaYjMMEKWhEZe+uxQ5HxrM87xKxzQmDXUzqwpPwzX2f1mgSR/nD3Zw8eWBUJL/OVPiEkXOWT2itNWB3Ol7HiNFwXT1PPFSyCWM1c1Md8hQBFAx3dA20i7PdQ8EofjkG+Z+ERrQTIQ/FE1GdMwGphX5eeYKDBeOahh9PEZKDDT0RiGgdzSDStWoVgDO0ChUoWZ4FzjNkSTagEcJjsYwGFSNTzF05n6xvnshNSuy62FrPrjt2QHbnxmOqXKnu5fVgdIA9ne92dbEuk7vmN89lSQ5W+VJpxqSkXQrut2oIn4hSK1osNsZKpL8k+Rca2dsTpIMxSuvu4tpIVFpYVolV/F3EFZ06fzM6fXc8efvCEuRsVLA4imoLUsjTMYWAEcZ26jWPd3IpEZ5FOoOMmC5GC01WFXaeDjl2OXXFIRHqwLErFfojbxJdwopRz5ME1IIRxWbE6bEWm4zgChuJVCwh47M/qWSYVL2MEPov9r5mPMk4ngjYsQcYLuhBcm889eNL7IGmvvVcTl6L2H1i9Gmebu31zK1vifpTE13dexIy/rjkQ+YtveUVZzdFuh7NgwDknxoMmclhY8RmwbjGZ/HwAgPd5MWnDYjGDYRLSOgVMfH0e/RAMf0/hvDF5LgIZBhYlARtyl8YjNBVBaGL0d/siAcvq4lYR2SkAOHeOVVk1zrWas799QtAA5tzYmMiJCwnyNVo6YNHEWUWoc4JGxJEIThyQwQWRa6HFry+wOHv2dNa4W8cVoXns+uuyQ3J3brrphqwkZWVtaU0ulq5HFsK6rBQROlkTq0S6FIvS6DWrcxzCHWkeQJQOCmqYjaezeH1WXlP/GB2ZXjJd5fXs7pzNTp86ra+TCnMipJOEXRYQhC3ErEOdjhKzXIeryKS2BUIekKMYyNujLAK9biviSvZkeS2qJzL3k9YVRE52OyPdYxG42gZrBGuFcg08N6ynvPZqeDTB/3hNSO5byPtF+LIY6O8AFBalq8/L1WzUpCtyE/HQ19iF0866sj6wTi9IC0JP4AUVe6Ztxuoi7UkRL6owtCw1FL73nTgP+IkqoRbBbL+uORCRRPmoBsEBVoVIcy+Zr6CeJ8YDgiqnqgsUcC9siTApHc4LlWpiOj3QqRwG2FgnkVZ/THoXPE4rlPurEKZ1VCD0DLYpEGxpsve1SqO92NIkOPnQCR/Df8fC8Gppp8HAwCRw00sv1fwvbJNU9lR6iLBOQmAWdVEimzeWT+9ZQMDyXyiq0rtqZKgUcnb3XZtShxazz965lB06eiS74aabssPXHcoqrTVZKAei+LMqqw1o2aCvIlW6KMQMgYzGQpaNk/TEIHP9tKfsSQ9x/gzg8XB29vwZVY/X5KLPjS0mojdSdpqgDd4H/wdADspSx5PrRFeePd0/E7o6JvYX9VZxbFSo1GHbnsoo9qrqeaOq9Dt6bm1VZIsuf9RARXRG+Jyq/dKt6LqJhlG1DvelIKC1AMeJlAlsAcaUrMi9PSP3cu/pt4bb6X4+Im5FovLifCnzAFjiohw/s54992k3BKBoLHV1LyjBWFT9lV093xgDyOB5fzi0lTTjr2sORKbTwX+ulBaL9NR1kRpi/K75Ga5CdI1j8gpgcDccNblkwubP3CQrDZYophNFgLBYaLbEigbJarJP+2u5TgkTJlM7AhU9okIZWg8ThSIORTRSK/XEA/e7oZPT9pN/zkpIGDLaKziuY/WqrQ1Oy2Rq6Bww9ZGqS7MVjo5dr4suT2SlsmeUlLKuSFQzmIWWhSNsXOhLln0uu+++e7LVgwfVCnI1u/HG67O2ugAuqwn2tCILoR4hUZUodbh5VwrS0ZYIT1ZhVfbaUPbq5sYFfT8vYnfL2bckHcLbWJ+R9C64YISQDRLBzzqSg5YDkPOE4wFYKxJiOziRgkjoEOGhM5mqCNCuShe2TeAui+jcluXA3SFCU5IGhXDsykLOK0VDc/r4Fl2MKWlY8VC9WIQKFiCLdIFK9n/80Ddnv/eJh8VzKESuz3TpAQwPxDGQz+s8yPnheW/tdgVy4mUkRsNE4XoZXwOpbiHFe9rHWd0f7l+9Vrzwk+/+0NydmSUQ/YGvf83RUrn+IlSHvHJZsyeXBmnUBQ1NR1431WUAYs2hEGes/Al8kGxjfRDz5708VR2z2n1dAQ8NWEKYS20lYmnlzdPLGVw0blIX+eyMzO/t7U2bwd1U9cvS+DSpOKS1Zha6hVsSXAjbEIEIQpAoCjJ01yjBxtbq5wgLAEkBI/MDWOiaqM7DIe8HvofJisIWgAorZiRrpXt8V+d/Orv3nntczq8ivcayIjjOeJYV7tIFg54tgLHYz3NnznlSk/MDkHKvrOr0pZCHwy+eS56kloxjdREq9yWAhtRYiZ+tT7HqhlhPVJq3FUbLFl9XlGE4JwA7o5IIpQOSpNPhTtdPmUnUpvRPLkL2ki+jewJALElSD4Czf4DM1loS8yGmk4XgcQCxHrlQ0qWohWdDALIriyO68IlgFbfBNk0BIZbmmroAAJC4x0RzcH8YMVsaC+WK+CF9Bn4FsEKfdM99n3z/LM2fP+1crylLROvFL1ZrS1WY/FBARuJULvtm4MYgjOQrJnwkyQVxmJfMI+rCSmhuBN6CMc/2miS8VyUEiLmqQbctwvSwamrWFWWI6uexijO5mC29okg2gU5XsuiHjh8P60L7GsmigBOI7N+ICMWP+cRiTmDxRM1RgMEsi1c/+AN+SFKmxPt4rdV5I9pispONS+8U+3EOFJkyNYDSzY45PVHmLO0qer0tk8Hrcks4C+6du+p5xUYngmUDbxMq2kCOONdYj+M64GgiaB5haYMBZ8yx+MlK0ag3G7lLYS1i0dWVJYvbF0AaxaCCfI7cHbgL7pk72aEv0WfhICh7iU5lU5GiYwe0D10PyXTulyvXh/PiuVlU6J5CROjQgORiumn2ppfdmv36hz5vFeqCFgeeL5J2mo4BTOckFFyiXaoWIEoDsGAsyXoDOBYELpQGIOKzp/0u6vcLO93JjTc+559mH5YmaMZfwRZeA68feMsrq+NC/XaXP3Ql8yg6zESgYlYkqIU8OrJwo9pXRD5iNXcYmGxRFkx9eZKzuqa4JKRfX+YqoIBrQ16Hc1xQNFqY5jkTfVV0z3dlao8U8qSGyJY0EnScQ+UZdkU0iGKCkfl7acZ4qCvTHDWVAMcQ4ORPChic4+crCg7HXdu88kcWsrNuhTju9WLuJkhbVzrn+gLOIlzMxDI44S4F9zPEPJ9S/o8+wXLhrO7knCJE6lwUrAm9KVg2P+TatexcpkhR1oSmaKoWx3GD7zFFYMsqXEueDZoKk+AOp6eQLc/H8vx4GPec3vC54rrQrY/kNyzAs8qG3pCWZMfdAOn2pyiYvuedAMmBwiKEIrfSVZdh7jbNiShcFID2llc9Izt++qyyi7ekIen4fBlDu+KGCPk3ZfXwO1aG777Ora1EvV1ZIi0tIrRGHSalswG4WJg39J4l7JFc+XC7ubjCZMa0ZaVyxi6/m0iNQemUfRScyKwhDTWa8Nsj0wPTn4QtLA7CiVG8mUkajawp46fVSZ/ZkcQc4vCwVi4XN4JDcHgRC4dQIqHdgiqS7WTripJsqFhNyOZZxDlSNHMKwla/prhnno1rDkF/GKNRQG0q64KEMqeTxaIfhZAScNjSMDwhCY+QZJCYiYgVz+B+KglMITG5atQTJO+r571C2fEdXW9V7k9ZLkxFuu6SCh0XFYqdAAzMPltncRyrWpIq04l8BkCfnbdxlTGbWHmXPJ2PLjlPTDOEW2AXFle6GXZFKbCUR9U2IC0VZeoK0HYkWMNaIX1/rBtwUhXgsDoABNwReCarkQFXE+Ait10PVcfSJIcYps1DuH486wBk7tnXvfwZ2b/91d9RHxpVlpP7idu6KQso6tFAnkeIn2hZ1N6NAlA9+ttg6cqa4jlrPNJJeZam0J96rteMJVIsjH4Oszuvl8qkZ0xa1OWVhgETCXJVqnan+hSmAjVBLfJChm2wwfRnroT+g1dYGFo59YUlsiM3pi8Wn0xgm/4AgrbHTO+JQ8CXHmjiboiIw4Q+rZJ7YUdEJIjBb4LXyquoDeoNDBDJ+gHOqPlhgMG0j8HOfwxivvJ6IGGTBN/hv0uhaqPA+pdwIyx834/uhOSejfhM2CUCTqw23B1I0tRSMgr9MCUib8g5RoSXTdsCOQGOrnFaACH0iwslR6EjqBtYWuwz7qsNu30wDZ7K1ojxMayyKFnAc2Ix0H3Vew+vbwsoUm4L1eG0UHSxErRD5/jgpUGE63NE5OJe62+0HEVYRs6Ujo21ynOMmrpUuMN1I9oTpTL/3g+9I/vkfQ+KICX8rVQCHQPX5oJafMQtExej6I8XFu2b8dCXeYNlZLGs7gPj0Pz5VfC6JjiRH3jzK9bG09qzsUBy855RihrTeTPOktWAMsmnyYP8HZ+aAZVWbU9jNA2JZjWvoVFJiLMrbQhWSVNagM2hShpq8G0rdHqrVh2DkLbtCzjQLBAiJVIDqPREVp4+fY+qXO1qRZN5TEFmnVdF26NLCKsAdwI3IAROqDX33RRPtnBF7PbYFwj9iaebZqd7xBh4wgXKozqmBv0+URAdI63MgWThGqH/cFQkHA1HrFxU0S4PvA0RIAAiws8uiGClXrglAEQcP3gjF/rRscp8NypBVuefifWM6wOovfLzXAxsF0ngvMMg9yIvDuVnoo/cJ5emJnBaXZQITZYSVgId8pYUEUOv06GDng5MA3OAPS++hCLXWcXwKzx/DgkJK+Ag5wU3FOCk1SaTHyD6xj/zvOwTnz3phYFIH5qSggs+i/NQoh0cTFPHpQj0AEvVrUFF0LqDYVSSGw6G4ffM+OuasETOrB//hysLSys8K1YIlIWWoSc/3slkDBRcF9+RyJ2AzPNw5n1CeVqtTIyykpg8C2ICILLsWoOe/aPYJKzLZ50fokEDQYt1gwiJFWlXasoHT53Nzq6vZ3fffY8nsyeWV13QIqwCF1JOK70pD09n+yb6c5jiBjRzHmFlhFMjy8IiNGZbqG6TR+SwiKM4nqhcu1wDPm88oLI8iBX3Ii8PCQxA3k6o0aFjoG8BpPa0LeCBPeYYig0mIkFhmdhdEvkL4Ys+YioLy1FbJqeskhSATqQuQIWVxCWHxN+uDxaVhYH8Hi4mFl10sVMfF2qsGnRD50ON2Qq1YB1liyNgleTWJRYpY8DlHEjS840PS80uCNalCV39TiEWWZR5yw8iNwAHlsvznnlElsguOTB2Z3jOS5RGtCo5pPM7yu/BIsFScTsN/UwoGADrdHt0/Z751zUBIjded+vrGSgoBVltYO+xQlxtXEPMhYdNrjJpIl8iqqCzIlGrVAOCQYs54GnB+2GJDMWDUJyKXBVCfxCvLQ0oyNtFKRZJpotm0bHaQeTtylff2StlHfQGdqGi8rsnnwVrrKwxcWIq+ixNhobaHTcltvEZseyDNd6O30PQFCnuYW2lqW3pvLlgb4zlhbuC9iIAynYHroevHq4l9ueJjLmfuAu7SUKGqcRlQeLGp0P1GVxKyOIC17wLE7roujgmvX+jGNJFvRXuTNJo8CyAmP0kx3A17C3pmtxv165ofp/oejfO7pNbeE4gLv2ZAQbggDehS5477RHpod8wqmJNZshxCFU4rmgFYoTzMwlrKeq9GCKxxKhmF3/wse9TWHtdCuOT6xt2TQEPNCj8La8lSwHqLUXfNuTuUCMWIGIXcrF/5rvf+uqZn4NXvTvzQ299ZbNYahxxJzc9OPqDOHxrH5t8CNyW1DoTs1OrSF5Y2L4xuRpktRpAAlwsjdfEc9q8BhdEnAsOJWtjVVoKKllsqr3AgrQEkGuRZh6Talioq8P8TnbnnZ+yz0x0IHI9gvyLARaWglfy8AVcEd7WSSz3YT1h/jO5IXj5G2eEi2MDJqIaHvBpQvjnBJARPtaXKQtAggka94kD2GVIBzLAIlRjjmGVhCkUrpK1JdybcD98ut4N1hHvBW9jQDIBEgls/I615LgQ+2Bnthwi7GsxIMDp3hNEM2J1D/ct7k5+za4Cx7WosFNXANKoJytlqjKROgbROJ4roVas0Ajlw6XEvaZOqu+nfbIANppwmSQOZDb4RCGmBF56+1blHpGmcF4tJQ6pwXpVmcqcO/Vhiz0tVOo3ozN2o61c8ey2q3ruC+2V68ejYVu72Q4Yns3XzKPgl73theIR9TKpMVCQOsN/uFgY6lI9SBLmECdZvuyJENECaxHsxsRs3Xcrkr9ulsATPfQNzESK9rCSYurnjZqCBCSPI6yNvgCDOqKEHQ8eOCA5+IYHqNtPYOJDqmqnfN5mR8ILfnBhZY/n4DxweeBBzOMYECKl3WSsLRuW/aR58W8BCZ7enojpnz2eZE4ke8bWWHKVbO/s62Fikhgw5I4U+EqTHuRChu5aLLxrCSrWRACagTCdegjh0vnkYBbm0UV+RsKzPUob2AoIAaDxD/m7tSIBONbDIKRTaj4p+ZwDVkmVkgDcc9IQuJ96mQfTtvE803npHsJZmbkxBxZiNgh2k624rIA8oXadI2FkFiAA5YxcmR5ui9wVgKQnKwNAWgVQdM7HHz6bnTu7GUW3TZiHRcNidmh1taUqqzPPi1z1logKdPwnViI3q7ZCEX89VjlzIhpL+MC4OIm5dA8WfFerLxhIBpeYSCz4DCZWf164KIx9+BPCsVWteB+866Hs2MFltxKg0veGtAp0QBv1NbiVZrehWh73P/iQ5OJdVTEjw1arovkLGPvQS5hQNIgE7+JJmLscWBqoyKW6DIFWrJwmMz0RAkBYVb2IY8Lkn09gQfg1zJUUsXH2W6T0e77vww0RlLCg4v+J9/A5RVe8mI1YRWybjo2743kaRG+Um8w5EyJBCcw8uYni8D1cNL+MP+w0Jvw4T3bFIkIEaBcxQMCA5+uMnr+2NDk/fw7LIX6HjwLMu/J1SKDjEdph5J7zOZYCngUJhdqnXRe9LESDiNVzp7F3V+4o1zYQOD3t0EK23pWrjGWjMXNGGpLVdtutWClJ8MzGMVXwJyLFwkJZAQRnSsLTgkYPHllF6YLjsmfxdVWDyF/5hleXZRU8LdolKDNVZqyHLmYy6kQNjmWrCRVy1QpCsyNK7k0n1NFQEldKF+czJujs58bksF7D/KdHsr/CXFVbRjrZaxB5oFFcSKCEbiRTtu5etZ7df//9XjlPSbgUE4HokOOXnnRWxuZzEwtAE7KkkCkuASATyXO5mxPDzha3v1IEKTUXD7cg5YckoPLGntyxD4dlDRyEr7F2Aly8Q+a2zwVrB6DSqo403UeNXJ5gQ9kLoIzeI0RytiuwlIx/hHc59QhFAzaGKk/6yI2xUcFuHWbm7xFet7bGJxENw1zYOgGU82vsZgEUTNKJuvZFWNklkvR3ImgmvWmchUqXpEtSETTJ3fSKGgdEl7QPgzliOYWhsVCp1A/JLhLUmcGAAG6uiVpF2lh8itLJoCniOaMjgofBha2IMyLysygRGpE/zgeXSFEZWzOpC+C8KNGVjJwaLPV2Y2GZSAmJWfiiUWQoQIASdrD0wRHErHUd1FTqjoQ5fHI3voZI1Sf7MHasklpBsWDcO1ZfCIpYHPnOwDVgYe3IZOjjpLufLn51VLqCrYelz0sgeorgalGXk31a8p1PRQAmJp8LN6dQbg4GnnCY6HYhAlEiPwXegcmFq8Txg8j0PGX1ZlO/YYWG3zNQ+W7E6s2tMe8BiISdo/QWBG6pTIHBDBcwkuwiFyUgzZoULB2djPUdKXvXyY4GFqNSlG1Nx/PpAGjaf7RyCNLbYJF6IdOGI/YfbgyEr0HO+9VzGCljl7of2opi09FonaJBSSrv5x9ABbEciljuXWhRDLpEYBAZCgggWbFiyRHi/gIAbsmpz2K5HGuvKC1ADb+JqBEV0jaUKsClIkuXe1jT4uEGYLhX+nLFNEorKMB1Jc+hx3NuV7UlokF8WOnZlZYnQUik4Rqi23uYxZ3dgTJrlZCVoi2WZbOmgiD6XEcWhIHH6e+xHgJG0SYzWHwXdNYAwVS2WE3bo4xcUXSGlHjyuAhxojnYOH/aIdEtEasRNYlJY4uA/XsWcRS+2cDWH8N0T3IwTz7rOjwZ8s2xAkJPEsRDEKOETvYnTAKIXF5uvAF/HPkJgtPQ4vPg8GGhcCjAEHfBNkHaP8BioV4aafAk0WAr0bG2XlBq5pZHgKGL+ARFkXAwuZhuoxEXFZfFRScND+fjSBMEdlhL8fe4fj82QtXaL5nRRK/oV8O1YzU4KQ4tiPYdiuSIuLmUgQ8aZ8MzzKu29xVZs+vrokRYaT4J82S4Ji4jgaXZKGfbeu5tmloJfBZlhW6LHyHDl5IB5NdgPW3JmiG72y1RdfwLm+ceEFbOvPT9qiZWJ9PBz1EnBDMU9yUnQqPLfRSpoYk3D9tNpTwxo3YoA4bYCw/dC6YGj8sEaN2gORWkbPSegYQNCwQCrw+IaDkDPGj+vCvLpa/VdFpuubXBGRUd2trcFhdCIeJY+T1Rk0WTE4AGCv5EyJdVMzbzNE/4EV7UPnFp88jkZdEWRXwuRwH/zorOBOZr364Ix4EJCCHJTv35ZDvkZQ48Rw0G4W7xIfZn3gVSiN8BwgSA+9qL1EWvSJU30NPR0ov3NMlVE/EZRKjPGvCz+xWhbxYBH9/6mRw8gtiOMg5sj0BOYrK+cmV6Ev2R14NbkUSFgImfZT4WbA3xVtxf98bRApP3r0H96mppSW+Cq4N7CkFvUNHXu9//J9m5jU0/f6zKA+o1w9pwUOkOy6qq39L4o6Ka22wiMdA+Km7sVVLHxerp//M//ObcEkkQfsV9+8tvfVVdaf/P5MRc+hDXwEoyhGREZKLlA7UeAAGHaxFOUcEq1RcZWRMRqyJujddqLBpHX0gVl/qQSuXyk7epIyFQ6qh5FJ3cMG+Rfo/I1ajJh965kA10nG1pBTra1toLD+JwWxx5YXB7Xed3SFy0EOEGhBYkgG4sJHMUwtZVcnW8tMdEclV0ZgWuhVProTEdHw63IT0t+AazwuGvpPfjfKLAEj1o5PejtEV05VplvoPprqR4qE+NfQTvMVXkJaZ1vDxRbWDlxGqKJmEFpc9wLoYzsND7Cy7EpG6KEkWiIJtwFhw7nke8YvsR1ow8hPXdYbaoiYtVyHMmdE4JCLaGHwGIULQW9R53HfdTd9WghMeImMzE1CVELWNFFZms8+FZc65HVbeWhD8KNuOeTuQiU36AMDJ4xxfiNCwW3qOXMdE0R+tG1W+64ibOkzihq9YSkXtxqFSqqq8MuSvhasSqk7gHPV2btxqVuDiARwy2kEObg7CvHeY0IWG+iMBAjlmBapUqORrRM5eBwiA9fGDZNU3Xd6SKVB8ZMjc3lfVJT9ktsfdoUZyRqm1zwRQRGq+IyUbwBERZ6hKHzEzOCT1FTEuv9MnQ8Lnqb/GPSZjUr0hQSelPLoRDqsnaiM8wl3BgohBTiFuxZlL41LxBTDq7WmOBhyqFIWNPqJD4Dm4srg2WQIBjkeMmMjpTSBthmo/pcDGh6WRR+Dy4F7htQZiGqQWaxKm4RNMl5ld4gbg2gGwcOwdIrKnpmN42siJUSX6/rIN2ZyWq9oMVGZ3yQgVLwecBz59nHXSsFwgAvCF3xDyUidEw9nCBquJcsERX1XsGwpbm3ZTBxMWpKlu3rp9pvUl4H0DiaAC+dUAcGZemWOo8iTl7xX3kquVEptPev1lZOFyMtOwQlmGJ8KAhTrEAXBdCgycKD8EzYGVgtfCRi6npXRGjVcoDUlBGE4vVGX/auRVJygxBSwgRD2d3Vz648mjGMoVPyn3ZVuUvNZJViwOVBkjkoJXltiQi2ImhYUOeg8MzJIKV2mN5anzUVQ2egpU48kgc5E35KLGahyuCkCsmCau9F3lnw2oymFAJm8LZtjYTmMyEaINM9fVr4tMD1zaOeZJkWxgMEpAkkjTcmZQnQ9QyjJtE2QIiTESOn4CECQmOlBB0XeRaQlgWFoahwfuPCI9BMFljeWTJ981WU1hVhL5pBDZVeTc4qFZbrTiIiJBykCIiRM5wbQizOktX25EoacDErQTIqT6HxWJLBK6J7nY8+ygbwa3AysGNYaEaEO2hCbz2QY0Sa0z8LESe4srJ+mWRcYN3vRstKByDm/nXVWmJ/MBbXqX503h2lLcLM5efw0/PmxGFZcIK5lof2iZcGjgPZMkAhCWc5isg4xjJWB58RRvJlA8jsNhVj0qldbk+yFTVyWvNxaypdJ0NWR7kVOyIaOvIGsnrgjj0miwenwb44ZAmh4Sj0VtIsb0UJyLSXIeMbk8aVJPxufhKQAHZr9qp7MBY41ojzL9Y8WlYEdqKsML4o9Wi/J6iKPl5sfpzDNy63JXI4yy+kwCYIiVwHcFZcBGe1QYvR3SQxpvTSXVefV6KbtgvS6FnAABOin+eZPEvJC3RCyj4nbCIAsIgt7mwdC0JtWI7PVOiUYjOcBu0ja3MZJEy8SFHuU6eOeDi9jl63rQLoYYqViohXNTIjgbh/pIBDCHLWEhjx+Ud9Gc3JdNzMxnr9IBIpKS6WvBqUU2e8YiVwuDTtcxB5EqFUD2clqK7a/igeV0K8mZY73iorEzuXsfEYdB6tgUXQJo+iXXkNxCqxKw1ucjA9ajl4Uf9VMxZpO1OsmOQMVg1SQaqqH5+84KaQ4lAVbHigXNmApTycRPGNBMtVnQso0jRiCU8snPD3YhoSICJGRpvl6gMg0EQwSY4mXD62SQmEztZDDE5Y1s31TIZiroWWAmADKuE88G053CBUBCcyNcVnU7bhHFUkMTbICvgwLqZlARQtjbQf7BB8AbhxrBDXB5cLIR9XBJh2wDwyCpOIGThW1DI+T1nP5HDwnuR/u+nlhhnR5JSJGdEKxcB6R71XcRXBa8ULgTfcUWZ8LgWVD6LJmV6hvrZiYtWtMKlXVTJAmRlIjPaBzlXQBku8IpSHGq2bmlhQeuRaBNqcjotXljAVLbj+uBeCA1zzIDw2X9dle6MxswxTSOemov1uihvGgB5TQgeHUPLxBsuTZIxx7IdQMH4d9sCDSD8ZVwXrBprQjCRYfsJIaL3EOG2sT3MdlWoeVN1RxvqLbujHiN4+5HvET6xPZLwkP3ZUMKGSR7eSUweBrkHvRMD9Tsrp+aNt3cGrr4LKYLAjM9ozZP1Em5KvAL0wiLhK7YO0GSiY7ZH8SBHTFgY7bsABDGhYl3nHDk428W5e77brDf8JbDwJaXfI5HQjUQjrBL3wGDNdcKZGAUiZwaw9GlxHuHVRepB3CesGmfxpvvEn0Kjk4DEFoo+B3nOviqQz6GLsSWqSRuFuWPIuz2IS0DGtRCFQSzGNeP6MNG5bDcxs54nri1XdXB+v/upB7IX3H5rFIJeUlSG4/tjsU9L8fWFCxNEq36GO5PrA2jpWV8VIHJVujPTwujd+Km8yKLlZ8gt94glcsHD9mrjZTJWHqahiTQafGulAFzSUpHXnfAY16CF13BI1+IjMkDVHkGh3LEiAz2BCP1j19W+EiJ1QPNqpNfJdM8tkVgVw9/3Kq2Xq3wxj3UQzsyyfNwB/dn+OW6CyxNoxScwqFWcv4fHQ3FiWigk64q9Yrmw62TdeK4notWTy+4MP6TJrAlKcj6Zvrwf3kK4JmH5hJWCO+LdJpCKSR6AhQVivOJcbflg3RAh4vyxtnCdwBX0I3n/nrBqIl0pXDmH2Tm9FBeOUHdYI+GKxTFyvLQr6MpsshSUjr8nTqSmOqpOUcAddVpCKIOj+Xooe6PQERxM3Ar37rEFF/lSkPLxLKQhgW/R53gWgAKZ2k6ZIOTLvrUdpGu40VE6wtqSMOsMaqFD0kKkqlSqzLbgmzbjr6sORP7Sm1/RrNUXb410fx4oKxnJWQh/1GyJ1HA9UzPpmKVk5GLq21JBURqrn5PhmLD4sklINpRvDHiYubdVopoQ9M2lr4gnDm5FZK0OujF3IxKQSEjtK61AMQFi7TUw5IAGKGEZRG4Oa7nDExqIjPawWgJywv2ZyPLI+Qc7JBG+SSY8oCBwg9Nw5CRAwUc1OHAcmfLa70jXxsrP+dGQinaRQ/1OODkrCiyZ/Lgf6HZzMLEloAlngAjOw9m0yV0iUmMgsXUVYGJfTO091V0cRAuOxpZUkNqOt9vV4nh6V9cXNUiSPgVrimu2+xaWDVaNozA+H4VTVR5xqIgZXAegwt/YDjAhShbWJA3CATNqi9B0KoL5LuAtkjUWnNgvQOIiRkTk6Oyn9+FMGnJRkLu7kplypjgbbwtA+VwU7lchJOQBVjp7C8nwrVydlobDrf844/jh07/qQEQD65hwQM3aIhkr5MWRswBIwI3YQFfoDQBgEFFxzIOQ6WUAYSzTfDvyTpztq+2ZfLg0TAbAiOriDNQ9kQUllTpksKy0GuceePDEQ5O93ol9azUBxr6MXOeRHBrtK4AEZACAPMxs+sek8SqJJ5FCo7R0sPXB9JPLIYgwCEXeR6yqFBjyJGQ7y9OxwuE1YrqGoM3mgCcixKFBBtKDOQ6gYA1g3aDOpZeudj7SBIo+w8ErEMlwZqpwhklDcSCK+MSKnkDHtUPCgnP7SucmhfVDkWdBuL4DyAHYLsXoOiXM8LC0qJbEMR1C5m/GwOCToi5ucCcA1UTgRAJdZ3cnMnMBbg0IyiE63Jo3zNLnh6qQzXWTLAdoe7/AHPcS6yUl4PFMAA0vShpX1DLBzV2SQhXQgChF+1EXkORWbLS7iB43tii540TmeD4Ak4BkY3u3eTWAyFXHiYjW/PnlxlqoCvXPAiEmJKPYVqVER7S11EpFjxH30DUpRiIVTzoNJa1IJHN5BQNgEifCat2nRaZ7yCZf367DJDt19qFPDfeKb1ZS34YS+o7IMr8vkjuwciIb2NyHK6Ilk0LfAB/PNMxsu1vhvxOaNYGp95go5MDYHGdMOuKB3gI3I9j/0JPoi4LJUCaKUBTl8hiKyugekpBMVk3OZbgtgydnAFCuk3DHPQNRfCYcHYAioi0lS1UJj+ZV1OL68kS8uI3hJrpcQRhItgwMrjq3KflErNhgd7JEfA2xoV1FC9QMslxQJPnxNcYVAkR8oCBKAURn5ur+bu9sKdTec/3aGw8t+X4iDIQDgyfLuRAvGOzCAaI8WqRxA4eCNigBO3aKASnImHA5dV+oU4IVUpUqlQzuanKBOGsWMfrycL/KyXXkGERyeDUa7XllsysNRd/5da+oqzvJ0yNkG+Y1ZmtToh8msVfRVNejgvBHF+DaZkzUVPYPTgRuIvJkItcGd8ChXfJkmG2s7KyAuEEafezzwub62Uqp8YY/ufvEqXtOnKWfwpZW13GYyZ4FXm1ZsaJuiJEgzHEGL64AK5VX7HBlwg1IwjJwwnwJ+wmHxhBnTymUtdCCNi0V/bCbwwSIOSbrIto3GGxgB6lmlqIxae57IkXaP9EW3CqOnQCG77bUbLpcYlEER+GGUVgnWGaOVEWkx5ckSyLcEayicGuCL0kUM6QpZ5crXn23sAaSy+V7lYAca8agHfwQXb8BV/8de0tNq86ePYVjkaykvcH2Tv9NirRJrBPckksTys2I6vuh94loiSY71e4S2ZpXsvM9Mz6KZ9HCw/h494c/63Og1APP1xwIZRkbWrTorEd+FnJ7vV+RVqko7UpTalaA0GUaDTb15b/1/W+deW9g5i/gUiATA3/T8uLigllwuydEXyRndnQliD4Qg2xL++56LyrAR/w+euCKjFWRZVLA8fWJ9zPImPTukCfAYNXDOhhIx+4WkQjOBpPXfPDT957Lz0d7EuYMtuAYbOo7EzhxGpCUtjjid4cbLU7KeYoowWeocLgjADFWTSyQi6IyQ5R/Z3IKGNLkRRF60ezHJQBU4BN84QZCJgYbEfAZK0JCI6uKdC5kHLMB98baBv0u3a9EU3zXHIEgTAQo1+AGWA4Dy+8pIaiSgCznOwxKAFKa6IB72DT6f5DRFFXGJ6JHsFiHsDS0P1uG6GII95IlzHacGX+wlZT4Ha4FW8lNttRCMzDYlgJGlO7JuuzNM0xeQISmUq5JwvPVBvTKdZ9jUhv0bPKaJAYOxoVuB9J/BGq4MmxLbgxCRo6FNgSy3c8X9hejSa7wVOIT9GTcW4Qo9BZ2uQK5WbjX6gPc1mXOfFGiqwtEypP/woN0wpNMRsjTsAHiZbVq8k+Rt7Mtq50L1ujBMrkgVuNzzK6Y1PivDFh6kzD4+h6MwWqwut5/4v5PaGTddymgHT9zdlej59WAha0Mk7Rhe/iVBF78HtYFaeMBJD4vTzyiCkwsSMMYnwzQFFSyuW+rBidE1ocbUEWMNYr++Pxj5TaVwrHsEhB2peC0NlHeOnoYaTf1i8hGWlQKKfD9XSiZftcOegCy3BW0IWgspMRUKcI8yhFJbXAGIqwR3MGTgFd2XdKkpmBzDoiarUzq4Jh8ZnFdnKuBJfru4MbBaeQ5MuQEjWVRTs0vsDVDOEhnF8sWIJSpcBbaeH2+f1rXp3SlXgmOAxDZVCmGYFUB0qmrtRNFSzfEYjO3EoVIJV1CIAoEUo2M8w3gzkWKUXqRMedrwTr1whOukXv26vMdcqhYCKQ/ogQFL/X5bYhTu+7ScTOLP181IPI9r3/pddXqwq2MwxAEMamCILNQyIKiGHjmMphoslIYLATxWFtxd7DW3T/GAygsgLAJqLeKTxzMAX9DMs8gW1s58vb3fuLzude/Pw40Mdb3xkPFaUJvkKNZzrPwvrUW9rWT6xFvxiQInIpK6gxAgMeWiD0U++YOfTrsm0x87wfYwXVwwFYbavK43gffqbKuyaZVnQLCuew7SiWk1ZsVmGPhzlDD1dXao8ixE9PgZVihndOXLDj9zkrOCTOxcSfyfBhHaeypJZLVRYhif3YjzZzoWRB+TkI01w8x2RoWJS+DpHeUTCjdp9zacldBeKN9E4vbMNxolCt3CERUvXBPKveQuWN5ONkyuaYsChDwTl3A2hAImZ/SmCEsm4ZNjB2el+4Tbs2Cku643rrcZfdJdoSI5+QNfZosHIwTwJaxAuHM/hifbhVaGf/8LALHped81YDI6XMP/nMeGA/W/WWwLjRY8mQ6aql6MNrELah7e4T6TCzalQF4lAPhRL0I1SFAQ1TG6kaj7XBLWLkjUYzPDoadh/TxU481EBi8+vsZF8PBF0+8QRR7BgOCF4heJzFp0Trk52xi1e4OQRP2Af8AWBBVyrN+0TqEHsTuScBJWB5EMHI5OYAECWqyU9NZFgcFeWgZyWRFR0EFwrGykKdUPJfbU4CAZeWnyg7bc690nzie1ZvaU0XWB+4OwMJ1BJlKtCrpNjwRw3yCV3K5wn2qJjigCOfqvhKMkTsDEbknkLNwDEC1UCzCpmHRhYsU1mJwU2zPr0z60OIYsOSRTTt4oXpmZURh5j4cfblo3XDtboYFfwFAMrlx2fQsuDa7bBQ50nkS4aHqHfvnOt13V+eJhYus4OKxE8Bpy2iZydYaY0rOc95MCh2rXM31f+O7vi4SqGb0dVVEZ77rjhfLgi2/Kh5U4jr0HZ8eU9MknJeH8HFZPSFbsTpwG2jgzJ8BDSYIM5K+ugz46AoXDacpsEotEQoVQaaiRC1My3f8+oc/Ll/oi19qIzA8emDta3V8hXtZ6VMUJWZ7rK+e7LHa2kLiu1fzUGx6UCIVT51dbBJ7kPP3oFPz8od5JfU9wjdWw3K94XIxQVxDNYWIOQARXbe+SNcYUR7uRYjJnHnL0IfwlCUSgZMgg1NdIt/vAA5cseiVS88ZR2qMFrhYYUG5j4vbNSShnT9NtMNOjEnYvPcx1hLPwhoR562EewCQRhnKdAyuw61Gk9vE3wzGsWjou23JrtyJILPTGOCOap9YMItUuKNOSGrODRi42XeK7Dkyo2sJsEAJq6p4Kqu5L140sIaVYuRyxTMsj4Hfc41YLF5t15VL7Eppeh6EhkW6qjijS+DHyc3g66qwRPSQjzXq7cM8LFYUtwSQHgTyisHL736YWBhK0XctIf8WIcwIfV5MFTcJmwYjW3rga1DiwzO4GFAUcpZISfNwcuZLPvfJ3vpguPNA+P3MwYi2WADFMTVhzVtgBnuCMBFxWRIhiQXiKBDzm/dwU+jly8TEHYm2B/F5kZKsep78MSzhUopFRQcMBoR+IfvoJ6MVVdoW9C813ZOq1J1kskIIFkUYlvQ7HE1EqbB0ImphygWwMQDpXPgie83mvz4LQLBpVcBVjXKDVB8pJyKZQmKGDO2HiTWCWzJwh1jMKl5Pfu4R95oUg6hHihXipSCQK7Y1OAW0OdqTrBBI1sJ0pIgMZlvW1/Rft8WS5y8lS9J6EJPl2GcBMAjtKKsY0K596j2iNlV1RuQ5/Ngvvc/jjAUq0ili/Pis0gIRkbGIsHHPWHTYJtIuIm8HOb2I2pqsnpm2RK4KELn/xN0/sSCpM4RVK5GqEVWQ+egCRJBtgIuGs01eZM8x6CNcGuFHiET0Aai7+NluhM1nJknO2uefU75Fv9dhXH4pEDl1YauvFf0NGlxhfvhoKGgpmYcJ7aVbuR6hh8jVlOGvBy8AOFhYJXAY6n2YDoyaosxqFzo2yGBRMJv42eqvBACRuwKYEKEx/+P6pcAo1kq00GCSmx0iIuPwNy5J/D3AAc8iJcYBclA8HMtkKWq4FCnxOcj0z60BHdvuIvsQ2ORKUNwdWvK6LqmzXgMERgCGBXQ6XVwtQGJfZOJZmhjbcPUcBcJdTHwJf3aOUjbtCvhe98C5rd07HzyzOR4VvmNXkRvynPIoDcDhxmV2pUKc6PeS++Xau4l8t3odzlmg+/Sbrw93WWR8W60yOW94EVtocC3azkplvDVfW/7UgwOzpaS3aLGpdiZ1m4gz/Jp5d+a773hRvdVeeG2urcAU5aHWXNFKwKHfsRos3vIEi1Rvqk8xeaqavAyqqJtpT9q/h8yZVTBWR76T5WlS1D44GcGjk7/8oc+Kdv/Sr+J076QM2Qf2xs1bGLSxinq+G0g8qOhEZ9EH8zHcCNwSk6jwFTaBEc6hIA3ffqzfCTu71aSu1ZPAYAKuRQFizwOHSLEiiIFoPzoIStcQsuVLaHAF7N81VZxKr+uniTfWhSYavACAAeDyz1DDREF8plN27RI38vaSHquwrQqsrljtp7J+3E+Y67K7YzSS1J7M26jghrLT3iebmZQlOgIfFPc5ZToFsCb5O+/DV3DBUZhZ2TPT6Wb+ZPR8N5p65g7pug4MLl+EeSsu6yGryJXdsVojOgWQ2ZH0dQQAUOeFsUPxb74DYI7esB94Ey4egGbfAKLuqZ+LwSi0QXlmOdvqXFUHarKqP1jHMouvmQcRmdyHa9WGKuHJLE+p/wjMxuoyD4NOt3hUigxm/FkeIN3PXIlbkdxo5h0rEHkxrl2h6QFgsB8GckQ+QkcwULLdSAOXknhKa3/743nopze3+0fLa3+mVCkcN3gAZTD2JlS9apqktEUScVTX6JM3EBNSWxjKcH+0kqK2Bch6fYo9x6pmdw3ry2HXcJncisIEJ9sg15YAy+4S9WXptqfBL78dQ55JlVTZASa2xBIZ7dOJ84yQOGtnWECcoIGRya9JUhNxaGrHgBznFfVAiFDBGYSLxT11Ji3XTUSGSZbylqJsY/BB7lKHq+bYTlwjM9XlDAxkcd/YH2fo8oi2IAcb1BDKn4/uxRCdx7L+CGlOFGZlMe4N96RSUlNuFhqdPOMIgCOaUjfo55wHXJkadcuNId2f62OR4j6XNZjyrgBOskOlSkSOfKs8fMxTZAFK9UiiLolgc9p7l3549eMZS1fiNjMPItud9X+9ekDqYUzjFJXhIVPzIZpvswJH/12KA0X2LkRpTE9+5mGHfiQGOzwJneo8YFm1acJMQpcsGLfWVNk9QrcagI8ZlXmsB60JuKWogsqxDkWlSaTEcfDzmcw4Fjl4sIoRQaAmiAvecE4UuAnRXL3RdN2KqSIm7WnT9VNtMlOUWKs9smyHTE3kci0h7ELMBkiGVxWTMfQjmkg6Tln9dCoEYbAkkpQ3XD/9nf4pTAz5FyOxQDTLZgJ5X2ac0Y3SGqMb14Gwze4YlkLeYjTI3rzTXpQhCHAWSZNsM1whLI7gD4IwTpEeuKtkSQIiUSaB7TkOlljI1iOyNRnKgnndyZ3tzX0QkU8IABgE+YdFkoowM15IzFtoNLw5liuCOjdw9xgw7Ptv//73/zg7cmBNACRiVc+Jfr6rKo0Ige0tAamUL8P5R+PxcKGpn8ItA8S6/SBqsXyGg/L1f/0731D4J+/6vRiUM/aaaRB55xtfUa036y8BPBCI8QTshujhuXSdrIwatTDd6xamn0HPyhWrIytMtDlIS76eNisuE9QCMw0clzy0VJ7VWasK/UT0Xr+3ee+vf/Suncf7vDV8tJu9PZGYVsBhBZjqtZUQBJwtDnrZYKXI6hmNqd2a+p9omto50GruUheOLAUBCa9QKDdxYLRHeESuTK4O+Sn6GVfA4VPzJGHplPgbfVWmIePmTWptwFPoJu5PmrBIYhoBDgQ8rVXJJ5ZBA9F6QZXNaZnAvSRkHirT6QTrh/KNRHQSWQwIABAqHFQoQPoKIFNoHReSnBqOiws04jlJwu9J6khTuHbcM4eBbWGGq0MbzUjVH/X1+PfVw9xvWWa9nd3t3bWlxXZHBZrLaucBqDaxNGy18fkAVpeBIBSt93JXhgNgabAAEFXBnbTBxTYy4bg/JHWGuDCVDED4RrFtPSOqpIUldVE/wudpdlWvNZp7g0Eegnu8Q+qK2W6mQUR38QaZ76t56UPMUFCeaENDmZkjZdlCrhKa5cGy4vThFvQg8zqbmKN2f/BdtR0DC9AwVWBiLEAGszl6tEaMv1psfdsTeYoaZLCdfYGGFEr44uRrhLLSLg0TFS0LYeVksgMFHmgUJM6T74xlrG7UQ9VqidnsRk1BYBotYv12RCVC1raxAghwofLfrGg1QtgqAjZdqNnQw/7D2iBEG4pU3g83IooqJ/fLq3uyTOyuhMvhxEFT94IJW+6anEzS0NP6/IsAhvgcetbxjLBkwkoDDFLkQzVb4Xf88qoO3xKuqUso8JWKS/GeXFxdRjkxKPGx37vz/u7bXvOsh2QlPAtXlt0BXK6/qu/UBImKZ0Ggej/pgHBp8ElYJrjNjB27wPoCBKJaHr1/I4nToX99lrEH/+IcIBP46QK4I1hSdNeM/aiSokfcTL5mGkR2exs/s7yy6geBdJkvd5HT77gekcEbcwLLAuUgad9d+qGmeD+DKXJYQjJtbQimPqRqEneFqpTU8OiAtrO7q7IdY/XAfPyvE+c3RzcdWb4g3kAkWkjuPXnTmm6ClXNB9MRCTOhTE0r2RCIkQykaUBArXHgmrOpyaRwxYRzGKm3zmdA1ZQtZ+XlX36k3wuddVJl92QaHSCVyJagRX1QCALBrcB/sQsRnPc6Z5AYKJryzYgwunswGWEKimoxYSjo+pxTC1shXCtct7jlA6E51vg/slyMF92IAMtLw2bBcbJ04vBw5L4nNTfckzs+iPen3ZV3ls3b/IYkle7u4rC/URYgCIGP5b7ZoII0taIuPMClcQpN6qhoTJYV2I8oCuRzAhVVniwSwMcDGUAMsnF/jc2fM4MbJRersyKDCusSNM5wbaHiIsmSK2j8Ktn0O5/GPrK/+ll4nZvH1va9/SW15+fBzeGBk3vJiVTDJZZMxyg1GYd9Yba0bsdkeRKVLHAoYIgksShWaQ4D11+fpz8t38leo1M2KHyvuXkef/7JRmUff19GodIfOT5rQeOVVrvwLEzHpDWxFMPv23wtLgItwqJRUcnoCp9Ap4OESg4xB3AZsDa5D1oszZ3A5+Lj276Q6WTxFc0YCKVZT3SM4T0+Q3NggoQwiGm6G2YwRhlWGmpWIhIUe8b0oZSsGjNtF8Ge3W4hCS2Qmxz0NIEMx64itJ2yAlUENV8WIAWlqXjUsnTA9khtG5CiAYn/hTgs4v0dlODXXVsRNdUO+CER0TGl2sDrDSOFneAnGCaFfjhVWbXBlwQlFJjen9u/f+8cm62kGzgLlKCCV3lO0LD8neJI82xp+hPNqSUm9IHcvlxV4DCZuR60l2jqntVmch5zzzFoiGo4H1N+0xUNepClRUnE65K5BgWvjFgH6mRAecnbcGc/XtPpElCIUkEiRvYpBhmHmJu2AfXT9na7v251uttXpZBc2Tn/yvZ862XuiD11j6bxW1Y4mWC20CDFRYjLFqu91WOfgQWwyIkVIEqi49oZNbg1sGkp5G1ZUVuoETMafcIWooRo+f+hCzEvoXiVcMJmaIM0AxAteyApLziWZ9qz6lIEERjl3dBBlhWtxnwhdIloravKaf5LQDMsqSgemCiWAja5hNILbCDeK+28VLMCBFYSOREfdU7Egmy2s7lgwbLIPFmBXRIgclcG60c+Qzuax9Ea5NFJkRlWjH/XSRB2RCLeyuGgJPgmD7ACuA2BwxIUCVVpU2knpbCDxMwkLpC09Es8FMZqtW42xaMua95aJxaysa6FaHIDtLGHdHyxbSslwXyIi6MdrV+iu+z/9j3W6T8hFfqLj76nafmZBRFU7fuy5yy8vLqpNIQ9/uU0/3SDJABYjvSZLWZ3icF2wVph4TqAzWMSgtjTLkQRWP0tZDTM83bKWYEoFomvo9HsmbDV5xiutte/JspNP+JnIn94T74Hgw5PA55d+jmUTrYgGLe4CGOOZEis2fIyrb1FAWRvVFcqlapkxyEt76BvC10iwAJA4IoBVEMKxUFeLbFaxojoWCcSsI6xIuinzJyJUALEg4R4rdlO/u3+xmji50JOiM1h6dbJWmRy6n3Vtw8TgOEwa7rcnlY7XV92OSDBk5Q8eqCOuCpAcCXyG5BPJwtuVHLwmYlSLeCaO2JYBHFVXkTCoHviRsBCosBYgFIIvAZUAgH1R0iHKNTZ+4BMP3vtFIKLNVfFxb08ZveVmM6xXt7+UOhfOpSYQ5JWDUZ7AyXPhL4fXVp2bhUvMreaztGGF18HCcAUznR/WDffOvAcoh0WWj60ESixwdrj0hdt05MhNL/3L33xr8V+950OP4HKe8CD7KnxgJkHkz7/pFQXJ2slJMT0unDAYOP4vvoOVqSFzf1MPjugK6M9DtJ+dCL9oIhUZnaxiNmO1D1Yofh9oULN/XBr20dPqSLW86bh7r7Y9/mSelfQpEn9Uag7BMvvNMQBSuC+JAwAHDGi4AShEY6RVJON3zRM4Euso8NEBDPnuugGurSr00cLvAc62zAnM/2ZNAKura6qdJ6Fv2nu2myrtpwndbtY8+RoqpkNkqyqwMDkt0OVoVR3X98ahSohEATX30mpbqn9FvkxFNx39iqMPOjfXMNU1YLFs7nR8/3c6PZv0gDk/ow3bFcjktV9ImAR8AB4XRobkJi+GCatJ55C49tMf0n0uBGD9UXSow91z2QbCp93Nf/Oa5zzt2R/6zH2PcDl//cOf6n/HHS98UBbBrZxjU2DgxSO5Wx5O3FcukehRWpB4Av/6N94vpeqNrr+KRUq+TUTsjP0GDbtTyRWidGTwHUTVguuxWae/U5uk1wuwcXcMo39lkXVLPzxmHtaTGW//vT4zkyAiZWC7XGkcXairWbJWx7oerENpekj8vqUB2q4hYdek0UBnlSyJ7PNKlor/MBginyHEZ0iY0Vhgqk4YoPpOsRmLpeTzo8Tc6YocG5Xe9u4/+PgX+9uP44kpDF2fVqoN1/PQfvc0wd1iEcUjqzijiEGdmH5CnSVNetL4aVqFFB+yoKJcmEVdu2X6St+izkWtoe+aFHUNZICBSAIJZJR9lLQ6WSJU4mLlJCKAyUOJvrqtNnZta8STiw5yQQBa8m7NhBHJnd5wlSjIE8I8B309wVsSmvEZgLkJTwKI7KmRtQCKPJHVpYbv80CsUHNVvWv184L+5kxpFJ86FmrivbYsA50Hz40iysw8tgX4CZWOtU+2c31XqBl9EXHBrdhS+Lbdbq2M+6PHlJKP9opvFTh8IULEkTfjLolMbt2vvqr1B/EaIVnMAqb4QrttF4a+y0RnCBNT1SxAhHPBwo3Mb3NPDn3LYorYup9fXtGMcUf9EVwrQA+rS/sWPUU17tl7zSSI6DEd1UpVxBdnIEX2K2MtHh6xfBLIdnod8SUtD1A0EAxES67xs5NSldXDpqU+Hq0hWGhp0h0RDBLE2Negz2pKwt30xJN9zJJKHyrW6hosUUuCmUsiHCtVUYrHltwCVnQGXYQZy9mSOstjPQCIy3Ld8LUZzCuLcjfkc9cUOfCk12eITmG9AAgAK76O/XABKZXtyVbmOnP+yCpXksHS/TBpq0FvFwtrPwFLBHDDtao2cRlj0jr6Ze0Jl5LrLUIpHFXu455izQHUPK+iBHIXtlSvyZ9XyF1V0EvaviHQp5hyXecZS7HDPwKmFIWyBr2U7ZKsiDuVKvVjMQxQhXpBKGRriy2I72q30H3MCVksTs44P0fnxeSFTMYCc1gfiw9LLfFi3MMhxargWSh1yIXifpC0CCdCYqfOFM0P21ijkiyQnOfhI04SMFcjcZqUztw7XtE8KzJ9RQSXdU5zEHmyk+uJfk4LwC+itFySScmAxcQmhwSBGdaEH74mP5MKvxy056Hy0EMOHsEK4vmYnUw6VgkGiGtwEpGIYWzrhQhOV20IBoOdu3/uA5980jkOvf76u5525FmmLMi9YN8UwAEY6JC2IIKYItKRISpg0CRaFFhgoTDYSDCE6IXgi88Hp2J3KE1zd1djcLteBrMbbic4U7t/+iJ8zcTJSWgmjaMIVMbXZLeYjBBJeoVGxEhh0jmvZO7YiXUpob50TxodYk+TOq/SVga4ACvuqJ4BFfIXBIbceyYUXBW8BqBKbgsTm6RJtWWRJVXOLsi1cdTIlgNWWGhTzMHgfrKqw3dBfuue7ahMA6cg/ukxrUXd895ob9CV5dB0JbQkXGPMYBnA/eR8RgB9aEFWRca6IJNeDv0KCCr6O8cGMKP3TACJgTq5Yb7l6enkCx5aE5IBXU0ecCECFCCWVsMnOiO+utvPnCXyw1//6sakULt5TeX6o/BNNFYOfUA+qcKHX1SGJatg7rgyqdzqUn/DLM7DcBYDMUjJ04B8TSTYkDoWXkkJ3+Mwl77pyT6ut770tnJnb3IdA+aGo2t2HeAdyD7GGiJyBHC49SfREZ0DpB2ZpPAbzRrWiK7ThYSpRs71UvIA0z+iOcxjwABgLMGTQPxpUnBMMysOY5OWHpGBEHYRGo3eKdwHkNOaj6SHyFdWR0+sicC9iz47FmHF4myXBGkG4GQAdhIdKmGdA8WNbRXtCdiJpImrMvkdkQssSUDDZ5mISLbPa8BwvT6O/uz3ATlPZh1J18l+aM4eETjux6gwiDLtX/T6pQ98Yvitr33ucblVtwN8u5Qt1IvxYADW4kOFuxCB2YzI/uN7P5zddtMNdn9ZtMKSi1A57tlCk/QDSO+IHFm4h1VCxSfYKG1vLYpAaKg6sgFEKpkoQAU1CAnLTRqXLReevdfMgYgG+LFKqdpmNVjSiubwqyYK498qQ68ECH5CRciDo6zhPmm2P5k0AFxpKzIrMbUDcKJYjQVbGrmw/vAVO13FdrPs4Sf7iNWmoEi6RJCQRRf6ZTKsyl2Bv4BsgyC05sXWQiQUmrDjmnSByLJjskdRm8gQJfpCvoZlXCCFV2u2q8pFQn9hK0L7hDTF7SmLUwlzLMDEL1xBCJnEj9i9g4RO2bhhyYeuw3k3rNK89D4T23fdStC4/1ynxWeAu+6/i1zrIzX3AMIqJH8oCFFbGJqcWyJgqdlhvkOnZ/AWgFCKklderNrZtPrifaZdFc0M56/72kcwqDCRfv5TZ2Sh0PhGHetuE6vaakdWAQsRt4Q6NHn0DrCMMHvcQ/YPsLuyGaHZlO3txE6H4oMk5Xa79okXrJDkc0+c9MkfE1hifeQ5TiGSfLKj66v7uZkDkWlh+DOY/JifeREaRGDmNoi/23wmlBs+eeglCQmGH2r5tAYcbS+DXNTAQ4DkknsxcK2DoFWmLRK1F+ioKtZo9653/7fPPWFtSP54NckLbbGkh1dkFltzEWFnhjpRFFavhqIoJue0IpEE50biDGTtBLcgRHBJbGWgiRYYbEDSGlov10PRa7+YEPZKckec6WqQCMvE28HBeF8p38MK1SjHQ6MnYMONrdLxHFK25ROTJfJoQmGK1DY8pti73SyFoaMkYlhLFGnjmqm4iC5kosRB3BgaqfNiP9Q7iWgQ1mFkPAM07NY1c7lOdECp1YMXC4+HCM8Ca1NnyD72S7fgdFgHwRcBBoAx7pyjM/qYXWP2r3NYXlCCnb6bcNVn0IZQR8QqVl2Dc69y4l4nB4DC1eTPgfPMgTzstohgWSVrwDGPpJtFrbnZe80U9v3IN79WHGfraXl0gUnWlhlL7gPRGcguPxgekp5VSK0h3EIxmVc6g2FnReBBMgDJ2gweICq7s8Lx4JnYAIzqqw4K0/qTdmUYFu/+wGcHIglVxChyb8zQo3Z01/qY6H4YhHX1chq5hhQ1K7zyp/Oz5QDxx6qmD3AthHoZ8PuZu0x4R06Se3DJZ7lulSTQV2Qvm+pAHCULgOy7vIh1IHDursT7oQIOlzAHiouAlMDJkycKR7uvrcElLA43uDaRS7GoaHGaW3xYjMwjJrLdSAhTTe6IoqCRiQiIQVBfKIjhvOIawjIJVygwNYKtj/3S1Qx0NZKoMG7CJaYzIjyFLQh9hRsXofZcncoxAH6sxoFIYHoXJdT0do7GmBQPARs/x3OIcwNsIPGDdI5tcec4Y92TfaNw1mBkpkBEA63eqLaWHdLM82KYd3pGjjxoVfUAZaA6uQvSNbJ6Hc7Tg8aH7UnPwMqHGYsLw2AiMtDt6W+qI+Iq3Pi0GghdhfJGg63P//wH/+RJR2XyQXHhwsmPM9EtPU/WiK0AT9Ywcy+6L4QFUZjGROb6cnFcXqHdRYv0KcDR0QDtyYWUVAmNamBmevRZm+XaV6hgkxJWn4vwbcrSTROdSY6rUSbZGCSOeelJYO5U+wRoHRljheXcDSpMBr6SOtb7i3U3ZnP8lE8V9B9cD6CfJpFFY4CIuRmoWAhHJjSaGc4DgPD5IrdJES6dAaSmyxTCGXEW+kBkRT/26z+/7w9Ho8H2A27jwPjRzllMotUmBLB9N+/rPR++04AX50kULSJeLloEYGjBYfzk1d6jDgnRPrYLYGE8RT3XsI7Yb5SeCMODc9d41Foym8TqTIGITP1DIgHVqZDCMmVHM6IYUfRBYe2Jh8NlhWI1b+bsCt5MKPxURyMi4rErNt85EzQu8goek43P0cRKbQSGGqZf/6eOyCfwh1uue8aPxP7RUkS2cL6SMZzi+DpPwMN+Q5o0VFfX5Gf1cpWxSE0zKEYUJSYu+wwDIu3HuBQg5doW3BtbFFFTJR0g/PhLrRYDFys0kzIqnEfiGRmyER0xgapzcS+XFB6FhcyjOI4GBfp4rhgX+M2RbdAguBy+RwNtFLdMVBHOAgXetxBQ+3aGtUmWcLnMT6T7kV97nprP3wwheTbdn/J8xtPaN7JvFott6Yr4HOUK6YzndImkU6FpN/ybLSJtjzraqf/wb1gxPM9kKUZnw+CNQl8S8gEvDgkFc7Dh1oRKOJ6fNCepZNMTGFBXyKYzxYmMJ913t+qr0n6oLYTAA3acMOWiIhw5ANQ14MnWtdQ69Y1xU25WYxBflgffN3a6fuCYnoNR34PS+8AM12AhurC+tSM+5Pyd7/nI3U+aUL30OQvwzsODyhoqYBLnBZiZYbglhChH6CBY8ZhtTByNNkx2k5LUiNXvLYEn5nRIM7AytHp7soVKkgkb/XGwNoJnQMYbVdYNTYGzBg4me4Rg7fZ5BWeCx5/DEg9QMXmI+48ryL4BAnMYwZnEtAnQMFNigEtokntWmPiJU4miyZyTs+3C5Gc/TiLMjx+V6Sxn11t5LdzYINIX+CxuYR765XL0fizzf8pL+VTnIK4hc2u670RpKKlp7YaApJG0I+aTABBCuoTFdTxrXsip8hgMWYFFg8k18oKQEhBt0WIhiiy2PsX3Mu6v77UXvomArDOC975CcOEJncbMWCI/8rbX1mq15Weat0B85erbcldkUcBpYGVgZlMNrC6zOHcbnC8D1a8Xqfz4rgO5LB25LrlOIEK7ATIMABTkPfWZ0WPuV0vttz2hO/olNhaLP1nf3IpmVqykadLmpKUnnedgRDIiYhAREiYq9WB9fvpyA3KjBNZKEKRuNsXkZeXn7NkZxwG5kmXm4GhY6558MfCxCHgvxGf5ZPDEZi4nHChQSInPOCKEG5NIXlsFuVEVpGzsPghcW1fmp1KULD2PnMdwbxuI1ETa5iDjz+X74DwA12RN8rMtBL3B5A53IwRciLb09SVBBG5dRY92AHNcGHNLYKtOgnws+hIhOuRNLFdC0zwP9+9NUT27lYn38LPkd8aSC0vhOov/0D7QxPCZKCEQ2wB6+TH5Wcel1uocRC7XZHvs/RQPLC0sLJAE5qiGLYfQRWD+5iZvFO+lGHHUgCCcGg9VSXRwHorKYLKGpYLYiPT58NXdakLhO7I4/ZD7m5/6+Q/9yeMugfjlrl+DZIwrj/nMAEIfwKiJvB5ALrgLRxucB0S0CWORthdBtJp81DUxgVy6UOdNtTUDgre8xHUAONLK51VPA91chu5RWArM/GR5eNanK/BsinIErv5uF+IiQcpsz10Sy9PzjnIp7d88AWY6q61zgKK0gl0NvnPNtngixwa9SSTtxfmj/4hCynFOBgadqyv4Cyy4FwYQ/oabBUBdyoHIpPpyE/Jnf/sj/U5n4wG7NDoM1gB5PDyTsOam2c/+3h/a6kIWj5XYdvlEnTNiRELfvrfhlpiRSu6zI0hYubaewophrF7qYeWLgTkfW8Sq8Oowz+y9ZsYSeeDhu/8vJhcrAQ+vKTYdwosU9FwpyJwwM84PKcwWDaYkU9TgYFyb5ELNqe9umUiOCZXfbbYyRpweB7gMquXLZ4Ww63/1638AoXf3I4aJB6yJAvvbAW6REZsHGHxmTCKsBohFT5zwyV0oOFkZFSIseuEF5XVR0kx2WDZFHcPAsFUQhGV48SlUyTg2AAQIMPpd75X92nMIF8uRL6qL5dYKkRMDWZwrDdHzqnAu5JwDFsdNtooBzkWTUgKkPbjI33HEk8kNIDkcGsmDuUSf/eVRGU4BKyEPX29u7whXv2QnD9+nUrH9jjwih2TAVo+O1ZGSFlf52MEDHi95jREaT9nyQSUta5frQ2HLAmV3y/czABpg56fI7A10BKgiIoOMIFl5ej/0LVLHMHhn8DUTIPIDb/2a2q1Pe/bXUjeEAelCxl5lEVYFScizQkIeYh+ESOGi5ElWPMzchGRS+qEn4OdxUlKR/rN7hHRlsRQm3bt/5v0fu2xWSD42BEzvUIawONEw1d1IXC8GFiMtDzmi9ES8MbYpHBMyGkCFb2FpmYYcIAIIBjlMODQaTrvwECPXlkCs6hGGjBAmIJGcjv2Bb2xJoODV2BZEcCtuoA3PEt5QABmWRfLrgw2JlZn77xC134sV2K4WK7WOS/q/D2M3KD4Xqzkfid9NHutgXEeQvlE0iRUeizEsryj5ABC4KZTJV6tm4US+7HQU6JyFGCbJDyvELiYAoHt+7sKWz2dJqf/u4wxPxtpkxWxEvmwJa9zYmiBCAwYkno3rZRuPQfEhucsauTLKXlbUj/3nFoyOrDdo7DN7r5kAEZnGt5bLjQPoNzyAUGjKAkHpaYk3gildiQVlHvwx2Im42FQE/QlHpkGwpVRu2iquyPelwDOEGu2ncRywTtQWoi/67C1PxePUOD1HTxTyRliMrE/ROV5MK4+JA1DaJeD60naEVPPOedQ9BVBDL5ImLROLe5Mmns3ndD9C5endhVWSJlkMYiyz6KbnLnS2UrASwvLxYLcFEXlE7puLnJvpzSE8cSKc7JKSOgeOY10Hbxqwk2ZChBPqVSxEhHRBekdYnX+4l1gcbr8AaOrz5roIGeeglSwnXBoWC6wQXt4XER35U/r5y6IIt4ZpzLkjIHPPZJ1HR3zYqQub+5xUW+OEY7u8gT7EeVltqn/RoiLuAy6ZhXUAt76PVD7CfYsATuuBIhQ80LMPsviiC1QpDO7+97/9sTmIPBWTzqv0uPtroURUsWWKwHgesOImqxtzVwNeFqFQny/8TNWaoEwfHImecF8p7Ju7XZufDAS0JF7VaNAseTjcChO3o5Xp0GLlC//udz/8FetCHut+wCFqyMngidWY1Y9u9HlpRytQATOSupCGs1JDxsHrpMkdS3YCTxZ0cxee6eYKIsKSnIawmn2ttikc+QjLDesCQGC6MQnsydhy4Y0UIUlWW56Ex2G4z1g3RGtcGZ0PA2omgGl3EZYTh3YHwWRJBE8Qx7CrQoQjuQumgXkuApBwDVIagywMS8KThUS/XBYFom3uEYPwKzUfM88QFteXDfFyT+SOjTd3VC/XzyEsGlwZeLP7Tp63m8Hk31UrDCc7Yqmkie/gmU20AAi0IUHQRw0U7o/zjcz3BDiHcjepZAkXJ6Jf+tp+o7r47U/V/Hmq93vFWyJ/7nUvPlaqtq6nRgaqQsxhdCHhJzNgmQBU/45WkDZ+jfiRTEdFLAhVVizXnaB2qO4qPjAAEqK0iGBsq5aEPthf7+y99am88Qz+XNzkSaZrAeTCVQlrIeTXoXeJpK40wR3pCF97353QB/KCwUHSxT4NvKyaeAYGA2NLcCPsky8mtEEj/uZcGTtCnpLxfgo1h7sSOSSABMCGnWL+QteENZET3JE57bCR32NieeWFs9IJ5ZXVDZi6doA/DhaFk12dLqlb2VeuE8k5Cie4AXgJeKLhd1gVchnUaeLLWyL/7r/+t85kr3M/x80r/rO/TYX/G1LDRnV3bNQQuJnABxgCln09BlKLHBOxDdBjhWCp6GeulYxjrimvLA/oRb5N7Ff7nGgXG0/lmHsq933Fg8hwb/dXFLGjYFcgf4x09z4FFML3ZKWGUFWM35XKNClT9i6WB+YpwzMERKgJKQ8gYhLpt/ZM+jtLGIx7szZ94F/82vufeO3Dx/mUWPU0KcT1xjR17gaKU373XEYBGTU4cS9cSDqllRsKGMRYV4kc9kA2cZlHZTD7ISURQpGxGwATiybWe7gquYzCbo0BBWRJ99ffAliiWDLmO9sEyEQJgRD45TkuHICJZGIUPyG5SwYa3CxzGBGVcUMxWxbJekluC4DmF7xKsoAAwgCkaPFAtnP0DMLdiu3SobzPlECXwkdf/qGUS6235YI2GlhRlgB31+Rp0o2Yf9HxsTgcefH9jyproXblmWkMIrzDNUoZzACJUy0SsDP2ImQdAB5RHAHqaKicrJTc9eVP+Yrb4ooWm337a1/YWFxcuL2sFoeYuVEgN7rC8QLJXek8FjA/HAYWuhCK8O6p+RMrYKxOIjBdijDUjzTULlFgV180yd4R0Nz90IlOs1p501P5lNKAnwY7H6YuvExegQ2C1+4ILgyd7fmn63SdU5N64XPja7MCEn7kdrg3MJJt34owu3FJ6O8bUnPuU1hhAFDB5HTMteQpxAprcIuwr28sIJKiJ8GLBFDEPQeAAJiYWPBVgGD0Nk7FjZKFY1M+YVO0CtUz6YVL5DBr3A7tV7VOdB3bFHmmQJHqqTpag1uDa6BtWcmpp8L20W3uojaFibvYbtWmA9IRH8drunfmwvauQ7iI+LZxiW3B6n5jeeg7EUFfTyKLAX6KFSFWi5ogkXrAAeGqEM/lDc94hm4FSrRKNw0LhOeLO5aHgZWEuPVvfuMPZ7JdBHf4irZEZPoevrDTrZLyz4PjoUXeRDRtKiTNAWDinip++BqsBDYEFpG4xWqaF22OWhisMGXtQ0XGZIVEgZnzm9sqi7h7/Cd/4/0PPY6h96Q32Zfi+5wSCYzWw6scocFYuZ3vE36IrwuQCTJUKqnk+pjgc63RiMzk7R6wXCwvS6u/rQ9NYa4ZI8JBDEc/sArCInLuDWiUADoaVQESDHp8xjDPAacUc4k/A9iJ6M6T5LBW3HDc3Ee4bq6gZiEYalwOD4/FIaIGjLdJLgzfAQ1ePKvcnbFFpb/Z2tDfaIt6Ucka1g/7lyuiNSLt4Ms8KVkDMlPHI24tYwsejeewpHo1gDULDtaUvxLxCqDj5pCcGcK40O8UdUFuP5IsOO5z/owtOeA+6qZBKueyfcv1J4P7nvSAugI+eEWDSF+uTKVMAUxWqOAF8sI4zjtxseDoN0J+B9YFVb0Y3FREz7USfI5VBNcGLsRRBR68PtPpkHg3kPx5d1Iq1d/+VD8TFvVOf1jIJwYDl/HulSn520HihWWV8xBhSUR2crgB6EoUybCqNd5zdEGfZQJ6VcTyMJDEohzuRFgT5hhY+fNIDZObVSUXknFk97mNe27vxgRUZDf77OAu9He3t8QsdyQiCFHMmwCVsIzySvqWjuuVV9h3uYUEdlGXFLyKHBwmmMFIx8NtxTJgUvIMnSiYclrsFgYyOrKVu1WP51n+9G/9QWdnZ/0BTtwFo3X+VMyjboiTORORS4a4x5XdqsitYVuuEcuIsUVkDysMdxR1tMP33BdXmYt6rg4VpxNLEZ89hf2/9/Gc65W6zRULIt/8Nc9vHD543TPXFhcMEk6QSo2k81XWA9uzKjQj+dpjLoEVhUmlQQo/4smaCELqj1RLdVUcH1hHsb6xjVXT1QC/LDkyX+phK9FsVZXWVVY5uQvYCLoQqoebSGR6JtIzyMQADCeF+YKjEhkWANdjU5mJiIXAhE+g5Impj1MPI5yZiD6Efw/Axippa8ITIgFD+h4T27CSLCAsmNDn5GFOH493sJpM9IZVQ5gVspQ9ApAuG6vKZSJLYlLBAelzuACxWkfVL86F2FUojenPG5PagMs562dAE5I8b7adX7PBSxdMflFDyTCyfB6fO6NDVkrtbworNgdBQufR4Y57wz7zAkIRtUKHhEw+SOY8XB7an1jwAvR1LxLvAe8V1l244XYxDbQjDcJs/UoFiMdzXlcsiGiQrKgVZoXBSc2QWHlSbxWGt87cknUPxshRwN8cKs0froD3Y9Wg14lCdQIVuzGYj3p4hIIBkPMCECqRj0a79/3b3/4Dqpc9pa/JuPebKsIDGRGydjQeaSA69T+RoFFx7WIEAh4h5Oehxdh3DxIIhQvDiqxoBwM2uQZGErDD9yMAye6NASnI2CA6L+E5uAO2PBIJi5WSQuxRjChydHKOwxnS2jZykWKdjfYWsSPUqwESRv10nvEsHJ3wtaaXeauQt+c9eeyuJSEYFgyNpXhd5HqSWpabo5dKLaoGfhaNZR7HS0BwEkDLe/PyEe6TK9xpn9EtIOT11nvoGvPyjVwvth0V8BCSmXRNepdwX6L8hJWsBusAkljgZJ0Mtj79E7/yoZnlQ/wcHsc9/qpscvzkff+R4U1xYqtUPfhTZW1WNv0SpnGABX93wWGb6TFBIL1YvUF+BjURnQmdzPBzNXDPSFDEDXAj8FLz7U/1hf7FN7/i+mm5/UzX8AA80qrK+h25IjHJQ1jFEk07A0oa5hGVVPGLq2YyhqGgWq1RYDkqtcnsp1eMgBQ3gPuUW3KBGqFZ4B65bw3REnMh2peX9QQmcQvjbUeK8iJD4QraALR7xXHiuwlfWUymOjxZ4CjYTO/ovJyAl24yURfzI4n0dcV0Ji5cibOVL9YJyV0VR1/cbS5lDfscgygPNyp4JqXvi4MuHX68z/Pf//YHt/eG2+Yl6HDnl0EedzGS+yDmAX1+t5zd4exwU3I3KBYnLWSErBOBCm8S/FBwdlhZaXgKnPqdarl1WcpMPN5rfSq2u2JB5OlPe+ZzDCBpgDC+I5mMknKhnYDEysNkMRnCrw8NQko+Yy3Q+1FJC2Iu5NX4rpCVmwrnndk4vyGT+sxTcYMv3WextPdelTEo42djlpNISIElri2SCBmYobWwv63vtFSwtYAFAkjqcxRpZkW3JgM+gsQ67ALjZ0zU3O8ONS+uTR4KTeqTNJvtJuCSWMvHfsOFuugq5paKHZsU2gx1KmBi4ZdJxxBROezK+5AhuF5EwmSFhOcUrhiHNqCk62SRAMfAUafOa5+u4O8q9hEGDsskaprwigr/oR/hXK0Z0g8Lqpvqmi2l4S8+kec5nlS+TsKziJgkQthRGdfoFZFKbg4Wrd22UNTmQJJMrn3dSp70GB0EklBQ2/taks/tY0x7n/0Xv/LfZtqV4R5fkSDyna9/ifLrGsu56Ux7RSs3DSJEIgIM8Gny5Kfw6FkxMY9jEuZZrnyOFSxCk7Fi4oczALFCWrXCmZ9+70edov9Uvf7SW155fbm69HQmDMw+BXBy6ypci9yyukhMMlj5iqQv0vTz2p0RH/HgTZPRzIctrijO5AohTEJ93rxRIk6nzpBPnQCD0Ygd6f3QhIRlF/6MsSoATS4jn43oTLhU1kDoYJFVjKgtcmO6WrWD0IWcDbDh3AByPux2pwlQcoDIa5LyXKrJpXN0ycCfNCnaUQAV1xrnxTOMjOb4m6u86Y+qy37T97/pFe3H+zwlTrx/NNx9mOPDhXCuJGe6by5WCRwPIj4dlHM10CetiBtquVIb1xpWSojNcvVvGo9e/ALeZeVod9VvfLzndyVvd0WCiCbOAQ3+GgMDcZEL4tgnF/8hzoMMSbxN5zzahI3sXfxTlJ+MVeePJPcgT2VnhYgamvEgt1Wyf0df6kv7tqfyIb3zTS9bLpWnHyI02XI/GSZicAueAEx5LAKiMsl8jq50/B7vx1dM4HB3+Bx6EIGqFLuRGBagwPeIviSfJHEKgGi4LHHsANkQpgkK4hYASolcdTMrmxVhVQAq4YrFdgCPIyr6k1s/6B+ktVP2kd97X5j8UQjZxCLEJC4TZ8qkQmNi7iEiHwYp/xL7ZT+UTORc8qhPbinlqzqWwqUVz3ABF9vttu7lkcf7XH/29z6qAFDttY6gaIwAHmiMXD7TUvVQ6Ro4UgpCzv/wXCIzPPWxweozyCNkJBoYLSIcOdS1Qbb2e5t3/fNfet9Tbv0+3uv/Sra7IkHk9LmH/hMiIgYmgyMaNIXl4doR1NvAfNU/QqMOhNpexseOB9aHUCXcZ0JWlcA97mMSMnHJkXDtESpPjEfnvpKb+OU+qyHz/mpt4UYTu/rC+gmRV7gOmMkMLgMKfvV+uNcmQWSvOioQgJM3juZvtsoMHGHSc6FuKI31gFuXiExwIHeLok4pNyQyfMMWichETHzPAH8gt5LynJH8/Jz0ZwCPqAYcQGTSesfWQrD/ULQanQI8HPLNIz9xrrlZwTEcEeG6mHBYjlgw6IN49skVCFFbvOK6A3B8r/TMqR4f1zD4r1/u2Vz695/9nQ/dt7Fx6lNEwnhO7Aer0TjKDpOLbIsvgVu4ngF8tnS1LcpXFyLSvSUMHyrVoKIZn51ud1Aq1l73RM7tSt72igORd7z2eZUbr7/t+Tw4aqjmCWr2wfWwMFcBhagnmla65JpwMdHMCTM3QCakUUG4GUD0FKXTCJNcnzuzcWFLD/wpY8dlUh+t1VeeB/8BuOW1SRlwgInrdBoYNOFsOUXIED7AdWMxKGw8RP0QD2aAESBiEqfRFRMzeAfHRRIvFODJPE08RxASzu/Ilb8GDiIJnvC2deQSpQNrexOH6UAxl/jbRb0E4IfFCChHKDOGVZDdobDNozC5teG/+1iYN8lAAnzsjiRDxNZLcFvcD1yM4Ewi7Apowo2YeLd1w60hV4dueuKayq2bv/9Nr7zhiUzAybR2h1qmXkD3sb69Y6vDuT3JOiE6Q8SP96LoUIq06GfXU+UeICYDaHLrS1sRMWT7rd2erJD1j/+L97z/qrBC/KyeyA3+77GtzOGGtBTNPEDIIMM1iULLwdhHdCARYF6lo8r5UCQkjY/cGlHbdvWgnVnq8FyY9y5qk8xOlq9Wo7qnvz1lIFIoDN9bVW1pjs8KysCn1YErcsUS7fOqEb62JRCmOdt53sJpEN6FQLWFkoRVnszx+Vx4ZSfJN+eiDgF3J0ojBOkcFoUZCR0/1eXIraJYvv0irhMmSpCywd9oX7gfJDMS5kwuZrCmCWUAPINC1HmJkLJ+N5DRgIsm5GGJhZQjACxX6QYSBpfAGIgktQQ4Or+8BERuDfDdYKvvSOHhvqKYNb1pKuXecPs3nsi4/fnf/+i6hLAvz/sP5en/5tG4h7g1tmBDi2SxngE6zoNrXlFAIFw8WWc6+ShqFJEn5UL1LnexqydyfU/FtlcciJRKlSV1GJOVHkw2MmSyd5kIPQmWSG7KO8h7/jEp9HBp6ky2REys1NtUD84rFIM42bteGVk1UkRBcfov/NwH70Twc9lff+EtrzlWrS3fzqShcJCrkNnlCkDJtS80RXKhpWRBOdzJCoxlEI6Yr8mWFApVn2lYAxHBiGvKXbpw08Iq4T9HUVJ40RYLk47a4p7EaSIzEfi6xDy/+HPKsUmWAQDCPbW6FSvPRHUiZh3m8Q1P7lPUfsF6cANwf47LC0APQIuq5+4HbMCP0pZ2zbwIYHXBs2gccP/0+byAcjy0iDBFq4kgW7GMAJRWe/Vp3//mV6a47eN7xP/pdz547/nzJz+/oxIAEQUMl48xGNngyYqz6xk8CW41PxMGdt5Msr74GQuEcbyrspi7O2f+6Cfe84Gn1H1+fFd5+ba64kDk7PqJn2GgUBiX5DL8XXeT18iJknlhHtvfFmEXkyc63hF46OphQToSLiSq4wnlQcCgjNaLHmiaAHrwo3p56Tsv3+185J7K5b33kdSFhJoX18JEicLCUdawVpa8Oq2krHK5O8N0cD8VJlFyD/LUeLclSIAZllUQtW5nmVwNDC+b0zFj7QIVIChhnXMaIq32TrJLIGVYwce/xNLh3FlF/Y8JTBtJrKbc/cFa0T+3sODzRJSSqwLhbf6Hf3Y/gyNxISEDfKzi/LMrBtlr3zV3w8IKAVwcCjb/EGAaNVdjCMdxwxoAPOwC+ed6U/fkwBN9xuVy+2vOr595mFoiaEQojRhNt8P1zHs2Q6g6Yc+VzajXmso0ANAoeHV6USxJbtBw6+6F+uI3PNFzudK3v6JA5Dte/6Li8srhpzNIrDvQIIFLsNZAg0VlBUmbdhyBeqSsViA/sBCFeIJcBPVN4HlARl0NVk5zDTZHY9D1h/2+BvXGU/GQ/vyfffWxQrn9dHxzeBq+u80F4KGDu1+OwCVqlYZ14gCr/mbexCn3uQYiuAAPSN2X3BXKeR7+FrVn8ysBBJi08fmI/BgVPN38fxs4oSmJUKp9huTChPViN8aTQRiES4mTo89ES8tIdkOazvEBb/aXux62YuACQDMADneMn0yI6zuWi4V/ul4lQfrUHbkJC8xuyiUKYxs3Og90NSwoDtEnUtYaDrtkOSktwZkBOAjQbvf8u57oM3737394vVpp3tLt9J61293Z2HUUjxyZkRP/DHzwV5y2ExRZ0PZkbXST6xlJkPAnEOGjYech2Vmv/Oe//KGdJ3ouV/r2V1QpAE2qWq3aWAjCLFYZF/DRQ0A6zCoA7ybjN6wMDZqyeqBa+MMqiC/tuRHZqUWlqfslIEEWz+o1SgjiKI9GolbHnJu8zM+q/1vt+rJXqUWdq/kQE6tRG8PSboRMOh/xMqG0JDs1uXHuhKczAnjiulh59dFyVBrPJ6zbO3hWxlfoM1LCnD7lO5BbFRCqui8WfUF6eq7qO64D2byJv4gtwkWICmVM0HBfQoyVhzwjMtFRvVBKTNakCO4rFSRXqzq72p8NLgFLJcRiYdEALAZEfW2OOvstMZmcjioZLHR98GEAmvYXxGucT86L7GtFbLVGdIlCVHm0qr24duuTebg/97uWo3/+nW953TN63VMfyApHn9moN4q4Ze77TI0VSjvuaWGzFxc8jq1lZz1HhbpRv3NKF/Kif/ILH7jwZM7jSv/MFQUiKnqrDgmVYt4WAjOSWiJIkWMlDRKxKxY8TNuYOfZu7KfG7a6687xWC6lJPEn0B5u4WjFg0NkMjYgGJq2j2cllff2lt3xtvd5qPAurA4DgvCOkGxyNQ7xpIlvn4jB1rGxs7AQ0R1+MgP5yD13cDlL2vaQT8owueN435QrT5/0Jm9GxersQEGMc/iS8un3QiczhIJ35AOcVdpqnqv+FAjPcCMDHUny9T+sNrDyaZ5kXSNmtfDLKNeQRoZyvCB8lSMooHYgxwXnCmxhc9P+cVI7M5uQOpftnbiT9zAmZC9E2TSlVXb1fO6RUAscn+tbU/R/t1ZrvfPMrKj/9Wx99UgT6T//X953XaT37B9/2hut7vY3fbzWXj+oSmrKAgFU9wgBW14LVO1tqAI8reffx04NqsfvAUrP1Z/7lr//hzCtT/7RJckW5M5oiSpsoR66jBobDn6w+lJLTzwABQh0mmJtFayCiT4APcfOp/Cpxh/QeRXTZl9sr6OHCk3hieeC67aTcGfLdL+9Lhz+iyUdNC4ciI508ksT8s10SI4uvr9lo6nsIv6ioBeewz20kAiP4BCZ6AKmT5gwaQSRGhICLY5WPCZ//vC/S0nthtATgeoJyq4MA8Zd/Ti9bJPG2P2gp+z68RKEg/oCVwIrrSIb+EU1DacuRLIzDgsIC8jqQ8mVwhUaACIsBBYAi98dtJQE+wMEisgjhUmgKsMDFgWiNym9hreSuT4SUU/IfoJusHN1bzNaveMH8yV/5vRM/9Z4PPH046B0aDbpPX984fb80ISPyY+jhjBemKnqg5GBre/N0Z/v+X6kVSy8XgFw14dzHmilf8Y29rNNvmh3Qg6g1Ug3VNEc8OcKlj9R3zP4wHWPC8HNUJY8JEAK0MO1DzRiNjiYFpW8zqLHe9b3X37jnNz72wGWPzOzurP/y0sqSBz/TjpWfVcoiKZ0r33PLxP4ykQk4DQMjYBI8CSDkSc88MUdycZVm/o6wWJJ7FH1tPW89sc2XcM3aQRRtwncP1cwUfoVNmYB+2bQJePGcDIKWY3NOJloph1hIUm79jvSbIkfoJexmat8lPiDDbqT3sgrFhkJGj3w8WkZQKtAQFhyJTUfARBaESlVSLQBgIgLCn4hYuX1lSsjDQvHvLCYUsibcHw88eDPA1BZOCPcAHq6jXK7Ws2kPcvWyFJz6iV/4HVIk7tXX037wba9tK+HOTXK2x4MYqRR4FZD814+fl++FEXN1v64oENkbb/9MpbRczFPj0VO46I6eAVmqmOUQZgwgzMUhpnxEOu2UoGFgIkQH9hjEDG5WrEZFNVl7PfMS60q0Ur7DXr3cvuwVtv/8G16qcVu9hYkVuSLhEmCRmBPwChr6RaYtBXaYqO6vom3j2omAoBtJVsE+kkTAF387ojZMznDlbC34WhO4mvgLUDC4Jisk+rsEv/BI+Ai3JlzEZPUYjHSmnLcQIgWJLGTzqWkfwDUFrx2W5bz5LNE0cTgAY14/1pYlFkbCOj6LxdKDBDfQpJA2AJYsiOiK57aY6XtYcwCyF4cUrQFHXc5Q4DyZCsBQ5+orCjAFmd7tXPgFnfErLvd0/slf+cDu5d7nrO3vinFnvvuO55cH49J11lFooCAcyrNvEVxRtd2Tj9ErUGARdb6ExVUASLSgzCuKY33YnE4uxLYAhMEezLqjI3uaMpuX+4FVCsWySg5UaceQGwZ5CjzzDlB0VqsthZhR+PgmLHVibjyeLIScD4gCNhH5QFTn1gWY/UwSJnjM5zAm9r0R7lP04QkQIWLDBOf9cGUcDTF0hBtgV89raQBBCPy0z31uhkPYLEpAE1aelaqKmu0oMrGr+2zS0eAeWcbma31caotIBu5HGK4Ix4WQxarCuoLPyjUteZ6OQRarJoELIOOEygQ4jmbZ7Q3S2ZZLuicu36h/4siiS9j8ddnvwBVjiWhVqVbr7QW4ApvoenlV9krrIO7+Ku6anDbNAwMZpHmIcyTfNArqUrQo9CXwJ0y8LTH2ZJgyvS9sbe7AS17uO1rYk+9dnGoJjkluQVaa2MFNYB3hkkVhHSympkKcTBzAJDcZ7KbZDUi4wPVSZBo+hLuh3VN0OtdjGBi4F1b35u0XEq4E7poAjGzoMPkdS+CYBpNIu7fbaFsldw45y/gtF+oZcFz4KJTEZza2FEbtZw+eOC1LsZytyZXDCjiwsqDjYTFAJMd+Lp5vkN64J9RoUsAtgEyfi1ojABjh+igBiRWXFykyN5OeeQBW8EEYfiTFuT5KOhZjaSAl80Lr0PeFBzJ/Xe47cMVYIhowmvuVGhPNBXqYKBoYtDfE93UdDf3NNR4IlVpjEX47ZCuDbFc5MQw+r7IaRLxntxuXQgOTSCYNoZjYy63K6V/+6GcuOx9SnZQO1PDCZTkV1AGt0NXs6KtEI02zNMAjvyLMb8OgrqEn6yh6BIck3dm4nLNNjDTR982NuC8ASLwCBDz5DQhheYTBEe6PrQCDRl7MBxcleCb8QOacv5KIz4oODA7Owd8vfh4AcksLATyh3bGuZ0dNwU6f25SYai/77F0PZQ/e93D2hXuOq/B19L+x5F77CS0Hz0wui56hK9jL4oSUDYI0aXis+QFE43k7AmXSFX4kygmYH2O7eNQ+VyuBiRyFseU/uB5LX/vfmz7uSmeXe5Jd7fu7YkBEDxzzocjAcEtFjQQEWisLbQ+KGN8x4N1zxYrVKEXHILJcWjtwFqm2d0FcDz6INbkxMqOpmMXU7Qz6426/cNlrOfzgy1+6Ou0OP1RXF5HSjqygC6NscVjKFmWYlHd1Pj0P5mzQUzlH2nUmVt8NkXTafdoK6BpckYz7kKTUTCZHYgCCZK2EJcFcy/mLiFYFdASRys7cENsJdxFZ8edNQIZLEf1mEtzoTX82AVfUFwl3x7aIjxXHARiibaSiErK64K841vNuuj47vNjKDkmpu7O1E03AfZpxnLxDX/Km9H5Eqth/Xg3e15kYaaIe0bYyrIs8/Z5r4T4RuctTAULJi7I5FT5iDAAgak0xHfZ+82qfzF+t67tiQEQmb1E5JCTNBD+Av68B6HaTDD9yENAN4Jqwmtm8TYNcgxBTl6iNyTbmj3mTcA9oSFRCqq2ZRRiSsajPb1zum14fjj+ynC1dvziqZEeG9Wx5RyvjefWKPTPKVreVeLetlXdD7pYGdSZAmcpSwfTIO8JxPrlFEoQwOJDyNNIEjmbSqZaKQYVLTMtxfkFe+ZNa1QCQwMY4wgRNwjxbPsGbYP1gCeSRMBOsWDhmrPlKMnpBCmph7mkuuiJaQsZ1S3qeC+JEumyr96KUIe5cZOGGcZHKFfg7xAnZriomRIQFotjImFd251oTD6ZrRTXr8gbanueYR9nYMc8aS0St0u3GDgXUE1mAC9OKQFzFmwvNw9/youeEDzl/XdY7cMVwImGJkOyaSv6bbIQWiMFdsLox9B996QssZdcGKAVdLBdrRf9zq0INtLwilbse6CvvRkZHenEGdGu5pDrwV35Pf+DFL64Wh43rGhNae2pFVIJbkfkpd6YscKttT7PlGoVpdF0LupZF+fk6i+2C3JyGwLGh1dP1VGWFYDEh5dYF05wP7442n1Z5Ev4lOpMS8MJbS2Ixr+fxZdJV30OZGi1EedjmGuwCsWoTIk/b24Cz8+OJ7amc3BjDFgBgCyXS7yncDrIAHF1ZCwDLobXlrKd2pypLlzUFKpFLw78Q0bm1hPaNtRlFmgGFALyowobFpeeTmmGxBpj/wo1xpIcyhRGli2iMyFVdZ14VnnPgzPu7g6yO1doZZy1Zgie3B9nJ/sZZPfHL+sy/8lFzdezhigERCdAXAQKvKAxsj9sIMUZpw6ioNdnrmxNBRuZ+u66yTSV3upWRMZlIRczoJA8nZZvamNsqFsPg2+1s3P9f/ujuy1rZvVCqrDYL9eZA54hfFqcRxYKygQa6Qo8dTbaaVt9aVxzPutL/BRwrCwKMttSfVUUtWrKUGnIPGrpuSQ8m6NwJWwpQCIfuZ86ZBMjdhPzdiLQ4k9Uq1Hi5DisJcfBDUMqAM1Ma6yOBEu8Tkg33yARDcBf2KUKsF2FTfUarfK2mOi+4W+5gV1A1/nrWL4kATVoYokIQvHbB+Fw8yXimtkzyEpZhTZrzMGrFObtmCG6Yjoe105HVZuJZ9wFuqZYhyKPDIUAYx7CViuBL7ktTXfNqfUVwdkWmb6uJu3iRnhj3yqQcFzR/XdY7cMWAyNkLx//l4hK5JntkXlp0ZHpDA5kSdcutpl2btjgSC5y8klIaEA2GCuLotuRNhfIeqZgyE0mx6ZY3EpC4BAAak3LrbZfzLn7zS168uNHvf7RaamQtEvyEIm19L2mWDnUNCxNadook3GMCaxz3kti+J7dN3ElTE6WlJgeFpnz3JZn2DdVFWdB5LtYNkBN9tk/LTHJszFBS6S3CmaE7CcvClKUJSDstASa4h2AD0zit+vaAUvvRiUwKbMCplmm7fwA5H03ktl1JR8ISO5LKFGCluB+ytoMPMddRExipTxDh3rzUgTld/uk8kMVHcmuQoi6/KAzAmgiSN4AKC4y8JyrHY0ZG6cdojs319UWgU6MWvRA6m95uX/ddQ1m8U0WC0bJS3Iabg2y41ct6Yy0g+uxKdXlpZ9AFiedAcjkHv/Z1RYDId97xQlmtpafnAqh8FY0KXww+tB1BwDEoXb9TAwplo0VXGpl0sQvBU/j7Jnsw43FnNEtcCS2W4JH2clnzGCbF8Ueqywdv7LQb2YYG+LJU1vdNh9lKoZq1dYvrnph72bLygJpqh0LaOC4BK21FapWuJl25I3Habilrbyp9nSm/KMurNcxask6mS2rZWBbALOh6FA4uaJWfkAtEG0xPxABc1wQTUOXp6Lk2hO3yiEWkzofLEh31IuSLq5GHfN2Bjn3ZmgsTwYKvpPwN1wZ3JKrMW1inSTzQhOU9OA534dNOsDIMYfA7uB4Au82oqEPi4s4AWRLhcS24JbxsRZl09am4HQOiPHyzibZpCWiUVZVVtpUQqEZkTdmWna1RtrlDHZDgmmR7Zn2nAZRkhgBZ89flvgNXBIgIQZQuUlsARHBd8o5nrvxN6rdWO1Kw7RdLGx1qVYGKBj6rG4mdgM1QfAkZEkWtdGbzba1o4R+q3aruXLQ77Hc0mGOUXobXG1/xkrVBuXbbVNm1453trL22kq2nDm2DujgQWQVnRI40NSHWZA0tacKsTgQkOv+mAEYFArTqhyqTqmy70kTJecsKAhUgvlZHLl/IFltwKQKRplLRl/RzTa5cUxNfPIu6g2djR1xATH1PugmmXiQgBtg6LyXRAsFzJNIVvNWELKE78T7C7vBfCdOaV4F/iugMDlRUzQ8LxXwG91LWFO5NfyLrCaDRMeiBE136IroCmNAhr96oZF3VuXXpQcCUxur63dE5b4sbW1WIv29XDEBpktCohud7XVk0WB9D5SXtaFzI3dne0SIit3FnTNg5CgF19Ex8hvqM3imNLur8L8OTn+8ivwNXBIjApirj1UnqvAATRGEthXiH+l61OlFRFg0yrJDUrtp9WEIijdpTk4DQHgwiIcHEC0QdzLBgMJOnk95Dv/bRzysIe3leve7ux9tHlit9gVZjbUnqNaEGBaKJJMh64qtVaWTbmlKbChDVhF8NWQYLQog1DfbrFTkoC9KW9uTSiFAZOWypCURYV3NpT72CWe9LjvRo5dU1thvyP+qCA7k/o6Z4gCUlE8rVGdflygh0HEwxCR12gl0H5Stze92Umj1i5SEC45bjFmLx+R7Z2TGQ5wpgIjRYGIEvkT1tPY62c34QVeIgS2ntoY9X+JuAo6sICVnYY70JuRzlK/G1ZH2JvwA8bOXonHBR0J3Y6tC5wX1g0QgH7Noc0L5HsjbrF2SFbPazovSnxV3piGTFOddG/yDUTSgrp2dbJ1sWV4NMdWOvl63vdipyjuaWyOUZ9o/YyxUBIrGaqeInA1mDbFiicjhqzSjWE20eooYFL0cVNLgi3Ef+Rh72hGTVSuSaw/j3mM1oBmKQKyw4rhSbl62y1Ctf8sKGwi1HbOaLt0BZPdXEhARlLWUQl3SijhZpsPdVxWwKL6AVtqY6KA9oZb+vojahSqVf1t/XFBpeGWrC6Gukc69LsFYSuMBJYJoPIBsHsioELIiq3O8F0rStYwsk9kTIFlpa9RfUFrQtElKAMGjK3cP1I1Skl3w5k5tEV9VuMlkR2r/dIoADPUqADG6NG0q42z3vAQBhobglB/tLgj7IW9eAtQ3BfUfeP7WbWdKk5hq4D4AIi4WVpjomaQhwG7YqFbal5Sb8CWK9NkpexYtrfVmkApm9TSl9KY/ZJ2tYv2t/PR2TM1Fjh2ykJD4y47aEPLtaeM6LzD7X62YDImVLi5W97c6a/nziKZhH1/QurwgQweuQaax2rpHhSpIdQz50EqFP4CvPlYj8Ei9i5jp4oVvYjy5oAmJWs9FQxYi8nUm5ibzmwtnL9cSVZXpzo92uWo7iFRWg0y3F9Ed6r+9q6ShJeC9rNBpW3o4ABX2ACTUQkFzobEUZP5ncrba214p7QITrovq3HJJ5fmhQltujaup93QdZKn1xLRVcAoEJ7b9VgiUrb2ARSCOzqciQjkFceKT71agKkFvSS8j1GWK9NOBSpKXQ5B4IwBzhUo1qJiL3mvOjhGL4JoSNqZ6v97AeBC4W96VSlRORxQ7fErHhGeFSEZLStfF8nNGLFeSq8gIKfZ7SDFQIc+V3h1RQvQpkeD6yTOp6lCW9VxRwlKTxqOoaK0pv20NDousnzXd7Em06cV2x2uoaL5vEbgVUZ2XSbQgA13VlW3ruu7ixAiIs1HFnVJoMt39fH3365Xr+8/3EHbgiQMTDTQjBuItGQCFzzqt225e2SxI+uSXPeC3QBnAhlOhHLk/j5VwODZnIgNM2mM5YNBubZ7/wX/7wbobjV/x66QufUxj2Or/bXFyKqIa+KHcIb1OvN4JUpAGSC+U46OtIg0q3+f2FVpvK3/pbVDNDYbve73r+ntDEbIjrWGpWs0a7li2ohMFBAcrSqJgdG2ji7KluqwjU1liEMd6+5m5Rk6pki0UhWHEFdQoz9QS+G0pkFDHT0pPGstury8yX5GqvpYkoEBuKVxno9AZMRE1aUn5GRIrglfT+1iacBaR2WD5VXSP3FJCHPLWuhbA8z0FWVkO6kTGNyrE8yO3nnFLBJPJgcJ8IEwOkTRIrdxSSZYFQVKWuqFWpK6tFURY3I1MI2Q3JTKAHh8M3Kt/3BZS4rGd0LaclaN/R9Z9S+L8ja3AIiLcamYrk2QKEtC1p+8rC0upLX/T8wsf+5JPhN89fl+UOXBkgIoxQNqhTP1yISIMqGjlFU+4afjfCpRQycNapxic+dW5S89n92p8pqBmxSsRZAMlAi1X7HZflrmknooKrpVZ7ObliXpUd7qQhtMAChWxEPOjiJx2F3Ky8IDNNkchmBfCwHBQ4kOuDCyQLQVwAQi5A5ZQmgKamAUiZQpoU1WxZvEdDE36tUM8Oa8NFTfblrlwfXX9dvkpDk1Gtp7MafguSf4ECFks0odKpgRgA7HkBV0G2iEyGosx9OJSJTBzuaY+dlTUZiYLpb3sCxg5V4QoDPZseDI2ASJ8RSOxh8QjwuA+lqoBAGo2+QFvTX4RnzNUWtV5lYdRxYXR+Jd2nqkBwqAez1sOF0sIgAOmiNlWSJCH5vhYAGoUPvGjoHFhURDCPNBbO6TjrOsJ5geC2rJzzAo8e9Xd1rKJAGusvQtqQ7+LQ3MhMllNBxSWjKc5cdHa5JsKVYomIpJtqdd6DjccUbhCxwCqxUEpPPGWMusiy1ZlRki6sFkUApFcYaJLmdUSigHFYItMizazgQwZ9mdWXr0KMBmRVRU4iIYyVO0WC+nJdJMYicXBhsR2iLW60QIXVPJd1l8SP0CYT68UVzx2OnmRt6WGY/OYQBDR9TQ5yRKgx21cLUXGJdjdOlIZZXdaMQlqZuhaLP5EeRV9tWSprwp2GBCor8uTqmsD1gqIY4ogq4l64dyWmkI6hMzJ5a4JEFpFDsQLeBQldsF448QkRDohrTVjcyZEUtmh9J5rQoUUVSIvXAQgovzgS0BSlEqWQGAl4Q6qXsWe5J24shWQ+5TTVdH6iWp1AiRK5JCQb6j50xd/UdD5K6fNisgNRWh9lGwKMMyKUeb5nZbWd2QxXECmzCp/KupPLqHsfpTLFnQiQWVxMrmOdVMoSw6Lcmb8u5x24IiwRgYg8lcm0J3MXMzzvLWLhEZMwkXleUW27h8TdSksNCfz0Pa3K/rtlEGSPynTW38jsvbBNt/dRVyvbZaspoXNbUYvE6nTSdRiTCdcU7+H0dU38ilbnTqcj+bdEcjoqHI3FXi5vQD2MqoCvFzyO3TfmNV3oo00mRCUNrejYB7HJRIuQrVwPARTh0PWNjew0RK3mkYtbQ4Jqci/JnRLJki0LuBYEti3dn4PKV24LSA4NJAzTJG5hESCIFYEp78XWRVE/c3tRmhThMliwZTFwTPOyOoUKoXPwhhc3Wz+XNfnhO6jjBkCNhTKuj0t4mX0QStZ19EV0ejJjNcpF44qiMAMh65LC2wIgWRJU+XmoqhCtwGtHJ3e+0BfwyPLY3s62t0Sca1yY89G9ZbGgb09dJDYvCxQ5YTfwClc3bjFaGdXCtDJv/rqcd+CKABEZIRPpPWR9asCJKGTiuFGQxEuQrF7JKbyLKtMuQkRtorerBpQmrWsQIXJi8GjV1FLp3Jut9W27FMcffvCBP7rn3GXTh0yLg1+UoyIdhwRkAg/3hNH5QKAWNJEdOtXX9nZnvwIXq3ZNpjbWh7ONIVgpEQBY+poFfCICQ1QV7UDzDFWHXG2ii4AUaDVqUsdS11TWCZoZ6qh0iQ5pku/YBSqKaIxzclc43b+G1J3ttvgW3eNlcSxtTf4FRTqWdKMWBMJYL+ScaP7KQqHcIXCi8ij2g8AQcRMiZl0ZHqKULnDwUNoegJBgVccrZ1uTXlaT4I7gtGrTCdiK2Y7wG13MVioc0tF+JAkTGBBNUZRF1swFLBLJ/jdIU9A1dqQh6Wr/PYHLztauk/qmAhmk8IuyPokQRXFqcckCEtwWEIKfeyJw8z40ABiWnO5zQdGfOYhcTgRhbl7m/T2p3Qk8JgrNDj3YIcGsVYhaEi70SzTCWZ7yjQUkaDB402FeWyQRUGBlLdUV2dHqiWSaEDCBBU3AyaG1G96e3XP5Go/tbA1vrR2I6AOrLsAwkFVQqzezgUKwiKc4J6T8lDNk8ndVd6OoSd/tdgQuIkZlfrMdtTWI6rgSvfUX4gSGPYMJ3AnvlEjegyfS/Wg12w69ViT3j6rmmuAK7bq+CuFZdBtiSMkZGvT7IiZl1sMNiMSkqjqfUbq00wWayt0RXSGdSoDUkuYY+T3StEmKojwfTWAI2ANyUVS1TQMGAR1hWgEV4VkeDhJ/7gMWhsReKOxG9JKRazWGc9GEP6smUFoRnAZwQftkD+cF/Bg12wALFhZPcioBmiJQqn4sIJDVoWvBimgvL8nio9+vIniUykT1C7BiecAXqU4MhC2mSLRWDn0MRPCuLEI+t3H6nOQ5lWX98bJF6J7UgL/KPnRFgAhwQJQFBWNDtShsuTMZEDA52zNUQlgnCJAsHHNcNSZckQgHK6VWzooGEwNIPGq2A8Gnjbd2NWULhcvGh9x2640FFUWabKlextamZGQueESx5Ur28ImTThBkUrAiYjk1ZGqvLC/odzWxEvHaqLec59OTX9/Z2jIYLi8tCjxpcAXxqaiK7kFRVk1fIEA0p9PrGIhYbdcLG85gXVhYkBkvIMIFJNJhVwEzXqpfuQEUSF5oKgxjLolokUhbcohkdfR0rze2sJI0jeXuHMf6Eb8jlscT0Y21bPmFuzAWMCwKdIY6VlVJbkRm+rr7DfEsewoT29lCE4P7JXJV6CPQ7Puzu1OJyOTidKY7fn5T6YD2zCOhJo0WmvQF7qmMAPVJ+KrIErOFl6q746JSDwawdU8X+g6l9pYun6D7SW8hXNq89kgdbkqA3RGArZ/TPVtYynY3Tn1IpzoP815GILsyQETooDDgxNW7CQlqUOWTyc2QIeKi4mFkhnrI8gpZd/i+DDytZiJY3UZTaxzmN6Kmybhz/Nc/8tnLxocgiFIlUWvfGNQM4ECxKKADeanuegrvRjuLHa2c6+cuONxpTQj1YzXwb7zhBmXyLoiAXVKn+F1dtzJ9BRbsz0pcXSHtJOgru7DYjLCn9klouKvV9eSpU45IMfmJPiy028lKiWPQPNvRHilFbcHAG1TFlzj6o0mn68C4H8jqwWIhMkZ41KSuiNDoGFjONjqbDpFucJ1a7NHy7MnK4PywDN3XV6RnnHHUJKHwJEB/QWKvklSrWEgQrwAs/K4LJjpgBJel6m6a6LgpEKTBiUWSHtcRav7oEAjiEjbHwkDkB2C4ZSbtScfKMRI4RlElCc7U+/aBB4+7Ch5COnJypuXa0k3XHS08+PCpeZj3MgHJFeMfvu1Vt99920233dZWrsyiBjsmNxZHW4MIroQTdUd4Kos7fVwKCaslI48mmiwzKqm4hTsgs1mE6r0Pn5RLMLzu1z/yJycv0z3zbgQAG5VKY9lKTSwmTYDocxKZtZywJwJ1UXkfsDNPEvUvWFkhFMuanP6swOXI4aNZo6WJzsTud7SK06NG28t6qApI+HmhLYvFLTPZB9Ep+uuIhOzsGghITMMtagh8AJGFxcVscWHRqQPgGyUMSV50qwr6xHjeR/6LIx3wLp7E6HIgPUnLV/6Rzic61kW4GO0HKlpjZgL0ihIOoxJ9uKFRsY2eP0EaA/0lEaoAE9aBW3OmthcuFylzCTAgQgdyuFA0YWZ4L3XWC14oZS1z9wQUjBFUykTJXLaRgkV6+OfW1zMsxYhyhV6H/Y3HvfNyew4fP3U6X4ku57C4Jvd1RVgi3Pmd3fUHquXbb4vO7pGTgTnNhKh5ckYvFJf68wQKHoSB7oxN1JSACo29HTIN0q1aLXUH48JlzdrlfDUJSdGQm0DdTxGl5I0klSenh6NlVSayfZGOrKRwCl6tBTxluRwKX1harnw1JGPZA/c+JLchSghCvGI5LC0vO9JQa7SijQQTURNme3PTv0OsMimXWouqQyLgcDtMpceLlDy/fj7rnzuXnTlzxit+S+7BolwgOBVcq7oKB7HDnsDH4Vz3hdHER0yqCeqi2QIvznNBYG5pP3yD49RwDiEKA5BqAn+XeoKzsjZDF0VYWcdxviMlInFFJZADaPgZy9NtPrhNroLvJusGHQRsVsk6qoL1Q+g2eHF1W5VVIV2ItiXHZntnJwxB3ctdtQOhHy7iWQAlF/zlRaZ1vu7QeU3O9qfooq8YELnluqf/RYHBgy1FLxicEw26PE8jamdG+I7RXnT2KSsU9rRWNkKJll9r4JIej+Grjenkrio1x3/1Dz5+2Qsya4WlQ5GOHaRoNGJiAkRkid8gTJ1H6lAn2amajxhLOrehwEdppVY9UbPPZRDDEzJpCE8wULbqxoUdT66HTp42cdxqyVJbXlF4sy3LTD8vEfPAkpCKUyty1GGSCE2uzZJqezghDT5Ek39bWcZM+jOnzzj06crw5j0UuRGgECpfkqUDSUmfH8CasDTAMoSHEEjgyrmFA24mVol9EhjuqEfiFhFwKvW2hGNq0/F/t/cfQLLl13knmGWzvHm2fTcahgBhBHBIggYgAJEgIZAUqdVO7Eq7sbvURkgaTcTMxHK1MbEbuxuK2I11M4oZGWookMMROaSoETkShwQID6IBkDD0BoRrtDfPlK/MrCy73+/7/v96DaDNe6/LZPe7+Tq7qtLce/PmPed/zne+8x1VWXb1OUfEVSHy2BROMiYnMM6Xp7cBDhNpmRtjT8YiYK9SyIMipsmB7NK+QBqmnxsCXAGNHxP+NCVejSJN4SlyhPgjp0jxERAVcUpWuWPTjm5Er8twneZ2RGdgYJyIDGQduogMbmhLX/6sAEgAM6oXMA9JV8xo5YODmxCBuFKDPIBwfb8mFxovxJCfvHJFgcLIu4/oXH3DZmToshdVf1SWHd/VaouOhtW2Agp6wi8NhPg50jEMgJUb50LplPDe+hzpI+E1OCSPDdXrxp0GRCeVT82KzaW/viLey9VH5CSjek/Zcx4sZGZaQOu0SrjT11oG2LaJXRjrsASdLnp7BwJWcTiAtpywvpwt2wc/udS95GgCAh/pwYxSIb6DtoSi2B8kuYC3yDtuOU0CqA07lO5c+oRk2HpvW5EUBo5TJ4LxUHKAqwKY48ikVOkoTVIQqlptuCJFuocSHBFHV2nPJlUtohQtGJv6e3V5zWnSmI6JihdDtQF3cCAZDJbPkg7u4FbUyzN2UxXpZ0xcPY5r41bb5sA4Ea5mUnxNRBubpYVbq/GkVkSiEOa0gthjRCGgZVQmeACdpWAiVC7I17lgNhnjSOIwdKCGu70jL+ddPHPOWrAZPiXwUiVLfrpHpOAKBgKxXh3vGKNoTDILccvDuqGCJ2J3+jDsdvvS/WuhIB7n9ewjBDA3JZMWjcpRyG6gndOv8uTGkox7ydsltSK1WJyfsYOYUfoyNSNuinKvdOjC7hTWpDRjTniJJ+IhDkR3rJzxlpwA5xzaPfHenqtIlEiDL3DjcR8LYj9KQ/ieOPdECZwDFvpov+BJkVSUo9DrehIOwrBJ13BgREUuySr1GVY6CJZB1LW+uW7+CakfinRESl2lKLzHncU4YDkNHFYV467pCo4JhzzsUnYiQRxaZgy7JG9y8a1m6Mf5eQfGiehiMNHQqy9EJ8hbFgaPIXnCmS8seJFUDSCVkUMXQFWWUWX0WCmvSFtTXbsSHzz6AVW6HM+oAjTl6gUrqyP6COcQjRjEo6mOFVJPjjNPmlWQ13L0ULLdzyGOhowOOUi1MDsNcAXCDocUIcChp9K5pJ3MgXMCxMjKT2Q2ojKsO2wBlAVAbsngVlbkVACitc9pMTsnxdGA6DahahA8iwkxWokwoJLRBDgqR0BUAfMTI8SIsz/SF51EORgwD4SdeB3OAAxlW4atkdbhc6CfQjlaWrZ2es5yyiQ9MC4qNJgyvhVimo7Pz5tmGmzGRg/GpeiG4++pyxfhIjggrtLppbuixWpImM/jgWUeo19CdksENUSqRqnfIHZmBbNT2gzcYtCkM0fqUwbGifCpdC3VsSq+GLd0cTBOk27NNlocBlSzYks7IBcijVnGQIpupy5CVmfGOV6+8viDn/zzp7N8HuFNQfsfDg1J7UIrKiu1RX/0j/AbPCNc/AC/I3AbPK4CQm0o7TyJxCGMTwBG6PEeCap/UyKrcfGnERH8J8ZIegQV3a6EaAJuiCsa7IhUCEBFr3XDMPiC9qm+FWuZbHday5vMIRZPQ3SZCTk6qj3TM1NyYGKtzsw6ggl4nSiClMCzcL1/SFtCbsQ9ActIcxsaIEpXlIYY1KQVQU6F1AjWKpEFFRXyNxwl28Q5UcYm9MLhAn5at4T0pYhJca72hZvgFNZVXXMFyYA5gHHp5taoDRN+OS+kimAxFkSyh3WnNJGKIw+csNO6jBuRox6WgyqEgSO8KG7hTQ2ME2FVVyemuSIOUblgCmZXAbsDXRheyUo8Oqoqh5XChdpTkQAnwajghqxtbvTPzd/+N9UofuRf78HotBqLGX2pvF/0c1IoE8x0dC7xWvk4FRqDw/osxmyYlUIkpcd2OWaXK5VyCMwkqqJE21doT/t6rUZNEqVQMibSYXtUQxQRON2hNZ8qj7fvZf+QWBZNdxxKjMltMMxjgcMiAHpYdPyN9Q2nFhMTa+Zd8BlghZIG4ORS/dU5VmTF8bkTNnbqdv99OTlUzYjGhiGqKc2ApIYnIwIYHQH0VBTBVFE0bjkXdGTzMQAmLGMpR1eo/7xmu79h8JZ0lT6pWrZ3Vud6dJwzpwSCmrfj1BIeis6Ltocz4xyBTfmU2XnhvInexqV3tEuuh35RczuCMzAwToQCBuGr58mwOhH+E+467M8sFy5eizW7WoNhpLRLyXQXfoJWuF6JDKYnRtc7u8NieB3t7fZz52RhI1MYFI6EY+aKToQQtqmDAh0vEdK+y9NYHoauCgVRFKVaVStclhZvY1Mcj4DGMEXFkZH+qHkccihdkbVci4IjQXnGBiNDRAXMHbFq4tP5gp0KVjCm7dbxl5QkwFp87szn8LJs5wZbFLxhF1xF7ffmaDD8CySCj4HYkSInqic4Mb4DE/8EJOOQSLMgoOFAutrOyK4ijXJMyEMSQRGVea4NpDsD3+lUZr/qqrZ+CbqyeBVHJY4uS2cwrQKkrebdcEAB0e1MtW93/bolQs5XlRmT2XCzes58F51PCH9ELCmNM5MZFbXtETVZfFLf1uuO9sq4dbc2ME7Ei6biVs9n1e/WEVGISrmRyIOLrwKPByxDxvqZYUJWH8UtrhhW/Y4Yml97+Mtf+vQXL7H8HOntYGhkUSXH6WqoBlMxFP4hguRxCMnB/RhlUTuY5P04u336elwiSF8QUQrhPwxMOwd/OlTeJlJZcEJGpCaHYu3TGMqwVtptGSOGCj6xK2yiKxDU5DEa79xVjMShjMiOBAk5HDTmRkUjGMNe4V8YzJQjwkrRGQFDIG0Mh0P7RadV7xxSpEGVBtDKc2MQG1JUQOrW0zkwTuRJdIq2wDDkpPjGtne0+EtT1iRBAFh9fnAUHJqFqHCW2g8RnsvjchhjRJhQ4fX77g79RICmOAmkFXu+BqC30yfQQ4ZBjFxSJCeH7rsBgXYQomMtEhMHk+fFTDrS6+JW3thAORF90WFMy6hgruIrAAzJ4VmVuGAAUrkYKOda6YzVX68jye3LYPdlxGIw7txz26v+560vXjry77a3tf6FyWk12DtaIk8PO9UlTjMqWVhhRur4MAwAYaUnjgBKGbQyQY1tgOXoYscZYEQQwcABvHp61VYFAtyHyEfGgkET2LifSN5kbHyuaJmwCss1wOPQOcAhdNQ3EnX2Ak6T/iDOzPbscMMidZJINkQZVY9k/oyej+pCHKG2ab6L3uOpgkqJDJDqHR5dqq7pPTXfWbvVZA0djw7U5Wp/OxhzEXi2jwVA52fkHRxtOmCjQxiuDFUZNHcVJRkTIpIBm4HdGy0CaPJ2xEafpYqvKM6arwlrivPls9CDRc9NMCYxjecvLJ5ZvLyyvHLkF8gtuMEBciJRHLfhleZio/sKiRHpIoSP4jgrO/0wXNgq51GvcXmRObtYFxqt49uqGqwf9fd5dnFR9IShBQ9zKqro7INjxBFsdAifNTtmWo1xwkrQ2CAvn6CnRq+Dhm5ZYQ6TqIPUh8/mRCb9LKyggKaAmt3euo18UmArsggApcN9nwwDrwiZjgCq+l2Q1XR+oNDLWCfldGh+y+ze8GpIITxGVI5mV7+3FemwqhPVjCKYRGxQAEvDUpY3KLNpcCAYPWVnRw5yHi5TC0B1lJgUM5EOnomIKT07UvGwq8opk9N0NMMZweHhIAKU+iS44iU2K6JGPIRzcaRXqkWO+OL0cLbGbFRiP5CmAE6NCGZKgO+OmgKtasfAcfZRmK+erqhwa2e/94A2/8ajvkZuxe0NjBPRqn4girtwEVHIi0Qi4fAktGvyb7AQVhJKu6z8VgIDgIOrEKEf5ousbnRaj1x6cm22PX1k2iHPuDC0gBLnO0V3Ry0RBCXSaVU4JqenHaK7JGpeC5Ui4QXGV3WxQ67QHy5/ApCWCEomaap+hnCTxqgcS7qg0Nx8DNZ9lzCzuhpLISWh3V9KYqQf4Cc2XiIkVnbwJKIAORUea4sAxkpNREMkk8b/GDxzXdzhKwKayVr6m0jI0YidSaIQpzS8z4EKfTtJdSo9HW6G9+/tlnIu23d0xhT1VJfMLvYvEXhujarKw3AyIhY7FX2ekpKQ9OxSXqZcbk4JjoPKVPp7RsYUnaiCR/+RRSG8j2Ap8FCcypm74nS5OBPO8cztKirfijZ/5J95YJwIn4xLtnbtouKd7jCuHaOCjlTMXHUYTb6dHhuudEJ4UH+M4OLi1NX3/eZnjtyJsGutaGNEQz3NMqFseXb+rNmVXki9Wida4hjBIcBzSAqQF0yIjUHyWbUaU20CcOWfP5NzCkcFZEnGUnCerPIAp+4nciuL9+cIyBUMjJ4eldSVhw7GFWmo5V/b2BRGArtzAxFo7XjUcoxyKpRmtW34IYhAjSh9nD4QhoKxCfvw6o0DoeDjJT775P9BefisfM5Ej26Yc+pEihkHEa5IqkSOKvmOYKgWL2xsBoeI69VnY9EwoAxASqkcZjL4SEoxZtVy3FSkhtsBexkaltk3GTXBe0zlxyFTSrZLy7Gx3+qoVdJuX1w80760snzkLRFHbqUDvsEBciK5RMlpCa970gKhUrMPocrl3hCvzDcw0Um9Ip4VR27NxRlkf2VtU8SC9o8ex3mn7wILphV/YW7BVHJWe0JqLmJTzJ2qJBoxuEc1BUPDaRDuJ2FxKMNrPSsXZ0jFhFPgfpbQ4E3hxcgARHmfjVmfGO9gSr14G2i1AqTqXK1urqpMLEUvjkFRAarzw9JhBUvCpHsSNGabfTmUrjRBOGcBDnKc5qoUDzDZVnlW+56UNLyFkmX8OAI0UkyCo1qi41He6O1j0CHFJXIqQVMqVfhCDkHnBNDVblNkMQSOrAXC3+KX0EzoahspTenWHm9Pp5NXzsRplyOpYEmWWoTyYU0juENgU6RVpIPROMmsYoSu6O6OQwvGPSxtxeE5/Xl0SlXHcdG9BLY5ME6Enhl9+cNQ3ndYVWQYlE+5IN0j42oH4SwOhIsBjATmZFa5TGUb1piFia3O1u5Tx3HulcrMq/t2Ykq8DrpcpYKYVc7krkQiWYL9RHIeuBRUPwxlxEhZIeMUcpTupcFhliUbJ8TQLewuQTrVEhkyXAt6SyiDIsqjl20pIorjkhqZOn3p5iXN4l0dNEo0+AlcBnbomBwAWMOMDNOrvF5DNyy/W4SZzlsIcfBJ5CiJCmh0g7Xq2bvaB233Jvux2tszJEIx29Z/MyMIAFyLgPVhHJvYGSKbAL+E7eIAOU6nKRytPgycG6ukOX3KluGemPQGmGpHlMoS6vFsQ7qaBYMJD8a9VB4TQXAUCj7HUJmzcXFOzYY7u5sf1xYbXORFGsvgOBEMRtOaSUfGKV961Q4ASbc4HaD5+rOUsFJtaTWzsbKu8Jgu3q2t1a/8zL//xJGXdtnLVn/jC4tnX+nZFqQtWyols38TzIp0AcaUtq8S1uMaqMKYw4+D0SpbHGIikzgf1mOciW9ODcAcymdz9EHzmsJ3jUtgBe5IrDkNZkgHICuAMlzX4CwEL6KQmZn5YuGonsn05DA6Sm+8H/atFd4yBkgTgH9IBQ3Dhr9mtXSMXa9zZEU6gPMoacWh5WpTJvnZmcZwYcm6p0ljNP0Yu8Mx+rviNAQoAQ4xTV0vYNwmaRyODQyG8wQ2w5tT5k7/ftog8BD5zik7+3F4Lq7wMFdHCxFD0vX8nlJGqkzwcsBTiFZdzNGbxsenzulbfZEm1Lx9YJyInMcQOfGWVr5RoettQlJ/21mRuAZJdUIH10VT3ISHVtmYkPzcPpicWPiJ4/pax9uTC2AN9KNQaXAqghmXtIRLHKUvHoD85Vyfzlw+BNEUpCku+IAipVQaHCNGmc/q11wrVyS9ge9g0NBux2MpnD7odcgK4jzYQhuld/FD+uqfWVq+FqnDiqWHRsu9WZ2s2gCj6BN4Yq8+y4g4N0QtDEVnNxZs5ld6TnzArqfoecDbGk0F04G7swdfxAB4CQ9NVU8kUhKyPGcPQkSWKpd7pUjoKN/jMH0aIuiULAhcKI7M+BhPQ6Jjz2AmnFYcHLFJrfDh/LTtsjcDPERj6Z8JFqNIdvL8wvzQldW1evKP69J5WW93YJxIsaEhcBAUs8Y0Q5boGL6DSra5EAH7cBgmKpDj0nuSvgjKfRLk6YqrsXQc39gdF84PU2GNhWcpS/4fYJFqEQbEqmq1s+JYEvangTCXfYA/t67LEGGzHkATxyEUjVBWzKzUbAcDL7k81RHSNoyA0rYOZUxVCZOttH00RmGN2tHxnKpFLn/rHK6vr2rcAtqsAlDlUJA0bKsSxgc6oDReoghK5QeIIsko0cO289DxVVU2Xu/IwwpmOR2Yb20+5Nzg2JyO4KRwbT4nwXrAMFI/0bkgKuA18bEpH9vq45h4oi8cB+N3CmsZRtwYLyk9VNY0QRiKYe5sN+c5gR/b4HpJqpU0uJSidTxi42qaxu6CHlw5jmvmVtnmwDgRpQTDusDHin0aFxkv5C2H98BwlBPLqgb5aEZjBroikXBB9wTwTbX3Hvq/vO/XjiU+9cDxTPr0FU/47ICCNArgz6tv2v9xLi5DyiLSJxLFMKIoOxxAYIN8IV8lHSBlI2pJUYlwHGKVS5rZqf9FwRxObzgnYBaUhAEcJ1W52Cf0F/8DfIO0Ylf8Eiow8/NnIg7d3WxdvSISHpEG4y6UwkyOIvbs5TzCSEQ8pCR2fvjrEjnYl+l8UzkB0K7nQr8QmaWse4227i5bjBbHR8mbFA3GKecGwBhwljQQUzdOlJTHTkaHA0elzcxPXArVOqdERDdpFEyQSupTzhBfD49TTuZ8s0XSNBw9XBQcjp1yjlUvHt3aXvsd/fJXbhWDP47POTBORFfIDOg7X3CdLcNVQmRiII+Lg4oEqDwXhS81/d8dnRngvbzRP5aqTE48y2O6P52T+3iywtbVzY+VFQ8CFIZDRzEX75SYqPsyAnpjqOIQZiW5ccjhi9otNkVJbE9DuAEzhzTa0i6GCdmwNgELCdNlx7T8G5tBV0PbQ9wajGF8eMIr84hWZjqFSf0sSag85dz8BXkoOQidy5XNZSmnLbfW9doZHV9bfA0cEikiFHn321AyrekXGAMRIFV1sAb7TbsARxKHJd+C6ZgP4tUfqw0gnvOD7gqLQlAu415ObRj7yXZTlvXn9zni+89x8DgBiWYm2uG4sxfnlD8cAVqbVe9yhYv38ZPj8HfGtnAocejj4zOiwK8eh23dMtscGCfyyONf+VfTU28ZmlIbN44jM0Ui9kv1Y0pzTLysc3HQyKWKhyYeKFqJatby+lp3ZHjv6Ft2y6WAHanBTRXnXHwuNZYKSxa1zDvZ6K45xZibXfDyLMEAz4BxWVcvpN8sIyUSVTAgClwC/sSWog8UxwASMSOIUkQiKROnzwRwlZIUE2CmpQ3CtiC0YVxdNfKhLzopXAS2KsfnTlZWdu0bZwToChGL4z8zd8bb3xDYuqp0h/NtUSM5OiQJDLiyemOo/MMX8DHsQ0NbN2fE3iQYh3tVMHuqKLqzDR4fkd7LgUgnkAKDa1BxSvThqExOy/0zVKp41tGCHKkjOZ6n6Y7UhOyKa6FwSLyUJJJzG4TdTsrn7rSmf4dzZ+9SUsnqmlzWHh1bnJ0dXdnQUJ7mdlNnYCCcyN9655uHe/3e3Rgqg6DmpPfJBPl56V346nD6kLCYC5OHdkHjWcH1O++RGlb3fR/4xJGNhfjms0kBmusbY4x6WWjqGPGWuBm4N7gVZ85eOAT/ItITvdSRsjoTNW2rcxatDeMLcDX0GM1yk8ykUYl7RIaclCLhuMeE4nRYVS0hIIFijUbY2VVDm5IJxilXAADOFklEQVQ30hu2u7C4aDUAxnOuSh2MkzOhFAcKPs7Es+xs6DI6mYy7kIle9BzqbBtbmxZYNq4i3saE0iI+H5gLUQEREI7c/BKcgY6fAIkIAa4Hn8Ndt05JQg4kA6ymjSfAH1DydjkcBqleSEwWBi0OK017AcDQXMFhpsIC/nWgMMRiztr2qByTyXdEsJTIOWe+VuJ0OE4qV6STiD5VRfn0NCW60eciHirNPTdlQ7f8mwbCiUxq9N3C3Ny8dSz0lVgjRP8YfTgmNS43sSEJYOJQVqkdlXdZXRAGhoA2PTmmuOT4bioeUdoF3k8+DZYB7V5l3mkNRfIqXsoalnLEaWBAXM8eK0GJNVohXPTod9BmT9SR1vXk7sEPCvGsYAx+rqY7yqj43G1xPfYnIlq9peoM+6P1HUYq5V3m1bDvzc5G6/LyJT2myMJ9RUp14FxgVNSQ3WpPJ6xo8Qgiy+A6fTXuyQA39XN4R0xSfVZzduS0cVZEM3TsglG4AqLNuMxcjZhIIBmfIy5HHTgLHI8rLshD4mV4Cno6TqEMJRPY6+hEXoPvGVV8z18mveH7129EemgOEYMQ8Vi4iJhIO4EewM1OysAw+1VkZ0eSNLimosazxsanJE0wp5c1pLObNJ+BcCLq71DEOTw8xZAhXxyly9R8iixKVgWDS4FqOM8zMxbeRHEqjz/99S/f5Dm4rrdpP7Ncowb0dEfBC6VxyEwuLgKaWvwm5CcbEKmLnqNlHSObkENcWFwIpuLMjNVxx3qyrin4/Vm5cTpeWWOJWV3J/Ut1Akq6O3thcaLMbsth2Hcm5o3JYaASNqWenhk5ub50SYicrqxecbrisREl4iHlAIwEVxqVEaNnApbT3e5qop2Gam+pbV4eiel44CruPNZxYMywVy3JoCOo58byCMauSqSh7ToCcbIByxctkMhg1jSJ7ZB2WHfVAY9zxCQrTl1I2cwikVMLfkJH8oRm3YwBkrgsrSqOU64oMRtQdVRUoqEALMHVOLf8Gxoe391zM16jL3JdlvCtLxoIJ0IePjU2OcoXPiLAbFvI3aSwESzDTVSihtqguFgLaWlIqP2I3rAu9W/hCZuvuPP1/+tW62s3eRpe+G3rnau/Mz93O70zvgiZSI9jiFHIvSm94LIlnA8InIoEpVucDcE/1RZesyvN0AxaCqci/Afa6ZOq8T9Wfn43HsD2KKe6SQ27ZWU3umgRZDABwEkMGwcRAaIYT5UhgK5OgyAENI6LSXvLcig4E5ii2BfcEyvOy0An4OroPdsI+bQRaxYXhVkv7hMqcGcFvIthOkWwBwh+4nzHR1E8nB6ny7a4RX+uA3g//t5h9cJ0LVwT98Ik6ks5mfSLSGZEYzPEddHf0ObHFMkYrKVPpkRwxDp8J94wzovy+zc4k3w/HBnbGxlrLzSksxe2ged6xUA4EZVIpWGsibJUGBSmb2o1RSYRzsIkk/DIYbGlYmAByNIzMiUMQf0yG2pFPxZ+SD1xTLvLhReGqkHSMjg6jE5C76yuXLGutshgrH+B8pqwhr4o6GF1FoEl8ygoo6b7leDEU+4P05hwTNh2/hejighSsIionWdltYNCl6SE/SN07ZamPU+Ck/Ny2iXntzh7prU4t2i5gc2ORmrLADs9dSNPap6NIiYIdbBY24r8nH7pGHfptgVPcWpSUgb/UYzWaR4fwofi1Mi1GRiofKYCDgOW1mZBiG98GI6PyAkn7M5bqnJEWMjFcErtNFLON6CDUJHe29331B0D7R6nqX1RgQ4wy1cRR5G/E+Vwt/ykO32JmghlmtvNnoGBcCLKh3XNjAwz7hAl8tlpqVPpoub3mluzqFVyE9dCe6gnWZwpVTP6rT/58p8+9asP/HlKN8d0U0g9mu7QUunAEaC3gdFjzMXArXvChW/CVVEz1wVucNEfhrDdXMuUh72aYyhsA0o2q3gxLKczh+BCDMIWyrvTcOjWvcLkdPDvCgdBi/RI+us2TK/a+kkiaAlDOTQijhG10I+rQe8Oza0BZFxe3dCAqxUBKenDIf0ygCngdZw0B2yB5rsSW0ThntOOdGFh46bGmmPSe5xIuDrCSEz97YZFQFEEh/pKkaJ54gXEztQwiT8hv1tGEU0QOw1Ktbw/0UV0aIn86HDmPHEo0oxFMLtES7zHjph/4DmWEEDTJD073PRex0zN7ebOwEA4ERc+dINNyXWANKKwVl8oGVlA+TAXCUZWV+s9zSkB5Ds7v5Ar+BhvutDEvcrFyM1pFZehHUuuwSD+vpJLNZoQXe8pNUscY/LxsFFr7wzvDR2cj1hDrlC4WUKNl5RFlL8DF1QWbHKXPKQqj6KPnCOtshqt4GhJ568PwU2RkTVh9eItiQrtaw6My8mUq3UGFxfPqDt50ZqvXaUvV5fWvR2qTlMT6qbVPtxdy2dkZYeZVghgYBHgKFYs82OFEOYKSBzhPjwORmsSsFDeFm4DXkRkRpMdP30vnyUKcNkXx2HMhfEWclizGtLlJj6OSeBrTet4L2eS9JH303PlRyhBOyW+FnT4/OJ0Q5xvbjd5BgbCidgYyypMZQKSkGBzr8hcXJNEJPruqcKgiLUnA9jRANtuV85G0YDKmJAhTuQWSYLIFcRxxJF40LWtOzfjHKWRjGiBZ5gPk5k6tZmwGiPRSWFTkuNz2ZscGwfBZyYKqXKLpnxjrG5SKwxOQEntk/OF0QKsOtGR7gZ/02bf0cxaWvGp1HC+IXYxxa5fIqyxUYkrwHxVdWdSTFbATrAQld9V4XnKDsQVJZyRG+fqNxcnSMUGLseOokMDrSXNgXYPuYzZNQaHi/ZqPBFftaotcnZEP+7hQVvEbQzwXDJyo7YOWJSKSM6iVDnPCFOlVkwJmFhN+1bDIo5edL88hwIUDjm79P84Pjv9oZGZi4tn5y6tyGs2txs+AwPhRGSECjRgAsC7yqrBxWaiU6LlzNslFHXnmy4AXSyzaFtwfeztT/zH7/mB9j//4APHJzATFhNuoziJOANyaprtYu3FmEqKUgorJTpJpMEibYZFvaB5G+8r/THeCKt2EV0CT+AcGBMyPhLClUcpeMnlvGSOi51LOT7SHVeKvL2UaKdV9uX1HXFIoMKrrOPPg/oZJDdkASg991WGZtYvjnEGxbbZKTmA+cMeHMhte8JRrq3qwYAOae86DkrMG6oIBXsggsh5Mu9kTjonHDocDkWdOK5EKzm/6Me4SIP6W6HHU9K1VAHplLkygM2ku8OWNxjR/Bz3yuDZjL2E0exZNJxuY1VsH2dd+nUKeVGNleMrnauf1pNvumELat5QxExP+USoyW6n1++sTY7PiuCZlZiLiCgjYzMzMBsdT6IQqhPwRDBcun7n2nOveGj5y7+tB/7qcX2Ua1T3Gn0AMLKSFVCTcNmGzAUbvCRpSCIXZybmgXDYdUXkj5DNLK6EIRmDJJogR9E7MJriIAKewCkBmYwzM6/ExK+SBmGw+ssRibvQcLImhQeX0L9JVWPg4Gzvq7mNiE//poSNUDXqK8LbkvFrBpAjElIIsBHEsYkmzopMl2FhGRqWFIHSc4SYvV9jFUNixJ4NW9THwrmi0RD+DOLsIEByxIpoTEvXdkRz8yCrqPrru6aKRcbhOaMpQXMePeNGCA+cGM5lrhjOF44lv9MdHBGiUv5Goq2U1ZMgOsf0b0Q1kQU4Nq7icV2WA7HdgYhE/smvfWzv7773O74ydm76zrLMt0b3KFlmbivks3GzU/UP5F0XnKUB1cxFmA4Qt703fOf/5m1vGfnFT//RsWiJHC67BVi1BinrWsXkyNcTRBzenZAUXMOOxBc7JueaRbkAcD68B7Zl5rQYOCwqXHYwhx2p2IH2AwhrG4iDCqcCIyJaKYpf7m7N87XJzc/plX2VxeGn0Pp/oAAQXMFUfhn0mM7pkMY68L6OmvWIRhAowqGAYUCTp9pk/RZA3oIB8ZqKGe1BACWKMOU8n9qdyT5ojofUJgabLmXwizhgjJq0qWDLBl5RJcMpANRaxY3zaqwozY58cPNo7BSS5iVnwfGQYtEVzcYLKR4aPrwezo1TLs7n6PCZ2bmR5Y3147l+BsLcj+cgBsKJ8NEm2ov/S1HdH1fvzJijEaoCuphgpJoHAXJvQlQIRFwcG1o5hN3b6O678xWveeSxr/7eT//4D//tJy997R8vLtz5H/7Mhz91lOmNraHiH4fUacqpBoBLOB4/Yc6GJ+FxgVcQ9BngXtr7Mw0uVaeyKtqZYAoYePZ36G7Cu4+fxWkZzy1K6byK15c6A3Zkc7OyGhEc83HSBzMljkvGWkCf1+wWRmjqThm6rYjD+qt6T1fKaOAXiCYfRlmkloCxrgzFVrOyVwo/DxB9hOfhW3Gw+3JQlkmwSlCMnMqPT5kOtc0kPUvCQ2hLdGb0iJqwy7Sl8dLArUM+t/wbbAbkLU6zdgk7yrCwEkTAHK+PNafQx+cZNRxfa2gcKf/jMbOX91YHxolINX1le3e/Nzo8LyeiprIie2dtEUcjKf5TSYTABesRFe92m1ULfsBI6xX3ftt33Xnu7Fff8Kr7W5/6/U/+lr66dx/V12cTLcbESpfO4jTjHTIgazRC5IDua9LxRBmlAF1HbAbcS/mxXtCVQOZLnW15mY0DwMoI8cELSsiRioaTpOJwCj/F2AjH50NOUxvcC4seI1HI9ozFIEk4IfatVN712Jho7/tUM5A2hO06MWMqPXwPl6ipKOkfEWKNwDgHxjM4D44m4KHIMXg0DFU10XzdcMjn4flMtMvHjseDiYqj8KRADJvkzEFLHKvjLMsPcAkILbLmLJ+RVA8gNZWskHprZFcKR64UH3qNIqYUkh/PVPBXqZ/8Mv3JRYvhqC6cW2A7A+V5f+rdb/783Xe8+rsqhfr83IwBVf6hSE53L5J+hKc4kS3PrWUyfSRs6FydEflsUqvqpqauPfLEE/f8P37tA4+92O/xznNnNIR+6HK7PXsOA2DerEu7RabAv5e0xsblpjOZNhwGcnHMidTBIbizEHNFLEhEKF2qN0QvMa3iKHAiOAYnQGl4GwJTKOmQ5XlY1WnUCypi4+D5rLpwSFTaLd+y9Uh5XH+zQlMFC9ckWAbpBmSzOGVhIOiVyolY7MiiS0RbJe5wmpVeH250I7v5DqeCTqojsFRICjpkR5jEyzFCiHeOHhivkWPhYPlce/a6NAqGQJbIhUFfibyGJZKdQTbalxzJONPtroVs3ovHX3CySyTG05YHkLepozE81jNNh/KXvXsur1xtemhu0GBK8HuD7zqml4+Pz7/3iSuXewyBajOSkVIhV3zJl8PJ4NrBQGNqXFRUF6Boi/Nqw2TowNQEmqStP/g//+R77z+Kwy1clqxcNr6EFqZU80txJB7/4FSCVRcnwXMYQcJtOwAEeGqrq80JkJb1N+/zymwwEXMq5Sk3n9QKiGFHOxSaynKKDNsmgslvh+Zaw3dTzouhxQGWsZX+DJR7UVxH06mQ51COo/tXWATiQGAgrPrmbOg80L/Ed8EIBxr7xhnnQGMhPT0wXsv4TT7Yodwj5wSHYYcZMNhOx42Ucly8T9/nJDR9YTTT0/pd4kn8DQdmWtT9KXV5TzBiVXHDOC0R+kda4lGie9JxgSkLvmSPlXPuYKlwcRyGleDErgnHNzwy0d9Z//hRXCu32jYGyon87Ps/eXVyfGQTE0EDFHYhK0Yb+jNhOaW/0uFrLoRi5im10I+KmNbWymTxKy+WhN77rdfce/f5mYXJr/zdd77x8z/9Yz+0cLNfLhej9msZgEooA1it9PW63UpmsrixsRvKsay+yd9rT41TGOMjhdLuiCJ3QnRP+sv1H3N2OsJPnIPN2EbvNvsoA/kQcBCJBngu8pJYSwZRBbg8VIfT39EcjSRAjim4BueY6MNYiiMbb704oFRi7CxrlKSfTNYjTeL1dP3yilDx9R2OKdJwmRcwCwJYRkLAch1t0x6gT6n2hpG2frb1czxEOr5fMi834Pl6yJgLlOHxCkC7xGcTkyjZU7HWXBp4MQCx7I+X2WnyGXIsBlcLyFrPmV8BiD82cdPXyM1eWy+H9w0MJlJP5ubG8oMT0xfO86VS5qUUieQxFzaMVoevrGy6hGZkHH2h/u6CLQZSIu5YoF5z57nFkfbw679rZeXyn/3nP/Ejb/t//8aHHrnxLw4aS4kTvIIGCzl0Ho46Sn7viCC/H0YkrIJwXEwoy3H5+HAKfJZ4iwCxZeW8xq7M5Z9oA6dEqsIjgR1tzOVA0syHIy1iPK5ogBHUZrY4lRpNxTEkGkEUG+0RaOYM9d6nW7c4bjsRnX+iH25m25aStmh/JEP2gdu6e04yYsguQycVs8M9CO7iY+FRHJYPluOLkVf2byBVHZ2JZTgU9e4Q+ZiAmGZD1ZKU4oKzFC4I0gF2psFKPDuYT+tDLg6QSlGJWA7xIj9XcJ36Jd74BXJLv2PgnMhEe/6v66t/kn4sIhEYkO7L0BdNcK8GFkfBY1Z9ZxlN4xviNTXNgQa9vad5LFqpkeCbnxFguH3mLi2vD/2jH3/X453h8Tf9f3/jQ6vX/c3H7hMDswraRyRhyKpWzTrOjTzbbMgaMytnLz4mGyINqZUGbyQhdW2NrziDJ9+JeZkVNMlQopdEFfY9Bnejx+G923JkWBDhoHQDVBJ1AKgWHILXRB7QG/D7iFBY7RmG1ZM4Ed3A5pno5pENTkOyP24WWMZ9KGLx4WUznhkcbkzKyzXVSuNgMBJ/DkcKSDrIOchhucenRAngYDg0FI+IUkocFqyISYJwTHR3SbnsOGRhTgrclWtdu5HT9AFnv+ak5KXc/Lsdq6PHgYrMr/v6POUXDpwT2d3tr+oC3FEn7+g59UfAxKwl0FwouQLMa4ABWVD5iPLqGQtKoD2RmysQMhCIa4icjtx28e6hztof/2c/9u43/le/9ZGN6zn/uVaDLBgyLRUOrjlC+PS4eBnOc+TeHAfG6koN1ZVvbM/IquuaRxwRjiFr56FBYiy1T8X5vKsSbIcIRNsUZoJhoasC1yGVjBLVlN8JmOBEJAJIYF+lAu1MdF7CuwHcjFWZYOYZNIj96PW1tAT5j+PDOUEi43fT6/XG0vfCWXL1xb6epju6mDMaFAzF2AQpZ2nrHwOQtXPQnnQnzhplYh0nW3N2pTxtx1mddkrNpc2fT28ncgjdFqfAOU06FSdRzo1DNs4pAKu0b60BU7AtPvcwteTmdqNnYOA87899+LPiIfU3+SCZDaK5KmIuuvPSQ5EyTY1WcdQ1hgT6hUwVQDE1f+XJ+yIZ6QJCvIuVfVrA3BRkKqKa0cl7l1ce/+B1nyyoGw4B8g739pQ9evErK35tvqsUbvsGO8G8zxmMV39W9uoO6y9xOvZVJkUVHoaBYvZXlvsEPhEQcvTBA2UE5iHNIcuscSNHcYmQ+GclNfRr/VocbwIsOzxSBjvmkdbG2rKwDTkRb6rgN6ruqJRhx1XlKhkBAbgLb2dcUgGj9NYoEkRycWJMBDWBpNJ5cCWFqIJKy4RSHqopUPHH3YFLSoW4Ec15cjikItZdxPmVkCHEFzsB4yE5fJ8XOwsXc+KE7UjL56q/174mviNAVzs+O5mc5/RCWZquud3gGRg4J8Lxjw/vPNyVbmpHQj/9QnYipWE0YwYl1ZoFoCIDr5TH19W8XHOmzXNhk9sLeB1Xv8bEOc1hQVdUq+O5i/e84T/78R8+cz3nK6gEi14uvLK8xRBryOMVPuOjiTAC7vKm4BQ1bM57Ur7MdQyPIwptkQQMUAp4yKbthHCL5O0GVzkUGYFFjuPK/N7sIPm9HUQqQD4dxcnVlTlwTlZx99ywCvOvpBp1yFZ3fS0SBUQzDoTgqbATxlXCPJEDAPS1fae0XOUBcLTwS3y87JDzoepZ1QwZxWkUh3kwou/Vxas0WLqxkD8rgc+fjJ2kakURuKaQCQ+TtlUHklaEVKjYRcWhrD6P06jAWeHhOP0ikiqn63quieY1187AQDqRvf3x9252Nzd7aGfqm93sbkkJXXRrujsN13NdAt7pW9cCMiNdDHgkFvIFxVcIYvjOdppyJTUNrpJJMzLH9Z7ZuYO9zgPXczHoGHAH5WJkIcTgfNX7X70ovaCz0hUKdoDEQg0vgsW2almlc3lCf7cvgTdgJKmEGDpltdUuiLBtH44lMPakG5yDCkTGk+UeYWRSLI4zRLUKVAagKPZoDxTA8Rl+MFiO7ZHxnGKxquTrMrYDnnhopyxEVAZy6aaVE6C8qvQHhivvjXas+lt06sA36jzgpG84LoSmWBCc9AiMRRqhpHIlSorT4B2cA2QVUvJOepPb4e+lwc6l8fIZ4/r9zcWLg8MYI4nL83fhL61sDA/W3G74DAzkSVMb+JK4P+v9bUSD1TGqi60jtTNWQYv5IETliys1CgR2YLmmnZ5CAuGt7ioXRAQr8gKUjXEokxCgZGXtiYVX/6c/+h7NHXn+GyuUMAkvdgZASxhcKzTXmvAgUNW0GsdQrk6iCVr8HS1koFUAylzIGNLQMKpjcRBuYKOqouUfhfeUcIoTMz6RFCkOIJobdmo2wqov6uQggGGJMCq+wqelD6bKFdRyqGfaFI9SqzZdNePVAmnYpggyh0bucuthKpcWftr5p6U9Al8E7g58H7fm1+8lYZM/g1MVpyyKaGjT5bxal5U7nbqcFy0a6gAe1vmJL4jjzhAq7kQlqQYlNQmgfcj4LZ7EKUz5Ovw94qiqY+Sn0+DEec3txs7AQDqRX3ngD3Qt9R7mi2Wl6SsPR3zYTV8iPVl03fl7vnbAVWyIEBtGqwFIX1jokTDEmYudCzMX2pTSmwV1rWqUwvilpYdfEBuRY5C8aHfD139ZlUuKU9dDG8C1i9TeJkBv4YTYc3jl5Ckuc1ZhddvC1nRXYaoQGCor7jClTD6b32SvYzCSz+7kwZEIGBBcD5xMnEpChvgdOwsqK6QOaTKxsVixXQ6ASkx9D4+nVyk9SxDHTGFXNBFnUWjnBjYdmBmXSpVFTgBHzndjhwbOoc9CJcQKbPruKLeRGnFQXgM4P0RUDKMCZyE64fOzMuB0IrqM23fkoKZA80KMh3B+WTDYWpr3ElWkGzjgco3uSlrDduxkco9DKlwW/+kKTQOs3pj/8KsH0olwYFOTZ35SLeTyH5HB46LsK6UxXdsrWK6bWmK1kTlUJlzRJQFpShdJou7I+FGVcH6s/wDS5iSgfPvFe1/7997zgxpm+9y3S+sbB1MTc2+Vse/U3LvYai5aG1itBOSCrEZ9OAGOk22ewjPATC5cR1QYJS3rqa6ER1Ee91zLOIawXfFC+t3ELe/WhmWjtYGZfemvtqqouXlR70fwGhCTKIfjh2ZfnUoMseAwcXeJVPxBeU9hqdrGg1nseHiNnI6iDmbf4Eik26/zLPYImiM+4uIcC2/D6V7dZom6ODaXbzF8ojL2YQV6RVLSUB3eZ2ZwHFfYvxxSuQCc8nG8LDI8TzBRnLQDi2tOxfyWeA+fN9+4bhLSca0MrD3chG2f2FsG9qRpTsiaJsKpZUXcA42N2+ip5V+nxZwQiE8yrB0Noj5kfRoA1AWh1MWprf7O6pmVs0oYZkoaq2LfXaMzk9NTel5qPc9/U/VgXSFx3/yH6ozKqu4opKzAGSL9zIvZ17SPo4KfMQK4DFzMGD6drcUo/HaqTkRURB8xei7v6LYmjYNL4dHYVkCrKU5KzL6TDplef20ltgG6NEvUJl5GiV5s6sWgE2Hh3PI+emYYhuX3lWikgrKo9NMfZEZXSSnUzaRBW+nSJVIEi4oT80lItQebdTSTz+yGO8zbyktESjysRzmvDOkGBpM0hB22kdI8lrOa/9t/4LZcXs95tTM5jBCrs69fT96Zw8niMzbanryweHby+a+E5tlvPgMD60QkKCOcrt/tq328goNdYSQArITHW3R1Ek5zoVvZK9UB0pm0kxONIJSTQdLfEDno+qHfBkNk1o1KA/MvfGkIBkQfo1y0lTxVxzykZIgN5JQm3Uioz6RYwNRheB1Qsi3iVrRIWf29EuL4SqieHKMYOa/jo5aGPSpTRTox8EKpipS0IdwOsJkYlg3M7y/VF9IKiz0B+nIsKQEPl7GlPvZCdSeSsbaH/oEPM0t4D0yI/hbP/FXVS1PocHCIGcFeNUxKdKSD871Yqk8Ln8HPl2NzWUfSifm0fm0SClI9NEDChUn2lE/D0+66wQkzLa867eKQEo2woXwfYQMTgeV7SWpUwOkaeeGceGx4dLrXX/3CC18LzSueeQYG1on84ic+v9/tXP0Kgs0TMnQcBReSJ93LMcC+hPJuXYxD5iV1SL3KPTT6qVA4IwnAHMJKzDqbi4xUCWP/vT/65C+/0GXhtyr3CKhXw18uaS+ruUBLlBKPlXvhqMUASvmS7tak8RXsSyRR52LYYLxp3EGo4vSNuJ9IkRYpHd3LVEJoONsRS9SdthDGtJntMmmPn7wW2cNwI4hSQoXAkZACmT9Rjr8KGIVtm89TK0CM7NxX9IaDJikA43DJ1McVR33YRFhSy1o5MYSh3ZidSuJSoxJHYoFCHVE5AiHK4BgLgYxzgEORwzBuwYHZIXF+Qnn/BhkQfx2cvESElYSaWPFaOTwpZ4lGfDz5fXRs8swLXQvN8994BgbWiXCYs9MXf/zrTzy6wqxdvmcAViKOrvgj6I1sMzO2Aqa15EjkYRsnRXCXvHtwipk6x8cfQMJ6zWvu9XX02vtfe+f/7u3f942U0m++UmxPCqZZZctyFwJT7t5nWQ1ribeCeKGm14sY43Pyw9Ieg9J/BE8jdnRc3kgdbMlh6PNpJjFsUvsY/YPIRZcs82zgXLTHNWeX0ZjcSS8QUfbjihKYKGgiV0ZF0KGL0dv4ocobRwlWkygqztDVJv1Lz0uMsa1Jc1MaaKW9eLQDTqO3q9K7IhAccQKNTMNzumEMA85HoipXneyAsV2cl14pZ1Grqi7Zm8dRorASIdFIGb6N3ACRCxEd8gk+rEQq2Wio8I5xwFbq98f34tcWlXw7ouI0vKvQ87kFL2vKvDfqJAeaoadLcfX8wsJI1b3gSudi68mwoFvDkuQi5ULvMTpSVxsrNReQsYtSHnUFIRdI8m2HtyhlhUFx2+KZyf5OpUY+1ynUJW5YI9hGnV5HebneSuRc9hOfVC9nX7b01NBQWy5qxKYPgT6bhJ4oeE9GJCRSqP0mSXESHbgZTgYHJ8azbW3/YWNiR/QcUc1wOqBnGH5tsytl2QgdZRvcCPd3kEZ09MTfDNzSHCA5Jt4zNa45NGKgAljjvCXr7PfBVnXc4igLm0z1KP8KkKwN1mDRZdsCFO8jdWCfk77kRAZEJXGaHEicmIvEeqyM4OAv2zr7ygwek+eLEzdeYuyEe74Ffk/KGbA48G2JRPgcdngMJOs+9VxXQPP4s5+BgY5EfuHjnz3Y7HYRFXHqQvqxKycxJf4B4zP7+huHsq2Lv6vB2gJQND9WkonbmCN8El0ckgjwiAaX8xKPYCRjjE4QLoJTGhsZ2hHIerh4PcfFAmLn6sxhaZBL+JmrmK/7Usa000jIHz5DVjpSLFdPCpsUBwkTt4rlQEmP+jnVmlRj0p6vKIyfqnq45KrzQMPctua2OKXZ5a6KCAOesBntd29f4pFOgZIS1Xgs5VxVPvTvcPi4zoPHXthBxagqDsEjV688rjZ9DF6jJ9SVEPq+jNEYDQCQsA0Dnhh4SVHsEuzaYtSO1hIpRC+Fx5M61cdos8ybyrnzOcVJFIYub6nG7ypdifAUvQVQAXsKw9eRRXEWaTbMn4dVrmekNByC+rY6kxOL39c4ixs7AwMdifBR1lcvPzI6PnUexbILC3NumCKcVeHGvTTdnoZlY7i6RtbFbMVYKDdOirMQ/LEAnVy7GDTXEkUKGwqhvhivE2M7Hdnm8526Ry9fOViYnVhtj8+eTW5dUhm26zfm77oCF9Ajuy+rvSOKhCR+B7gGXBGnDmAUrpzoNY4iwBvc4ubP5K2jAl8qHnaMyM4qJagtNB4d4YIUOzEa6YiFKjFg9IFyO7fRO9qJgaVDV1iTcJMKCocOn6iEHfvx4YnWcme1td+PJSZlzD8IYe7QdSgWSjoK9LzGhWuIYwaYnZekaoSx2+ST4sTRwO1JCjTk0javL9hGiWriEwoJzX+wX84NZ4xfcsx18JUdfqk+HSY5NZornBcD0bxqf3fjysqySlHN7UbOwMA7kYsX7n2PSFZPT09MjFLapfGMa3tOYkRX19Zb83IuCDtPemL9sFbJrdZGt9ea3Z0UD0TDkGyQKeHlks0qHbsPJ0PzUKRp5O6NUjh89lM4Pjrz3ZpO/9jwsEbCla2hueFKS/EpWSSz6tUUw2sfYTQsUfNVwqCgzIrzSJkaB8Dr3PYbI4e4IONrS6hnfooGQpTFWp4fA+A8bvWwKHyxw9rzwuCntU5PPUUwfonQth2xEamhFscZcaqEWdOJrP2NaXt9YU3s1lgIB48de2QFRD393PUDRYwo/TQGWXm4OMprzYeJYxw14DyLM624i0+OT11csAFxYzE4TdJPu1E/5S05ktP/8FH2zASGSRnjYrMoBFspnh08xQtHKa/zMuNBcaBpUSAqyu8Cd5/3+3/2q6J5dOCdiGZ9wxQd6W5tKY2RkpnuVClA8+iXoeTLlb/T1yrtMF7GqUrFwd54a1VK5hNiZc5o3EHy6zK6QD/pLuXqnxH4uLk3vjB80L9Nl8MTz3tJHOxvyKDUSJwLjws7ehVxVIdVmrgqX6j2JxhIVjpMTi+LYLKZq278yhppioNnxcqxCRC96+LZ1oX5udbCrCKrieHWwhSOUbqzMnJmEPOBAJhJyyyJgCOiWlWmCHY1ZhSS2JZe09Xr0Z29srbRurSy3lpTG4GakxL2Y7qkOJwTzmXBRkh1wEZIoxxleXgUJVqiiGiM4GmG95Xn2NrjNox5xI/6vBxoeAy4VDATfZlOQegkdgiRc0klzTwRUr7SR8PEwOJYnI0U0NUppLAXqj32dcgt2skQodQFIg7j8DhIu+ri4SMrr/c3U3Ame/DmdqNnYOCdiC4M/TckKGB3tKN0hR4ZKg5t9EL15YOBMEaRNn8WNYyQlVV6JLoY1Rg2LrVxhh2h44nwsDuBIbAJY9F9Wk7pYH9q4uryUx/Qw3/lBU6gjkZwrcMObCbZuY3FToXVDDA00YaFjDlKA6DFELU6ehwojAmDF0kJ9hEEkiM4M9Nuverui627Lyyano/TnFEU4gWbSKyIFk/PAHIiApTtQsJjhU7ZOsAk70/ZWZTx+ZnWaqfbuuvsfGtTzqUrx/L45aXWY5eXFaWEd4PzcURjkDUDp3YUwdjgVEYe3uFcgWWUywbHwEeABsM78SsmuSU9wbmGRIb4UHyOGbucN2eZZm3kvY4Uk84lAw1+5RMsD5Ft8t7gKUQblMyDqEBi4WW8nlflvTXFccWmlPmvcQHj+LlWSizEuWqcyI16EL1+4J2IwlNVOnf7C+35UVbWkeFua1bCvRMT0qtQI96eVP4BVin/zk0zxV5RB4api/JrT11t3XH+jAxRzWAah8BFM1Y4J6Q8va89lgHVw9siT83c+Q9/7AdH/n+/9bHnDGljM/EglT6f6zxVI0clpUeGNMX6pOALOrZMWWOKHArsadSrIC0qbWfOTLfuu+1i6w333+MWeeE0nkEMSJnJofon7BdbM4bAvlBu0/bGNUJyU+kLGh2ZEsfAJu1PzpPXURLnjXMHnBuJGOk903Kmo60zqkzNtZbWu62Hnroi6QWAaUSO02tDBFK1WvaRPbS5CYym/OpUS0bMseh7AAPxsbkaFMeBE3E51SJFic549JrRpr86Yy0d1gVXqeGDXxkJBPZHiTd4UQVj+TgAu3E21HjMqsWZcHxydh5c5e8rOJY7sPU0jY2HoPi1haCEMTdhSbfwWwa6OsP38rMf/JS63zYebROWyxgo4WIoCBVhXEQSs8JHAtCp1V9zVOY0P3ZeA5omtOKjSeJZLRiXoxFVP2TM+xoGbvlAPRc+hebHRzbsOW9Pryxr7nTvar0Ys0yyMiYlCIiX8nJGOF6LQCiVuizs9CVXLSvqXXJyb3rV3a3veM39ciB3teYmRlvn56aE8aDWAS8ExxT5QibcJ39nfAZ8EMZXyFAURcwo1cGIeQzHQooDK5d9TWkMJucAxXSqQNM6X6R4Z2anjSnNaHbP3ecWFLkIZNb5RDgogVU19zgunMcujlv7YQxmyWb0tz47IC+v15PpWOY4E3EZbsKAOVtUXUonss+eI4sYOVya3HSO2IlSUstDEi2MwIbNhMDkLgZZfA4hAhGZ4Isi0RBX5e8JaNeBCe+p8U2NJLMY5HszbvK84Pot7Cee96MPfCTC0U9Pnf0+ta08cmZ6eu7SsioEMoSLmkmzvzNqbZAhlTKXhZlcmJkyTsJoBC6OC/PzrTUBrTX9gNrNICUMYrtD632MEk6FDE9tGteM5rnO2uTY7Pfo0ntSb6SNLQ6Ba8+5eQkTdEG6ukG4XZoHuYJ34XRQftSdGVGvvPP21m0L861vf8WdZpnOKboiSsB5oN6Go/DISncm4wD1WVlFi6SBfZHSIxrgSPdxVHQ783tVXyN14vdxRJ3UgzQrpwFGgl/FQc1p/ALt+hNja458NhSNfO3Jy61+CQj2dcz8QzoAhi14Bk4Cjsuu9r2HQJGb5QKy2tk4AsMe1Ynr1+vTq50/YyOouASItgMhcinOw87E5l9SQ7uJgpkkHikOOOfbLoFUif3ERwT3sKMt6Yx3dC1CTNNNdSIB6e3c8v+BX1QH0ZG9JE7az3zoE6vr2wev3N3d2uSrXtrYKEaqr12GwTDedaUnj11dUQ5fLmouOl0hGA+SimOszFqJGRm5p/Ca9GdNwCtVC66fs7NTW/+ff//BF5zorG7xdQGOmpCQQVAuD5ZVtq6iFeA0yMvK6CU7UQjR06Kihu97/Wtbb7zvrtY95xfdMo9EioWVaLzTcc/oWDEbDG+fCoq2APyxI6M+JM55nCVREFqv8BwiAI1zIOBHPpFoi+2Rtk0oyiDyIlpBT4W+IZwW52hOxzQtJzY3OaaoZN4OhTQr6QwrvcZt4jCk2j58sKJjUSWHln19PKc0pnfYk5ZKSxyyV3o5FOavM/M3aY7+Eb04KinRgTkj0RDhZrlT2KjecElR/Lh9UB5z2qNvQA6KlKbqzx4CrCbT8Zrsg5sbF2rSgn8pYWGCEG+5ud3gGXhJRCJ8pn/+2x+5+g/e8+5Xai7N0yudrSGA0ylau0fppZEUooDVrzx1ufX1y1dd/n3rq18h49AALAOcooHrMUSDp5XukGosPXFVKdG2ysGigusC6u1sv/N6zp1sQKNpjWaa3GVVcruTNHYxKIXQnHIrE/sSqcSBTAvnOKtU5c3f9ioLR5+RFEFh0Cu1mPXFTlRg7RQcigx5u+iowEzFGJ2asbJqm3E4STvGZXSAxTgL0r4amVfAlZSnOrtpKcGxYrN69/qJUnAgmz2IbpPuRSKCeUSgK+dqX6nFlFIfO4RSzqXLmEhrhGpN3EWWdDcZYaylrY7HDHhGw80l8eJIcI106YZpGkJeXg5Cm9SQR1LuToWrDuuugHXekR4aSPfmmDjSoZ8nXcx14HnFQBxz2Jkkyqms4BqhXM910Lzm2hl4SXnen/ngRy4//MSDf3Jhbrb1Rw8/1rqqagOr/biM7Y4zi6033H1n642vutj6rtff2fqnv/2x1sS2qjjK/SfkQJDfI6enj2ZWxovMIhcQTFhdbLK//Yev58J49NJlFTHQVk/6UoWO6upGhaMKHkc2QCxbGffi7GTr4tmZ1ve86dsMmp6dF4dFBjclkBgMgsiIbZJq4BxoNAQwNqCqx1Xq9usOZ/HKQNKJi2YKYECo66zHE3KUamt3Lw2vx4HY1GS/kwKZmeUzZoX4fWMpVaFtVr8TOVHVId26uDCr39P9Gzq7SsBDUGSmDzEGKjWwa93cWAwT63cAgDMtwCg/aUsJzSw3PlmYsfiVEOyIKnEH7mi2SJGf1Xs1S1i/G96wd4kjxUE47spbCoclJeTCcc3+HBilylOJgtVJ+Rk/zvyL5najZ+Al5UT4cGfn7/j+ze7yY2+6957WHz/6eGtJOiM7upCmZYyvvG++9VqVR9Fc/d+/93taK+0uY5U0Ua3devjSVXNKECKiMjMjsNEzXnX72Bc+8Zn/4jc/cN1Mxb2d3moA0phDSo/om+ykfMvFXnhL6I+ekzHecWa29eZX3+9w+vYz8y5RY3geL1HSLsqzAL99qiKqrGBgfowo2wQsYTmUisFxCngL5gDYTPQS7ZAKVILLkN4IfNW+tksjX0YkaKog+ZNxlzgwbhDYJhUJwQ6e1fmBJ3JmdsYjKYja3M2oH0MSCQqLnW14cwUWwoHSxg/+UZxCwTg87rM4kDQqJnqrd0MXZXvmlBWHRBkXh+HowQB2/jZyYsA8wHOcDcokofhbtjGHVhxxwa+KhXh/7KNEUKjGbfd7V2/UgJrXp7z/krr90qc/220NTb5xo9fZv/fc2dafPvaEwMBea9u9IekWxTmc0cyad77xNa3bLpxvzStVeM29d7XOKILpaRV+5Mtfb62p9wangmjJX/m27/qJGzkJI0OT/4FMlKG1vkyhdLsaU6pAUQQDw9hpLQjs/ba772i98q47nGZREYGeTnNbAn8BojJeD5hya34p/ZZeD9KGcC1csygyh2AVSBnqTqUEdbFn8FMAnl3EIBXB2Wkf09PilegnKQ9cG3yRnYuqXNOKTnAgRCyAsIg1TQo/gdxGyQoHDcEtFbAo2ue/a+XaPZVfubsxkJTHoiIF4yiOhnfYDZBGPMP58Ic7e0sTn8uxikz2UIGvtHe9hu4m4y9Oe4oeSiGu8fXn9NcuXRwb+7kW+ySmc0hyiItUoSgdd2eiPff9N3IdNK/NGXjJOREO+uc//qm11fXLX5lQaRIC1dJGR06h17qyHCnFGV30syJobWn1/fqTT5nvINp8q7d0tbX29NMa9xjqNlWZL379z/7kn37woxs3dkEcrOzuuNnE4fQuBDbSo1QX7VhYmmeEM7zuFXc5dTkzp3KqeCwMoqZ8giBSZvbSt0Kb/raiDCpGAj5phiH3kBNAWRTCF8YcXCMlZOMAmHWh9bNW+30O/fNpzEnR8TAbl9oJFPlhORAEsOsXb+A3G3UaRSmZFZrzuDg7BeAsZzNsp7IPSD2pSpDK0LUJsZZI7TMKQ5TPboM2lOohH3YGrsZwhIW+XqCOw/TGYzJKKbZ+H5WAWiip5fTWdCeRENtxKpdwJtvAXUF8i8tI1MgxlQikOpJakNvqdHeevrp0g9fBjV01L9dXvySdCF/GxPj896x3NjtvuffO1vLGpsN7VjlW0ow9yOCmv/6W+1p/Kfzkz77ylyYYMcfGrEp98o3Nqw/fffsr332jX+7lVfgi3SsB5rB3hJVZCZPSEBlMC4u57/YLrXtEXb9N6QvmjWK9L2SchwwWzVhvQG8GpyEVInoIhBiRZWjtkMZg2mbaXwzUAKXuRAg4IU388r7p7qVKw+tgnSZzEL6ibl+cAZgNPmVHr9mmE5jPwLpe+pKITsBNeB/Hc1aRExUlMJkDHAyOhMoKTF8+e8loCsIhoBQHo0gH/Ek8DzfiwXUx94R9VaSCMktIakCzZqR6g8E3KCOP0FxY/XJcQSIhp5F6HbN3SuXGJD9HODXF4mdIb4UoEndSqjHxLnExHil6IA/e3G7qDLxkncj7Pv6ZtfW1y1+ZVZPdWqd7sM1oCZTOjBUwm/aabOJ33TvXeuzKRuvrV6+0Lnc2ENPp/emX//BzOwcjb/hnH/qd9Zs5c+Mj029VurLlnNt1RxkEDkw/oarfoTLpa+TgrNQI+Ov0I6t8R30sqhH7PTsoomsjfTkCbMO0df1CFAWmYV4LaVopFVNt4drHwUCx5/1umMM8C9/Cnb7ljlOiSuRURdsDUA0OgMtFBzUKZxDxwD0saK33wPKlh4bjuffCmbQZwFAFCCWFwNkp8sjsn3TexgEQE4FTcFYxYP1Npqca74Hu1kplNGYBun3+LDKUblzP2XHJVudlNKXd8EaKFgyn2uJE5C+Ayg55/FnsV8tu7dTsWFy69bl2U1+YZ75OfB5wIjr+e+4595mbuQ6a97xE05n6xSkaefvK+qWvXJyfG7q6vinKdr/15NNdCzljDBiYjVRv+OE33tm6d2Gq9fSlJ/tbm53X33H+nu/9r9//ic7NXgTqT1nb3d0WzSQLWO0EJY06L8kCwFScGsxRzArymc0LsNTpBXyNVNjp3qXjFkkDSrpc8JaE9PCu0lRmZq2Sm4L5kDkAslrBXI9ljfeyGoBVdzRTsB+cAWzVvohkW2od4HGAWBwJkZkFjGRgk9on2ApAKxgPkQ/njsfNeYH4Vgu6VGzAMjB6nBqNg7BMjXkUHdXCA3GK4UQkcYUVVwoJjdc6OnGJl5SjgLI4CQsvYfBJcxxFlCY9Ow07LN0OdUXK+IxSMrZmCzwS7xVsKQzlbCf3CYHInL9uZ/35my9v9kK5Bd73ko1E+G7+2099obO8vvsdB7vdxxl/8LQ6VJ9YWYtoMysP1Q/4EL4QdcEoQrj93LxYHtuP/Be/8bEsQzd5uyQKvLzRFYfRJbFm9V9QWnJB/SiLAlRNdHOkQYoRh0A3LVyQSo2njEv6gKFJSl6VkcnWtgydhjzPmXEoo6dpya+lWhtBKO6lTGKDH9I5oCWAFMWK+HZaSVVIedgPVaktWgZwEJSJC4BCVFPTJxxj7dzF2TyxBLksokMjpcoC3oAviPiPzgE6sO1ECJk/WJxC3X5xIa4fFWCVCMSduI4miCxKUz+bcZKTWyQS850a77CKfQWmk+LEUyTKcFrD7/rVMA0M2pJGXQNS8/W3hZ8RUfa7Yz99k5fCLf+2l7QT4dv7hQc+R9/Y67a2u2t9c0baikiioUEoTgUGg4KZSorw9NLS+j/6Nx+uVIUXdQGIhfI9ikh6ab4bMoX8jEBUnAcphLEP5+QBQ8NYDa4BISxaIopC5Fjo3+F4+5I0SIQO1bzoXXgVTsSSsRFRTzNrlr4RjE54BwaBuYBfEIkQqZCCgKmwRVPiMSccjKzLWiCJ9P0cKRWRDdGIB1BpG7z3zrOLEoSa9czda/dEFqas6/FdOTz3tiBt6L3h3+ibwbYDbNoJ+OXlH3bMczZx7N/vKlFHTU9wwmwzJL6UeNledSj1fXgL0iV+MqEPElnxsaW3iQ+aFKamNcKpBMpLhX/5qw8/pi7F5nYzZ+Al70T40P/dA5/bXFm6uiIsZP/qxsb2nz+0dkCITqjOqgwXg5Z57uvrS0cWtsrG1uVEuhiIVI3kQGZbFxfnQxeXdToNcFQQFXbbjPkllGrhgFwbQbGjSMWiOmZeYp/qTZGxt1VRwQEB1hJ5RM4xlQjAWdtdNQy93zR1aO+kM2UMRPRU44AAW3FyHJAnB8qgAkZDUkNVHwarKPJKnTA2WL9X1zdUqhY5Dtq7nAT6HUQeOJD0vRTnYKMFN8HZUIIt4KadqPajP6uAkEMEOx2cS5ysXQnOBlymYBY5b4kkXD4m3bEnyuszdCsNkAUR8bmOt0oUx/P8FsX7AOE+a9qdOsQtxtTcbv4MvCycCB9/dmLoqtra1as2Mv7t989VGkJSG12wVDkeubQk47jwH9786frGdy6tre2Nj+xcJYXAMDE0jJG0wUzK0g0bjQ8a8KIlwuo+pbTFBmKnYjtMl65ZpzEHzxR2BFOEoVnrC9bDguxZMjBZ6filvCujcdcvTkGvtdiztkP6VPtpLBXg9IuQP7061mPVe1w90m1DPzsi8fEyIqqLahK0EJTkmRU3aTc9V3xIbZAqIDJiT2al1vQEtimRjlOepBg2fOMoSXuGRrYThZhLz9NRICHaoKkuCu/hzXCsI8ztcaoUXCWyjSRtNDvmOJJZJrrJ+U/UhtNy1cvOS8+WcwtfR82PeMzmdpNn4GXjRO6561XvkSzA7u1KJwj7x9w2n7NCVMLKzMr+uT/87Ptu8lw969tGhqck7Lu9yaqPA0E4adLjHJK2ZL5LlQoIVgFPgyiEVR8AFdU2Lmqr2jvqyEhMIgIzWnXRR20MHkc0QuB8gPnQXesKi40l5kX0QK9NVmtW3oT6nA6nWXZe2ibALA14KKMRBWmFhq3Kfp3KaDsb0rCFoGenI97HgfQ5gCgNEtse00ZPomSBoTILxo2Bfg4dWXqBCk4hp7CvRrv9IaivREAMrypDyIuDgxNjr2oPpF+JVnAuJd0JuFpKxURDdjYAxZTvk8OklQ5nkdJvqfEEdKbKVKpcCfsOqSpHeWncMtt62TiRcckoajXdH1UJ8+uPr/gLhAvByk1awwX16T/7mrREZpFBPLJbe2xoTWv57oT6dxCNroaLHeAUwBngg5jyLcPtiBTH4xgyzoSbS7/6Seo1CdBXUrDaMIZTiRZqOmGhqeIYMbRog5bIQu/zyirn4MqPXoMOiyOK0syHc3BqpMctNUmvjg1LrFaBrjiWAmhYzMgENN0BfKukgiUUeJGp/UgP4EKKEReBIFdbAD/lLIY8fAr9F91RhS9G7ooSmyHakF5Ia5TZvgFYcR751oIPmTlTeCS1Yz/HI2fNx7eUIsdBPbmkRqjEFxatxYtqqkj6VCIRRz+RdGtuN3kGXjZORFHAkIxhD9bmvXfOFl0NuBECVwWybio8f8Mr7hBAeG7mJs/Vs77ty48+JcihtwQ71WVQUgwAPKpCrswcroG2zco69UQ/vQ6chujCVizjxMngiFx5AQXQ87uiz1cxI3AQXmvsg6zARhBshWHdUY3PMcA+JSWib0XyknZQfW3LkoB6c3UgHNNEmS+D48DB1Ga/mv4g8ExznLVQif5LVy3YxyiYkEu1MXtnDHIY0N4NkBi2wDkRJXAaC12+qL47HeFfhtA4JbKPFKfE3cAWJmLQVajx/M1rvCU7Em6cv3idOpw8AkUltSnP2cnX9LGUsHe2O8tHeU3catt62TgRVtNOt7vLz0nR4YlQkVPsq5z5kU9+ufX5zz/SWn6y11rdWF466i/57NyZ72HhBAvBiOtYSSKOijPwuwFMl1wLsAfCoEgAzILHUKu3A4EQJqNEva2KDIGV4CxYqGtFxAaj/0UBP1iHI43iRAwMwU8x8ItkolIlOQt0VegSrikeTobKFTdK1JRtkUggwuF3uCv0z9wp/suwZuCpDiR7RSAbh8d2YNMGayAqYYJfxlti1zhDLjN7BZt0uCCpFAUjxTHAdOW1wBN8f7BVQxCr+Ad+NsLScZI4pRFFIHYVdmIBUOu0PbsWv6ekPCWiMbBtjIXD392aaC9+91FfE7fS9l4yeiIv9KUofx+ZmZyebks7hNX8L/5oXSsuF6p4GMIdVtBU7W9enp27KAzjyAo0PizZ2tJ6Z2Ntot0+SwcxkowI/rDeElGQUqFURocsNzgblFBJH4iUSE1IvaYmtQrLSVhIiHIueIUinAoIEmVBbR9B6VyYiyECO5Jr6UxGJmDYMkhFJv0+bNkRiTNLN8WUlgCNkM/QZJmQc1haXQsOg+nKsnBo8EmQScC5YHA4QCIUxIr2YQbjFobV4avjGFOUsSdtW6o2o0QXrhDFFbiQjDOR94vyG4hw+Bv8Qi+P8Rr9PQJDlSf1+Vx9whHhpLwd9i8ZAzk0400So+J08jddxjt7qmLpnCnO8mew0r1n7EhWU5/Bn12v43dGbDil1JZ3tg92HnrqcveFrq/m+ec+Ay8bJ6KizMjk2PgwIODX/kK9NEUvZE0GfXlzUx2pM629/sqlf/uFP7zulv/rvXA++8UHD77v9Xc9PtQ6d9aYgm6UZmGmElp79k2QPqclrrBQ3h2SHAGyhTrWUVVsQoxSDUSpV7t01gZXDXuUdZwohfTDzXV6n0ljuu/DGbH+bIBDPj83xkCAvZCuECER+fA8QO1omYNDlAJuA5OVyGlOHb/rEn62wbJcy5jpeqaqdNsCFSDpxRII6DNOjqnLV8e0r+2Pqcw9ISc+obnABaYxWY75wQCjMF6dXBRg08C3HAKP4ybGcEIA1Ezn4zVUV/T5mc9DEyJq/XzWnZ2+nBkkMaIlHBxbJ5qSQ5YX7u9oyKfOETR+iHWks3wenOPaZs8OZUN/w2aOPktzezFn4GXjRFi3CNOhip+fWZAR7Sr62DDASDQwOzLSa81dlD7qgy/mfD3ne+emzvzw1tbW48IUxmilXxfIWkFPq64TxZPKQIjT3xn9EDo8jmdePUB08jLaYlJRAL01kEIzfkLRhQwFUWbYpEg9wishCuD9bIpSL2mBZ+2ynpP+AB7KyDxXF8V5r/7Z54TOiaUh9RgVGUsT4KggwrmjWOr5enxVaU9HUQxpzqNSjbv34qyPke1k3Cfzf6juKCJR9OXxpHICOAOXnqVb4ml9JDZEQaVPB+M1FmROC/qtlL+JWqg0oQ6PcQfvtPA0HBYIcto+OCi6LGbFFufLSFUcB595e0elY213bbPjzwWes7LRba2I0TymfdnR6/1EJWsbTePdizWIlw0molVlf1mGu/y00galFITFk6MTrZXeZuu152+XfODO0i//7u8eW9iq63xZZWXZXiKAzIMNpmAZQ1kraQuRA0btNAcchHBeN0hgjJZwWRdOg4ybaKVKGnLRYzzu9CWnNx0+JLSqVs52XMzUm6Gpq85rYdba2o/ZUc6lB4dqBYbMfuHQLEr4uqeo7czMjP9GQhGSGZEdavqkaOAis5PwXMTVJdUCf/E//kaiETkCSsxEJAC8cnz87eNEmV5OxpUhvV4O0Y/pY/A8jmlMxzSmqGsUQp0+P+9FPInuY5iyE3oN+5yQ40DuAceFxsiEHpvhc+l8T8oJMZBsTOdwXs54CklMRS3z+gwXxHeZ1eei0oO0AenS2urlx1+sEd3q73/ZOBHR3Pc2t7cPRqTedyDd1Y5C2ic3l1pvufsurUbdq/2xydcf55f9/s/+6e5Dj331q27BlyPB6CjV8jdGaWAVOUMdhId36ydOhBm4NOl5oh1Bv0FXemgkbSgj45VQ4pWtFaCSpxlWFQJW7axFeyRiSOngJWY32EjfjioyBkl1dzrh8makEnFK/I3Q9bz6fUgBFs1ODUg7p9EbTnV0LDw3odSFiybzNXAgMmTtDjAXvgp6KWilGPc01pp0wbywAnLiSMyDoZJl8FTO1fSOgo2U9/O+pGellE265yik0PYrgOxTogFm+jwkNhwrXcc4ZaIforl2YekSJaJ4zzHsbnc791y8rwFVX6RhvGycyD/61X/Xe/LSow8OT0kzpK1W+9HOjmRXNfpg7XJ/ZPRVP/vxj62/yHP1gm+/57ZXWJukao1i0Jk/46zBqz69POZ80BSnSINVNaxarcCurGTIOM+zHVZrIo9ask1vTHpz2I4V4U2rCGAKqYtb3hfrHVN6kSpFqhhsl4jHjXjmnAgYFZ7i3hmnQWnY4zVVKJr05eLiQkqx7JPysjkqqqfQqaxjYcRFKG1JmQ6jqFJqJT0xWAreQTxgEliqOuVg7QCjt5J0J5WVpE+u8uCASdk4XyCrei79MqnE+MDcjxM9FOQhSeWQxMyojvBkNiRmNTbU/9ofP/hww3l/wSv7+V/wsnEifMyxvenv/NM//YM//uwXPvU5sVZv392fnF3ujt7xTz/84bUXeZ6u6+3/46e+cLW/vWV5gRhx2JykLBgo6YmdA8cKIEpeLoDTDsR6HbEVa3YAGOr9sG95ggqMNUZtvCNqMqRkHGOnEc8UeVZdzNNl0TBX2aQ5J46KUmExVqK7e2j0k3ERpsbbCcjZGXCEjKaUoXApiEak26LoQY+ldc9pk9MqnIJLMOmWrixbjobfLf2o7VbejKnnAL+FQ2MnwecOQb243DiDKLdHjNqyA04HmTNT+Ch6D6fImiqmocRx47A592BHRILc+A7M4dF+FZ3tDg/Pveu6vtjmRc97Bl42wCqf8p986GM4i7f4E//pw6fy1V+58vhXx8de+WaMEOLWnABTwFAqBFU/hIvZ62pxChg5F326ejFirdiUMWUdpDGem2NwMuxWoFMYqKbKq4yNQzIxXGCym/L0ul0rxceo4We4IxgdVhsudkpK40ItW/XzGa6F8yAi2nMPjcvDjhjiXBjRCR4aTY6kMKROLuuWM07qpPHJJfKRE8W0/WSYHBpp6MoOt/TxRBTJXoASsLZLAMdwbrtFNFMM5pId6TPZX5VqF47aEVbkKcFd1gWoplcpEgFxGntuL0hkNdy6vHR14y8fubRyKhfJy2ynL6tIZBC+m8WFO/6qLljNnIqwENEHd0YzUCnITBnxNwxoSija/TKpkACGQvKyXF9Jg1hhqXRgpM5OiErKCo5xTMIjKSE/6YSXZeMLcRYmouFUGPKt/ZI6gYUYPwEItaaqqjUi6BE5gWOMycAtjmSEITN3ATI5dmQCrHFC2qHjTAYRqYLKZ0ncVDGbgL3FdV3DZnA8JZnxK+wMEorFwdY0plLs8+26tOzsBaeTQebmkXAA+c83S0kiBQkmVHApzivn/cEnnkT7tvq8QbhsXtLH0DiRI/76fvVjn17Z3+k8sS5eBdWOLh2xrIAQnlgRC0/Eg6Zcfs7oCP4migBfoMQKvApXBMNiVWV0plW5ijlSysaIIKmFSsLvqeBYZ4QUgN6hIu5MCoS32lOEso2Kmmnudks2QEBTKjKkH2vS2KjiPU5/vJLvC3CdCdBpVkZEh2iwA/IgIkl0giH7f+GPlhQt3cpxJ0652C9aKAXPSMccrw+71PSN1MWjr+JNsd3inNgz5W/9pKy8rfSO4zQZj8qQIhdzcEpFy8xbgFZt+O6L51orq5cfPuKv/pbdXONEjuGrPxiaeLMqL3SkHQKObqIrUYG5HLrgLdSs25qEprEP97lQxqSrtqzTUpWP0Xr5TWRQUxJPsSP/N9BYZq3YGJM48H9jGsYgSBpi0RxLX9UgDApuio3dOIlYs4o4ILQR1TCVj5QK9iqRUmQYhd/IIRGMqNLrbWZJr8dVmuVs7yVqwnkYaI2eLMcG4cuHZT8RrCehVhKsNOzGgdgtldd5Ho0ZuQWcdaUJ7AVHC4YS8SXehmpcbtFMWVWac2l5zef3zNzt7zyGr/6W3GTjRI7ha//lD39yaXi/+4ib1nTjot6SMwAjweBJFWoFhxUTIhV9MhiSRZYVNNjRIJSMoFExBAhVNjiM186BEaHYWKo7jlPM1C2GqMe3RQ93uoHDocFVLyetyvAspSmTU3YU9O2A27AzCztrv2tidXJD2iDvB9jUyi/Clou7bsGNc6uDvHAKRDjsC/2URCAAE4ZOAiwbMMWpps+nAr2JYfAWDmMOP7ff5+3hFGjXS4BTx11UMWqAW15j8FT/OIe8pkossB8kMq+uXF399Qc+v3YMX/0tucnGiRzT1769N/7dkgZQFrBfVMKyI6+ahQBG2oLhWvaw8CHKuptRDuY4BESEe4LhYyRtVzNsbjZS969QEqUhzS34JY0grBcwazCSLiLPxoE2nl4S9o2TqhELVH0J9GSlT73UmAnpWKQDRNTyriGqlTnDJbo5jCoo/zo6yfut1oYTc9UoTFQzTh2VBfg1bEuUVVKefLA4CqZs8V5cJDq6eM3gQvBforPqyMyOlYiDtDFtBWyA6ow7/dm+0z+6ukVlbm5HdgYaJ3Jkp/IbN/QrH3lgeeig9xirJI1utfRIZQbH4iY720jAPxwKlkBKwy1jISOjaGp7IWg5q9FrwFjquAeP2XT4n8oGK7+LGfzEWAvaWHEFdxLTryODZAIelR+iI/ZBYx7H4Eglb3CfilmyckAP/Pljjn6gs2ccHYBv6dSVg+Cz2I0U7Q47lIJ31LQlzwVIJfLiOLOr4j38d0mSvI+K3QRM9Qzkcv54xiNLAVmVhnGeIwYFiEo3cZoKofjjWEywG9m7fExf+y252caJHOPXPjo6+529/tY2EX/lKmBkXom1X0BVogKATozB9sRPKjH6PaM1U77FqNxJSyThUqu9hIHQHQy3kMvsL1jdYb7KuGDEGo8oob5TIIyyPMbvyCWg5N4nMlHaBcBKxAN24nEWHjdaNEvYL/4D7IYRE4pU4IrE/Pls4D3BIlJFKhUVXI2vNrwF2yjlZb02ozHpoQmBzjKRFVzl/bojZMSQcT4HkZKnDjpMA5RO1OFjVjQF4EpfDNyXWt4F08nQ8f2DkZHFHznGr/2W23TjRI7xK//vP/w7y9tbK1+l1FurMKz+GBpOgZWS+4TKtFRiMCvn74VxiaHyO70ujvhLlEI5JPgJk9uSIuGIwo1QGVkGxIgK65a4sgLeUvtx9HuJFJCQNBVdVoxBgk8QIbnJr4gi1VI17oDnoMSjgOruW3FVYJYmaEoSE6WwQt+H58JTcpoGip0mFdaqkVQiFxwGr9LrHHzEk9aEyNUgByM1xcL/pdTM1EPOGQCqz0VxqhnclS7n4C6ZNggDV+/dkkNaPcav/ZbbdONEjvkrn5w8+w5Wvw2VfEkHwCDoqzHwR0WlGBO5Or/iRDDWaGEEmKRMS0pE2oGj8DwdQFNSIxlQjJZyR63QAGLGMaSyg4UaFbHR2yFhfDqW0OmL4DNlURrrdGfkBikNTXccmDVkZZBJEVQ9EunMmiUONVI1qp+Fv3AsY+qO24Gfwqct0ReOwhGB2aXROvWMIHCOUmnxwRWSmIlsVnnnMKoAEc4q9Hs3Japcne5dZA4ApuUsOG8WXhqylgrn15WbvX7n337y87Vsc8zf/q2x+caJHPP3/Asf+JhE4S8/hAARWh2shhhmZupm5d7c6pUyZdG3MKB6bWUnZegpLdnvSwNDRhlpxeApyCO6+U7/GMnAE05/iBAcvZAuUH2Bal86i0t/SsSZA2jSmMbKvSAtEf5eUOMdx1Cb5mZFliOiotzr2TRDtORnf6QPjgmoEhkopfQLrTWBhen/xkEKiMrx6R4INlWWioE4IinRFdtON3RSmvTbZJ/hojBnJhwV5vhY7V4OJH1HYQRDLvMAMwBoem32e48d81d+y22+cSIn8JWPjsx8DwbPSAnT1snZhUNwM3tVq34Youm5IUfpC5sIyBquBQ6AMJ2oZNjyZ2AW0VEFPwArSWGTagVBSSoW4XYEWbWwYAFbaypjQUKv3AYmWssaR+pGOm2TyoZ7UHB0YtKCxZCWfebLD0VekOY2Vz4SOaRXKNT1fdTe3V9D6gW71QeTs20Dv8Yv8XPgPzxFVGV2WeneBUhRSdl/Q483zT7pkkFcMBT390SvJKki+4zCGc9H6HpECm4r8tZzNzzA/QQukZf0LhoncgJf397+7tWd3b7G4KaHppY1cRxOS9DFAbtAsazwGkzb1mPGKFS5QVpxQ9PxiCgizBygccd4B+lLQn13wfKvfLPosZI6mN1JRIKzKQbL76iq1W5hVnF6T1IiVSlZaQLGTus8x+P5wDJSHByewMJKBQfBd/RJrdzIwqgLJzUmgFFIScIDQEozIGlQ8BzLGei1djlEHMW5hLafiKNOu7OvokfGIVZmGxuDqdiHS+A6N3qMCAQVN7p3ScFw1lPjI/1/+8nfO3KN3RO4hAZ6F40TOYGv55c+/MBBv7v0FXZFiRFDgQ4PjmGRIioTLL5ZpAtJKuVS/u1Cmee1bqMnIpGeqCyQyg6GhsaoKy6YdAFKMUo7lPDH/Y9KC7gBEQ7GjWOZUPnWzswkNRr9MkEPXCRt+el+Jd1J+tWyxohFpwOI2MiRJUzrPRhHytZUUtimj6+4BCQHzJMpkU+gUapTmSNchZzAP/K6gu+wLX8+TpRDGZ+zfVTMSp9Ral5J5zhOSHzIThKtLUtgabWj/zW3Iz8DjRM58lP67BscHZt/R6/X7cNaBRuxKjwgainXIpmI4bHKu2RKGZMU5xnVGszIs2csAxieCdZC1FB5rTib4AehuzvqIVJxGRgAtVZCMlgL7sQY1Z9iwMy9peuWYzN/Q9uyZIB3FSdkfVdMX8eA4UeEqPJBINMh7hwAONopHF04MO629YCruEycHQfo4y3Rh50h0ghuOiQaU7TlDCf7KSir3YU1YImsXLHi8ya64TNtFoYw24MoJ/nK5JDN7UjPQONEjvR0PvfGfvFDn1zd7q8+OK3UgBXSITagpKsyYV1SbSG6sPYIzoXHZOSsrDwWejhdqdd6QlIRyeBJ7g79Ncy6Us8zNc5maaN3AyCOh2oGpVIqMwWjMEBasA3Kzgg1p6JRnJY2hbMjJfOQbd2HPN82BDM34NmBuTvGoC7YjPtdcGLsxzhJiZhwGlDxleKkuS5YThioz7g0iThwJq5K4UyYixNFeOvCFlAGx8fnsXMjojIgi67KaOuKFO37/c1LJ/R131K7aZzICX7dQ0PT37+6vs7c8dashI8xRvprKJ8SoZi96jRF6UUhd7l0a2MpxmyDkaF5QQ5ukjGZRCRELvwugLYYptMKvyV6r1UlbQgAU6lFJBapciAryPybpFg4L+ub6K04PcZuGE/RP0SlM5qCNKg6mlKZwQs5fgDjSRTEfp3+VOfA/kxIC3eF8AHBJUcYpEzZRHAdfe5RHRfHTypk4WrOSY1+FLVFnQ3dkTgbQjEcXx2DYS1btQbddu7+nzzBr/uW2VXjRE7wq/7XH//M6v7+zqalERVxpEksob3LrRi8jMECQjgTUgrwixI9YGMuV/JOftLIBzDK8+aWhB3qsq1RhkQGBSqI4QHcUqERTkEqUCUKrESv/bUJ+7XdKhiNQ3GZVA6A0nR6aSQ/abUwnFJRD2HZJ/0p0QgSBTiIDPmOE6vyAq60kCF9UxpUWGX+HAf7dC/n+FPOTQnZ1Sbtw814Zu0ajXUlicdNo9eNyI3PUIWg6B7Qsa+f4Nd9y+yqcSIn/FX3t9afyIhK5e2lmoDeJ1EEhkkPDZqgtOh74PbhPJroovK4V+VS/nWUUjIWOyVSBxwCxsx/dkJ0A6d72OQucBVW/wLlOoVClgAQVT+nYc8aW4gAs9MTtqkHAVgBXz/71cf8frbjZkEbegF3iQpwIPIUiZISjRzQtFeAXhdsS8qSOk55rx0LUUiQHUck5f38QSUmcC6pT3AjIhFXiopzqXhRBLO3/LkuLC6MiCdSvOoJf+kv8901TuSEv+D9g8nv7/R626Qv3Lj4WUFZ7TESIhPYohW4ZJYKhoRBVNZlnXLnSKVEJ3EJATfdv2JBoqjMW3zITiXiQhih59DABq34hH7BiYFd4Ej4SYm3Rg8YfFepF5thPwZlEVYihSBC0E8DnzgKXILTLRwMjYLFybhZrzobgOS8LhUXPEPxhnBQcF1yQEN8Rqo0xUHVfYVen+jE5e2y31rqbjNQS88BqHJOJcUgpMgqAs3tiM9A40SO+IS+0OZ+/YHPrT386Fe+ysqe6KPyLsL1IGrACYCLhAKv1nVFH1VsJ631wRMiRJQ94jRIkTxyws6iDKtyCpPIJOMrRGzjdcVxJeJIukCkYwBWRkd6ZIMtVRQYs0QgGLvnxcjBcFwGUO2kOC52HYPOYKoiBg1b1UEFZVzm4EIYy6XnCMYIqJwGbf4lPoq3IsoikroWQQVfybEBokYrpXRDF66Mu4/1dlI1hIhIvxSx6G2lFvxCX1Lz/A2dgcaJ3NDpOpoXnz9799t16W+jxu6qjKKMFY36JLKgxGuOhElgAUUdnjt9CZO1zrLBUCxdaNBBzwKh4Cg81C1pDnZTG/FY5xlJYRhB3/yYmGs4K1IOjB6nZP0TOQia1sBmEFMKqSzOg2Ol/yd6q0k54JSkSa66hUQHpCSkL9VJFQQjHJGENHYj1kulsgQxTr+5JOznSk6Fq7LfhMqv1Ko4Dm/CgHOm9/GhqrASzjklZXASP773ix9+oLjco/kem63kDDRO5BSuhN/6vd9fuXLlsS/XXTOygdIpRuVqix1AGTaFQ8GZ6J8n4mFLrPpmoYYHgr1ZsEePWRcEtqseJY3hufifEMXMoaB93+hlGK5mxdL9q/u8iGRPLi3ZiZByndVAKwyRYzT+ok0RsRARZFKf2+vNbXFGou1ldEU4Iq62lBTG6qw4vnwKO47Q2QmEgIHjNJi9W6s1ToRARUsmQhTC6yypQHkctyDnY3ar3j462tZ+5RD18JSm3mnIurGnqUlm7TW34zgDjRM5jrN6HducmDjzA51upw9QiUgyhgnAarEiwwahlRNVsMp2lTrgMMAtwE9oaON1O5I/NNkM/EO8DUwzzgUWKTLKuZmNzppfKj/+HVaq9lulCtDf2NAo0tvPLMhJ7VpjdVP8LCIQNEU4JhxQW0QuM20ZCA7oqW3yePp4SnqEw8DJmESWJjk7lIpt4DAdbeXYTIQj9SqYix1lTZFwTgU9xjEFPqnDrTKMqmIjlKM5bwwxZ1+0GuCQn756VQhrczuOM9A4keM4q9exzV9/4LOrq6tPfRWHgEFuqseDSACnYqOXAfS2hF8oxSFdCd8j4XmtwlSQ1DoiLgnjUDLwqpLY/LOE9QFui2q8vUqM2mVmIghdDRgkRDRSAxzXhByGe24KHoKXMpu1RE3hkkQX1nfhIMManDusuZjOdsxe4/VhvY7K8Vh5ntREf1t8iI36c6W/x2NGHX35BX5f+CzZPlT2vBmHm/cYKylSAEQxkUyAkRuM6b4775z6qR95W3O9X8e1eaMvaU7qjZ6xI3z99NS5t0sb1WWaOZHPuFcVeFbTOm6zNuOR51O5Ieow+CosgHkycCIQJYpuadITE88wfqcUNkcZlSIHpxQhr8VMA7rWyIf30u4P9gHWUQ2YKAVD7oO3EDkU4yZtcFpD340wlqRhIX+lgRBpR6IQ5x0GhS2ED8uV1zrdCbfFzg6/420HQfE/FM/ciUuURdpTwFh/3iojgCOLMhrRGsdL9Wh+dsbd01J42/qFD326wUSO8Pqtm2qcyDGc1Ovd5K+KfLbVXXoQLgNGbMzDvI7Q3akqcAOkrL0hsZ+iIypHYCW0oi9ikLRQ1KlcYJ7pcIWvEUM1c9WpRsqy2GqKGcEU0NzAUeEwiGyWyjgLYxUyUhoIMXFzXFy9ibGPDPE4EgJhtXpWsCMIMI0yF5jdsyf0YjmKEv0Avh4gH4BDKz03SXviJCDTBUNJhGagmTKwnCLHaOlInBU8GqpadCCLYYsjnBHGszA71bpy5dE/v97vpXndjZ2Bxonc2Pk68lfvH0y8Xa390kuml2a4tcrgKBkJRgrYClbS7fXTZ6PHwR0YHUFEQOXEs1VkX+ik4kxIf7z6F6dgkljpgM2XnbSoBBKKNjwT04zZXWt5wO2Q8U3KKQgsvbAwJ64FBhl0pfJGcHxVntHAbYlAOBaqTCVZsRMwuRSy2bXY4pAQl6hCzwHMgtFAcecxZzihzZfik/fPdL7Q2Gn7z34riIs/S/k6QkfBivZal1bW9u+48Jq/feRfXrNBn4HGiZzyhfDLH/3M8sTo3lOkEayoOA5+wsHAEDpyIFgS8oiHkQrpANiEQFUPr2IKHsbm1EXRRGlO4w8qFa7GWMBIICSDqXS3mpi5WgC4dOVeo4yDc0Asw7Fg+BhmAFMYraHAn5mbNeBr5i2OqKZFuI9DJirb19+6B6NI6INjsOnbk+VuXqxLuCWJMQaCLAHwTKoxdhYMKQeHIRrDqbmBb8g9SBDiOH+kcOvCmCowvb6xtr6zvb1yyl/1y3b3jRMZgK+20z34TiKJpbV1RQCTNjLy+rXNbtIBogkzV9P2TzWENIbhULX3BsM2BZxFvKQqdewmxkYEYyyj8Dbcg6K/SUk8TLusKNE3Sc9JlRHgjSagaR9MyPNw7GK0NTrCiRHJpAgM/4TkJJIG/kA4ErcChTSaSIWn9LwJcvl8QUEITvIzcgb8gsfI8KtM94tTszI8jo7PTnWIhj05STCRtAmoh2ZsZPtfvP+jjQzAMV3rjRM5phN7I5v9lY99+mp/u9dl5ouBQ+MBETCqN4+GcFUkYyIwalIgSpjuDzFYGnvdU4ghpMTVDlIOIgUPyNI/97Ng0zZYohaNWFC3LemBbR1DZV9yUEQNyAGwDY4tQ7ZTzjVwa7tOSfpwpkwxdiIgyxCYln6tURCimOORAoqC19RUp/I/UoFKZGUHYmdUKlNOleJVSiuiZ8qAfYD/MPLimkxj8BPJTzZ09xu5IG/wtY0TucETdlwvv/T0Q3+BYbFyYsyeiKd/0QkdMpfDhDTddoSDpLyb1Zw0hV9DxIrRRYk91QrrgtjsiHAAaRFazrxd8AVEh1wmdfUmN1eEnCMlKsJhVTzEAtFELCatMTsn0Yb5GuwdoNRuTFGTj41oh/JxjsItMs5pUmKugC/HneHlAYgPynGTbgVPKd27nINnNBOywUgKSLZAJWnSGZeh9XoPsSLva27HdgYaJ3Jsp/bGNnzu7N0/sry22glHIitxvZWhSzaMuI2CMRgMjTAxd5wDBDOM0xEFQKsAWEScSVnc2csKXisfeg/zbsBAcBoYeebjUCkJQIpRs12cGlIA2X/FR2i3H/N8W7fg656hWpDHcIChtLsnhmglh+4IAvAWYSP6YkLx97viWOq4DHpkrLESLgieCA5IrQDh46hkwUpl330db6dH97Oip6LiZpC3osg39pU0r77OM9A4kes8Ucf9sn/zic+uiBf6eFcEsyiWqxLBWEj9hHQWDkiikPSspHpBdEKlJtT1QwWRyC7qDazECfv3PZjbpVelFOAFbRk/wQPK79PM2SXVwX3BISG10T7APDaULtm56W9SnTTn1c7cRB77jiqyv0ObTdedS8yhpRPZ1BJtSs75VNZFS1pEW7/4JjBy4cC4cTChGbCKo5+IQCehcXkXsSK9JE2LPCMNW5XHOQ5e093qNenMMV7AjRM5xpN7o5s+2G+/jVYWDIXSJObFaAmzSmVwHmsJMxWQFYeiKk2AxooSRF+VldgCyTLIcEjkNEhVTDQdMm09rNGMi0BImRvbn2pP2CAZkWm+Cs5D2+qqi9cVENKYkrZgzDgUyxkkjojsgD0cWQwYDMfGH4UbQgWmOMQ60iFVmxqqJO1KOpfj8gM1NOO9bsALryYqbOomxmE4JVNFSw6E91uUGmmFXrcBVW/0YryB1zdO5AZO1nG/9Jc+IoC139lI5WXPPTXcmCNraULd+R0nQoOcjV2RCCVYrIzQHaOmEhMmKIO5NdGOdIZ/sjRkDjPzFjAVdbPciXraGovp0q/+Ucrl8Y6JZ7BGizJZyWcOx08YbHWC5ddVWzc/RemKWakcHVUYBybhfpBumN3qdv+AswlhSIuuTcVD3MgNdgQxgKuKOog4nGI5N4o+ip1ZOSccBdUZ4zh6z9T4cDMm4hgv3saJHOPJvZlNdzvLD1U9D0BWbhh0pXPzHLhF5ZVY/UyOggY5btih13DjEGV4k38PBZ4ybGWtev0v4GaNCgAxwTnibCKYtCJNDsR9cG6s7lRq7ju3WGj5wU0AZdl5KCJxBo4m7GFSCaLG6+MroHH8USkK+2U4FO3T1V4Yte6mcdWlRi+WRqygsis2Ge5d4J7MndE2wgLm3G3vzczc9hM3810077m+M9A4kes7Tyf2qpmpc+/e6m/tVIEg8zq0d3etApw6lYmgEbeqJcKc3sNIgNea/akIQw4HhzKm9MU6rACOxcwNYtr6UENL1cSRAthDiUgiEZCZwUQ9frWrL5FLBCOxKhtRBboi5qHkWA6p9hWOpdnOqQwEtFKyrXUTPWfso6QumSV8reEwAGsIcWQ/RDDIBxiD0QEnxSspn/GgCFvrMU7U8ol9gbfgjhonMmBfuhTUV1XUMCBSO3fNVJVBVSyElRfjoapxWPY1hyQGDhiKMY8L+0hlJCXSYcZjgp8AWgJTlDSF97EtIgb2CT/FU/C0nxnpiPA3YkgZSTnsQVCJIaL7imNyZ3EZZWH1teIEXCUufLND7APnwPOu/lCuzmiJ2lgIKGwNlWs+xcfDPUGOsBrNohkZk6SjS71UlSQ8JJZvjiODvLkRiehYapY1YN/2y+NwGicyYN/jL3zoM3u9re7m0tqGDY3Qn5tb2ump0WoPJmAQdDLT6+B50N/ilAWMAzHlMrHOjXvmkoMrBH/A6NuaK2MBJB5jdZcRRvzZIIS3BUZC5INTAIzFqUBuA2+oZWFA1SqhyHFaSc1OLw1+4CLVGVrUmX9Ud+xYAElSnSmCJ8WRZP4Od+vJBpq1k4K4VoFd3rOrapUZvXQuU9WyQ4lUQJnDW1zRgH3RL6PDaZzIAH6ZnY0rjyALUHkhye2TvsSI1R9S2vTBOYwTlIpNMId8qFR1IhPorMEAaHpX+B+UcSuUGZDNYm2JASIcOQ0eIQrBQHFoGCtt9azylJMxUhwS6mjZYbmX380zKVGHoVecCNT3opGaSIOQq0Rd2s8eox80Qa+j7mHXfDh2Pbaru/uEEEci0uI9il4s2UjzIhGWNog8IqVhopyucJHNbmdHaU9T4j3G67xxIsd4cm920+NjZ9+9tLa2R/RRlbmqeBBmF/lDUgL0UIV5uKohtqYiBEL92i5vbgcrvp6LkFCAyjBGtYXYr5xEMXBo40gHUIlxWpBUgSoHTswcE+3L0ooch/KuREplRAVYilOb8EwiOZBox5wQDL9IrdFDw2By5ugys3ffuAsHmx4aCGQpF5P26Khh6RKZ8DokD/Q7UQgpEM/nXDCjODooNC6683mnv/0zv/HhhrF6sxfjdbyvcSLXcZJO+iW/9NFPr8iYLOdXKyIYVluYBiuvIwA9RwRAOoPx+DGqMe6PCZPVUYi7X9HwENDo1CCarW7Yo5Tsx2y3hyMqSTuowtRRlVY30+soObM/tufqDWlEWeQr+GudEj0fAmsl5kd8Gc8SxbLIEewPlWN0xOKe3JK4hO5fKzcp5eozELmQwtDib45MtENwUlsSZaoOluOkzE2Esrlx5asn/f3davtrnMiAfuNDB7ubnsNr/kMYpuFCBFCt5KopD+OGLxLqupvZSnpz6CSITogXCo/jEAtxDBGswfsyZlIKr+V3jHlaSmc4Eo4DkBfRIh4ndajs1XiiVFDSh3MtrXKKBYvOkUpynfLypDOkRI5qijcj2jG/RNEQpWtFJ5UJS5RRwVMP3ML1uHIj1q6cCo7D6Rep3N7O9sVzr/zxAf2KXzaH1TiRAf0qx4Z3nqqT8rwK6x9/Y6A9xlgKG4naGUaUubNhnqJAJkC0AI0YrFdrpzYlt8F0Sz+MKWm16kHko9d4bq5tm8a/sda0AFxYoKQI7BMgN47hmriy587IgcT4M17TjgG2mMOUvNa4jNuNC45C1OLhVtfK2EmQwkrF26QBTyQ6UiWiKIO9Ic+ZBCcnSH8QgLNb/8pIC6UynX/2796/MqBf8cvmsBonMqBfpXiWPywwcYcSLrZEpIDBYF53n5sPa5WeFBnmGPqn/pcSLGF/bYTDCKF+sw37ENif0guxEY6Mt8ZEcx9TFYb9XHtPcBU7DFd5NH5BACuALiSuabFmeR7SGQCrh1E5gkFQCQX5SjIL6S2EdyKUArQWB1LdiI8c54NzcXmYSCLqaP7MxlSC7bg/qHwmdllV4HieJyCigSMRkSyvLa0O6Nf7sjqsxokM6Ne5u7e9siPVRA9jKjcTwGQ4ve19V0nANsrSbmOHK/FM5um+HAZVFyuPERnIwCGsGWNwVJCmOUhiYA04m+HDNEazWlQGTtSRfpdZCSadl1yiRZW1525/Kw17jlpwACUdIp3xtuP02G5Ibam2+Nc85e1m2m8cAjEHDifbSz+PVdcM0gILc8A5dv6h8I6iWZoWMyqChkUcye5256kB/XpfVofVOJEB/Tp/7v2f3u33t7aqQFGa2NK/gsYqBhYF9qQ544omnPaQZjgwCP+jvt+pEVGKsYrai0JHLlKLqaawzToeYkLbY54tP3EeKMBDrc/+SmOc3uBjKCVes2bJVNjWNzgPwyUkLE6pnD65vlvZrTyHCjxK8tF4rapsprUT7fBZ4MnIudDnEyZvPFGcUiIxtwEYr+kfLCzc8zcG9Ot9WR1W40QG+OtUJOIyL2XM9IyE+IWymBXQPKahRAqeIWOTSuVDv2Pg4AmRDFRlx5FKac4rimMYLyt8xV+IVHjfrgx6UpGIQdXCS0EJvqNV3m325bwl4ijZjDMK14L8rOfhFKGk8NiILlICNpaTQrI9jIXUlGbxHLhMFZcmfcFxIXcA3oKT2tGxBbOJcJK5KHp7R5ERtxVxTLa2er2Dvd2m8e4Eru/GiZzASb7ZXYhYpUKDVl8ZMZPdPPkuy/zhKs4KTCkWA3OnL6E9DbPGSxR94ACorHhCHb+rj0Y6IhXrGPYISsDLpAhTUxNufJubnvYIBvbN8O5Z0d9xGACtEMzS28Nx2HM4IrDrKDhqMJXoiJBAEXw4DbITieMy0KHbNmlKgis7SqdfOKdaVdIzS6trkRXAYRTHQd9QdEdClku1RhwTlZ/b7ZGtf/GbH2lIZjd78d3A+xoncgMn66Rfurpy6evk9nXodm20t3MoEQiRBtEFfSnpk2EObUBKk8bQFUEOoIygYB7LGI5Ed4/D5Dk9hgHzOlKFgBVRmnfHbMEgSBNMKZej+MOHHrPTIlLChdgfGBit5dpgGsQIcEDiYAKYukpEJGV+SFIox1DsK/M+TTRDgIm0bFthyvwUGFBcVQZyIdpEeTsDvd1Do98NImujq6tPf+Wkv69bdX+NExngb/7C4n0/Jgp4h0MkvI9GRlikGDR2SyUER4EcYZUEpGpCCoCDQT0e9XNSGZdca0RCqsPv/skoiVRnKgMVu7YGq6MHooIMyM4g7yJXiLGX3x1duBQNJhPsxlETOI7/MXymlJN52Gw0OSR7EaAQMJJEI6bSlV47og4c26SkGS2jiIuEcwKFnrQHB6VjMsnN+zqQSv56Z7p9/j0D/NW+rA6tcSID/HX+q49/Zk3AZx/DqtWN6HNE1MdNdgCMpcEOoGDbIyojU2gFMzkGCzMjVFTGRiQHSVXGDknPT6jUmxJvND3c/m/OSAZ/p4Sr3h2lDEQzOKpomgSotVOr4IirOXm8oKx+rxOemo3xF4UW3Ul6vF8cS8ATRRv6P63GHCfOx3T9vJ/dkMJFbkCykHKspDDsHwxldOSg89984GNrA/zVvqwOrSS2L6vP9LL6MEj0kNJUENFjJEp50/wLO5Wi0ZFfDa7iNOxb6qpvJxCEIg9m5cZtIKqImY7J6VBSjioZ+IRYrJxNA7VgDnTQxiHVG9wRq6mhU+L3BetwdejQOUSVjf1TjvUgcZ4tTsZjqNzRW5xGghK9h7ETRbnMDwC46r04FX0cpBsTOe23rqytBRfRubqydLlxICdoBU0kcoIn+2Z2pahg1K3wcC+0UkfFK7wJ27dNNWE8iziYRZU8dIctEQhcC5PL5Fg8rlJfO3okjhxC8LJcobtyA8CyeeMhGKuij7OzcyaahdIeMlmVA7B/0qa2LE4Urgg2v+tBVa7F+Gjj70iNCokMZ1Y+Ww4jHBHKzrxnBCYrx+GJD6Qw+cQctrknpa3ODlPPQMnnGMdG9pdv5lw377m5M9BEIjd33k7kXX//ve8akcEJ7wTwjKqYu2SLIUdLlXBfkYGMkPIsLxrWqo4zGBvjJzhISXtIfVjlze4MrwKDDhaR1IB94QyiICaxY5r0oMxTBZGR7hFtOIVQdKTX0qzHNtIUmPk2DMMak2I7+GmikVSN4gJKZoTkIUCwe2ZIqeIUuaXRLoSzQ5Kau5NDyyctM1Mf7gjzg8FG6EDGwaq/d2LifNMvcyJXaHbSRCIneLJvdFcqsQ5PT06PRVEdOjkDpwQyKv9niTaDFUME92D+rtMbnIewEIEKMFjDI+HlpAs4DbPNvLLHf5Scpxh4xmimukPVJsrxQ62NXs/7cTVGb/nO++8tfJRot2LsFQepqmIZbZF7jUTY44gjqXgTuzKiJOsSJGIxYAze8wypgTiiHPeenBTlXOuHIFMgRbNEKqrobPf7Qwf7Kzd6rpvX3/wZaJzIzZ+7Y38ntq8o4ABxn1C4Ut2oan8mbDkSsEXGMRhEVS8Myu0GH6Pevs9sltpA49cRwqSCUynrHuxdQEunQvBBxBExaCrLXtAQb8ZGcDsceGXglrEN0huxw8r7cAxsy6mP/YVVRvS4GKU5UkUccTAlqTnsnwl9pFDWnPoEtOV1bLM6EwBVbhngJbKZ5+P0N/+bD3yiqJYc+1fU7KAsE82JGNAzID6F9Hd2PXkOnocZqyXycHXEGIgUyGx0kguAgu7O2SK0XFKSaKna4ziKcKqCgLPem5QiEUbYp4koonMa/MMzXHQcTMsze1TgpSOGgtMAppogxgWVEKMAp2kGDKuUsi8RS0rScRNJRVAo836JaLRhR1VEFeUYSNtwngZly3vgtOBEeB0dxq7M6O+d/tojA/p1vmwPq4lEBvirVcVjbkozKj0CU8bGKIekLhmXCZOUlX9MQ7krg3TU7fFJX4YozdqRZK3H19QxDsFSwEf2WhKXd3qBo+D1iBd5cFVhyFZCGMfgxj+rpOHAElMkOyI9SiTDvtg26Qg1XI7HjsT6q1Dco3RmeYJaQtK7rk3WQ1Ig1SUry5twpoY6YR70ziDITCmXD4QAEQ5ko7elwd3d9bHRsw0/5ISv6caJnPAJv5HdbXae/m0NzB52GkIyQOTBKm2fEIATSwp3JH0x8CfcVl+BSiQRKdEShVhRLNoitUEPZ0D6UcdL1J4VdsLv7KHqqaYRblhdxDJcAE6/N6Va/yxYC9uDX3It9bjWz5PEjMNPhch/+BYAtvbmQWXnmKIBGyp7XpYoB0yko9QKJ0IUw/jR3Z2t7vs++InVGznHzWtf/BlonMiLP4fHtoXpmQuvMjVdxlR/UnWBHIb10f8yKk2QhP9EKmAghW5BGsEYBrWTRMFQUYIjDNxOqWiUygt6IlWvBJuuos9EC2wQp0GqRBqD0WLQtdeGlCdVo9KyX/ggHkLliKPIL7LPgpHgfUI8S0UmcVLtJKYsnbSGSIbPFXnEkNfckKjj9ohMxk3ojtIagPP+wU7v2L6MZsPPeQYaJzKgF8ffe++7Fvp7rSlwgTqDd2Zi0lFITV0qV2S0VGpYxp1BlFb9AJQp5eJ46pjJ2gyH0HFSCAKZUMcN4lJeNbsVrCRlW1dAcBi6v/b2cyUtyskDNzHnpDgEz/nVrWIhiaKS1iQAyfNxIXEO5o+YWBZymXVESpSCM4IXAm+lKq/hRLhXEaL1bq/V7a41+iGncD03TuQUTvr17HKzc/njM9MzapoN3jEuwyO9APNg7Z8QHmJ+iK0xEQNAxPCown435EFpp382jXghk8UwwTvAJTJSMyStpBiYb6Gf1xTFmVK0VYlCNlUBgaUagDZAp2fkFtAWl4XeCfumCzjEtBzj8AgOix4bCHNRdTdr1veCowSZ9Y3jpDpEtFFZrupr9r6JSGDQUi0iiupu9bYnp+5o+CHXc3Ed8WsaJ3LEJ/SoNjc5c/Y+VmOqMFh4dEHQCIl+CA7DQ6doditlUNSI3FNDibU4DhPN3PvifMD8EZwJTA0m4rFRjLLqnlbjT4qRkqrV4c1ViQTADuViyF81VHBUEVpZ1Q8xJuPUKuFEHZFJWdevhTTHx+C9JQVzBy+VncIHwVlWVi2M2z6RkxypJRFo6dMxbQKoKs1StUYv3V89qvPfbOf6z0DjRK7/XJ3YK//Oj7zzXHtiemFKgkAAmVPSNGVFp28Gk4QD4sqI04MYnpvpACqLOdtQ/VQo4zVawJGUbnt/HkcQVGi0ooOFUGFhtc/vEQ+iUoIQEQaL4I+dGO0u+sfrIqFIypQxnew2UodJWHIEIYMVeCNOrTooRSWeXlde73m+jqQoa6tfx58xzgg8xFERw84N7GaExkZvs/+vPvJAIcKf2FfV7EhnoHEiA3gZ7Owsf/z8wsIQTsOjFqCjm7SVKoptDQdSOnl5yIQx0gowDXgXvMQBC4ZL5JCSb1nk/TwyhLwI22a76JZwY2WvRDYii/SshNr+ujsuuDLC/nA2pFveVgFQK7kMp1D4bDlejsU+JXpmvNe6Znoz2I0bCV0OjrNJv1D2y62OtfDcGz3B9q9q1CgEM5zM6MhQQzA7pWu5cSKndOKfa7f/i7e9dX5x8fZXYD9e8OGDlAqNG+SKWhjGNsnjMjJIWLTOB9IIqxWXA3UcXMI/JUIUKrl+uqQbnGQEijziPtruuFInsIbM5iUiKXNuC2MW/AEDN1RrrKNEF/67lJV1DFRK6OPZgYwGFnMYflgNpKQrHCoCQgF2eUkikFySVWaAJ5JSJRJpiyuDEwOfwfGYYKefu9sbTwzYV3nLHE7jRAbsq/6DL37hEzMzczMGU3VHlhDDTbUkqQgMThryMLCE82AcGPE1R+EFnIzBGEQilWiPBIgA0xhWk1xwlbBWtZr7+Qp1eDpeGatJBMA24KlgvHBHILmNKeWoZV6Dp9pe+B1JbNwwR0UG7KY4EHDSKNEn7SFyOgxX+Bz2hgFuzUw1czUOFaIZx4H0ACDveqfb2uh2tsZGF98xYF/lLXM4TRfvAH3Vf/N7v3vi7PnZb3ebvYwHJTNuYCKhgKKuLnlDrcYADXX1d3YDZRy/QaXDPIyaEsDVyDiFrOaJVBwcyMFY8Jm4Re/p95MRsC3SGA/LZvQCTFE5NFb/1mwBSf06ZyB2chh18IsMmIpbSArGLbiI9skQbqVX5pnh4Kz4TpWJDuSMrkjrjMMwH4s1Q1TRIW2pozn5hCjQ81Snt9H9+Y88sDZAX+UtdShNJDJAX/f83Oz5C4tn2jNyGqQD8CwwXkZHolMqBnwMEeMqWAGL9gi6qAYZtUKXkill3gq28uqMyAwYyu8YPpWbWuVxssC8XoSS9Tj+hkl7fpP+C9FMQ7JLNEOHMK335TAc9SDi7HTqGU6NP8JZy1S82trvio+a8Q7wRCUNqxGQ0yVSlEJ2syRBoeB7sp+ioK6OBcYqx9oeH20EmU/xOm4ikVM8+d+867HR7qf29heMgUBfn5QzsZNA6pD0xStzAEpWZaciPA6nA4zCgUYZ/ARIQiUGA646pOiBqExKSZjHEUYOeonYEb0sJcow07Q+vtva7G45jXjlhfOujkwL8HXnbMFBSE1MOFPpt3bvhjgWcSK2VfEa+nIMsDpaihJaYiHwkwQgRCMZmJV0Bw5Jfi8lZ/2C2hueiyrNZq/bgKqneB03kcgpnvxn7vof/MRfO3/h/F33np2fywgIRx8xZMBGRw7GAkIwo93fdi6D8wQ7I5MpgRh7KA6F1w5RgnW6k9cYvCQykOMYkgPYR8tUGwOwdCrjOTCQwjKXF/wFTCS8FbRMcuQWR6oYC8dUyG/4tYKPBggmqnDJmOqLHJTe7x4aK58FNKWz11FSYazCUEW82bohFlFi3kxeHzIbToYUyvom5YgG5Mu8xQ6jcSID8oWvbzzxUcqeKeEGQKUkS/u9HYnTCv0sIx7wEZnDkhU6Rs3/ip4p2AKciu0tRwx2R3AvqMbgpIYzboE7lRAbo/5ZX6QAo6a/g4scCiGHFh/AtjgQ/U75mX3lGKzw6tSFbaNs6PZ/g6h53qpq+2AnGdQ9BJelVJXYNrR5Kk6Qy/g8WxqNyT7AaThH3q5lERKBiYDW8ENO8TpunMgpnvy667/7oz80fPtt937b3PSUjZaVmfEMNnxXS4SH0FxHakJE4VU4ToGbS6gyvEOqOWJEem5XxqfG1iL7IydhxXeo6Nfm6yaKwVngWIg4ijPQY2AP3r52BtGMG4bMjSoNpVx0VI3bKPzgdTyGl6GJjsPygPFCGPHx4oBMVIvTMwhrINY9xn6SihBP1kqQ6fneZ20+zGc2XV+vW1m9/PQAfI237CE0TmQAvnp1xZ4fHW23ma3C6ioNEUcH2B4GWme40G17yOqEPAbsgZFSzSllUUcxJW0ZGZ9stacXrHl6oKFWh6JDVDwoj5SfOCnDoUQUOI+y4rusbGMX9qARlcZXcBQAr8UJ8DxUdNKfHdr3ddABQSPUvCvRZfAUR1GAvt5HiXwKnZ6qjpXlS/pWgVnrkOjfuLRiSefYDsfJyAoT1YiglJOdmb/3XQPwNd6yh9A4kQH46re3r35kqgycypobBme6d/czNJteE6KCUuZ0NFJUzlLS5T2UQmP07qA1oJmyqSfDkTIU6IRhU7ibXY+eTENb9FRRbZexOooYUQTSMxfD29PriZYoI9cZM3TkqjoSDgl9ORX01dZ5jDSJcnW0T4J/gI1QdvaUO20XUlqBPa5Vi6z0DkjMsYUhy+dje/zOaAsU33T8/V/82CfXB+BrvGUPoXEip/zV//33/tX5qZlzrwS8tKiQNUGKU3D1Q2AqEogGROuYJ4cEBkcZhF2acZ0+WLYUj+KnKWkEiwCycNu/nIW0jN0zYwnEkp4QQbjio+2a0q5oImxZ5tpmMBTOyQO2S1WG/p1tA7Dw16IW75GZrqRE98OxhAlrI62O0itumZSXUnPSGDwgUU+aAdNiExyniivZP+oOQxVHtCbHZseijOqUv8JbfveNEznlS2Bp7bGPTk3OTmE2pAkYJmMj68iGatTgFY72zaGo83Jj2L7ZcYBDlPJovEhIXvxkxd9mDm4eZ2avNdcBJh0JpPoToDbljtpmT7Rx1+J8Sa1wPgUAttmnDMsbMtozZWj7Bd2NYxgATqyRmTk0DyJbwOcU0CsgFrIZPgfAFBlFDTM3WOtGPrNgQ9MnbeLcUCWyNKJ33txO8ww0TuQ0z772feHCva9ktadj10OjMHoZMg6l6qlaZ1T/iFb2XZ4lQikrOj4B8ySN8ZvzvMWQHT2Ulb1Ytl8DkY33sJ2i6u5emOJQiDRIaSZkqHTvrm5u2EsRUZj/gcMoEUvxbJ5Jw+91dCZyBG6Uc/s+XcEM3OZY0tA3KqfoURG4jwoUmw+CRECkGflE0TpJalZFpFc200kM8UxiSQ3R7JSv4caJnOIX8B//2A+OTkxOT42LXJYxCPYCvlvwp1RmnCLAOiXOL1GDCVkO+Y2U2Pgw0iFSCowdnkVxPryHVxqXoM+mUODd8KbnKKe6i7cYboBWTDiENnp4wEaMSbhik0iFAVbcDAKbQZZKi4+xlGCp/lDRse6qXudOZJyXtkX1hfQEh+m3E7FUTVj9DTcFnggp01apxATvSfABs9cH0txO9Qw0TuQUT7+GQy2KWOYGGaKRIAFJR8ALKI+S3tjgTEXPamwTtnKYVM/gfRQDTodKIhmv8sZTImbE++ogqyQvcUhDAkP9V2GFsmmiBva30e06HUnRJCEPkQFvxcDZvjuMtX+Xg10ZinC0oyOcRgFa7Xj4TLgzUhI9j3MKbV2OBCElJAv2lcZActNre3I+PXAbfSyrlwnLwdGtdTqt6cm20xkN8mrcyClew+y6cSKn+AV0uk+/X3yQYYwpPS0BDisO4h4XbN2yhgFTXV0xdpEpci6b0o1L+lCiDKKHEZVF09KfYVJmwSqFSNSSWbZRIcMhBUil4mGmKE5MDoBeGGuZyBHxOyVWfloQqTgVTh+dtlRmrBTvdCqAKTf6fCpDFmCY2MU9O0Qm5VXsm/e6/kQVqIC9VlPT9hyRiN7O3x2VmlcRRtI/BKPXO5shsDS3UzsDjRM5tVOvhrXpc/e4S9ViQTH2Gm2QuoAbWAWde4lOrDYGXd1LvUqyUMdL51pSECKCVD5KM02iG5TTnTIkAnGvi95nR5KH/J56DNWRUd69srIWklk5Bma81OCE95By4HTYT4aAJwoibWFOTMUziDDwWTg8U/FNQ0kKRDBlDRHqPI4tCgirJ3g/VPy+nAmkt9npSUdfHMNef73RETnFa7iJRE7x5P8nf+OHFBiMTU4rr8dw7RxMMMMUizPh+KxFGqdharrb8lXJIH0wd+TaOhCMhKa2/LRzwOFgiDbgyABglOFtgIlgrwCiMfqdIjtYmas8d9vZhZ2nrzz+RMVtKEXXWKOWfUnH2FS7lKj5ndfxHqIXA7F8TldwGMydhr/qxHZEiIOZ2jdpLUOu2DcpCykMj613eq0nriybN+MBXrv97uLcXe88xa+x2TWRZXMWTucMDI2MLsqixmx4BlYz8R4D9yp+aKh0twZr8E8cgv6N6T0ersCK7NTCwMdhNQZwNeSypCs8sQPjkyoHK75xk4CjlFOJJuqtIBqt5fWN1szUlNiw/ccvzp9/a7e7sRaR5DL/1shHMJyQyArZrXQAewqfcRIqS2OtNsLQ2imdu4g993dwZvyd6InqlGVEdN+Ss+TQOX4cCHgITnRGWMi8hJomcCTD+533fegTm6fzDTZ7rWegcSKndC1s95c/1B6fnDTYCcahfx6SXcYsONBXauAJmNiqcY7IGzqyYD0vaYhTEZPHACZT6kUd3WkQuAoEMUcpUUU77FWpfSukMSkGBSDVCxE/SpojuvlWd1PvvqKu2y0iHGjtODo7AqUY7OeaqoDrLz7kBFL5fHwItue5OIX3gWPsV9UyRyc0AcIV8adrbcpxdOX4VpVSrW1IwUypjIDUdC374MSpb26nfgYaJ3JKX0FvZ/S2Oc21DZYoB4BN6FgynkEuBbFl8AV7k2AWRBuszFVvlCcrndzlWDfT2ON4Y2akytDZNphCeCAhk20zCpPohmlzBQQNniGSmZ7L0KyUZTH6f/ZbH91e3djYOiz/6oDCOE3c4hnAOCHxQozrlIjKvXMHklDU3ybRFWfGcSO+7EqMqy/SCFE0tOsIRdERKYzeDE+FD09Hr2rhlos0/hLchK03t1M+A40o0Sl8AX/vR98xfDAyOoO9M1eGkH9b4fuMOnczgiGrNlRxDGZXK/+YIgMAVDsYUhhHIxEgCis1+Ynp5xi4W/tJByKW7BZ8A6PhgJBC0bNiklipxngcg9mniVsYHAU2srTZ0/AbKSNOz8wGJE3EUvVNKPuOGQANpsPxOFLBEeLY7GQo7sJg1f/L5wuDNlR6s2RJdfYZ1p1eGRwN0U4EiJBrjO5sJZ8xp/gUvr5ml990Bpov4RQuCc1xGV2YX5iwoclBYLLBQFIhsbVhbICRhdW5D0bgpwAKsgb7TirhNTn8CxOxCuHLEoroimD4uAXwCaISjNNRThrz7JjK4z4GSqkMhVJE0JUY8kan63X/6upan1Kr2/t1XAZYCxbiVEqvybCpRFV2TqA5xcHto3UC3X5PP/elLi+hZ4SMAtukwZBIjBvYyy6DhLWFcfkK0pja0UxpNzhS8VCn8B02u7x2BhoncgpXg1bUWa20ssVMgQOHxDDhYRizIBJw6lG4HDJM66zC/HQcf62q4qjB4GocSlITQM6kFykJy2FYvSyOx5WRdLnZ6MEt0FN1pEB1BR8GDZ6IQu8/s7jgYix8DaIDRwZgLaW0HMeXBrrM5UW5LA4RMSFm32Q2TADeMTfbxUkyEc8yjTiQ4swylqJgQo6egs1Q5SFaS5QGka6JRE7h8v2WXTZO5BS+haWVR/49AEdtssPuiThqiu9SbsEUMB7+9miFwkiNfikFjdDWC6SRKoxXfz2r0J82e/7tIais1/Fle0AVfkZGbdq6fifa4IZsgEKNDK/SP1Id9t9RaZWbyrjjRAgcK5uookWHIx4KMGw+CqkYDpI0hBK1XVucG9tkPIX7ZuRPEDTCaTnT0YPTbbFYK5MVIptlGcmo8vlIa3BCUqJvmu9O4fr95l02TuQUvoSFM7ffTzOdxz/AMgXDwGnQmyKDN5GKwEFWWNMQaOBOERJohAma3EOpQWjkWd0BVwOwelYu29F7d/YghKWN3+ppMFZpjhMecUinJ7ooeh3RFkm6Q3mWm5zLbi3ZBngNJd5sWCuZpcxLZGMqvhzEnqOka82ERCO8FAyFyCIclrBUIaZN6zGGlUf46EBpDM4jvUTuEgZDKeVoCTQ3zXencP02TmQATvookmMyDCIMUhZCfqw9pc+04xvrQLjHTsNLu1vleR8Gd0CUAM2c0B4HAzbhSmqSGgOo4l/gOLK1TKuLWBEDowLYulFOb+wqAqHE2u8zZwZwN5g7oKwiDv8x0W6PgEV09Fo4HR6dSepi7RCqQM477HyMi7hbWI8rnTnA4ZTIJNFSOn3ARXAaOBSLL7mRMFHKzOSU8RuOBYcFMc9pms4TjwvojXdrbqd6BppI5DROv6wWVS6LEBVSWZgUAU7NSIUzQbXDYUcxTgzPCukYbMZPgqM6YgHvcFk4IClPDrlHJZT5ofGouPNUHWQVY091B/HmiqOQPkB3j0SjnM/u1pLdl6s4SU3SzRvVMYOiqbkaSE2JV9vU+5mQ56FUoZ/olsZBnBCQhkd6misTeYKcBZ0NMCDORmk+JOVxdKRnTddPA2Bz/Z7G9ftN+2y+hFP4EmorO2lCFT5OCoDNy+BkJHEwGGAMKx2xh2TzwxQApTIDmYCw/K6SKKMgeJ+dgiOAGh0kXeG1LvsSDeEoinwhBg14SqTAqg+AOjl+8NTsxNnv/akfepdgC5m0gdL0+xgfwdiJPorB10ZBpyhFf8SRhT6X4iwLQlsBjTuHWYFTXIc5LprEx2cQ4AreShWJCAcnYvV5AF+9B5q9nFz8UnM71TPQOJETPv3/0Y+9A5NWNpGUA8Mx98HAZ9IaOxZjJAXjIIWxvRT8AAdBVQPtVByIeRalkQ4wFSMEc+Qxj9CUYVIyZQV37wyP83p4HICtO27F31KFZkoYhI9FxoqT29/rr/2L3/xQv7t9+YGxsfa0m+0gxAH+llJyNFzBNWrjnysn/mz+Z6cFrR1sI86Qm0WLPEUvVSU+InN3iUo4P3BEig91X407lnWcddKePkfjRE74+n223TVksxP+EjADGd2oRY1lAhivy5k2IhkvqzpVF7v34Bss0EQPY3Tn6lGiB5dHpb8BIQ3OOq+vrfPkElRtkEIMTlEqP4CgSiXooYG6XjbsprukKcFkwEZgigKC9rZ2x//+j//I7O7+5gW1+rRJsyCHkVrMTIFRxPFZJY3USEx0SrpWJhNT1Uds8BQAuBSGHLWkfExk4kqQSXVxhjvSFOH49JdTu9o0aH1VPb+60Smp0Ql/ec3unvUMNJHICV8YGg0xf/HcucmUdNMIFxEflS7BFry4JgqxUZuvkfSEOzwRByjEM6Ur1gplimLM8dBqT1VkaOyaROIeJVtzTBjFGTwDNirRCACKBZW1bQhmubGPqM3rcO9Y6y3/xfTM4m3a/tC0ZBwrmzR6JKHt80EwepzaoXASjoJjEy6T/plwYnCELvcegq0p2+LwwGZc0raDDGjLucCpuAxMVUeyjZaK5Pib26mfgcaJnPBX8JWH/+z93d62fEEchG92EKzeAIZ77lD1ECcMvJQz6U1xZAIu4MqH/gQ0NcMzwGvlYRiUhIBhKnqp3JAyGIvw2EmlHqrugLM4DnJgExDV3JK08VNKffrqykR7YvHuoaGxGaon7KsKFdXB4HwWyHBsNyXgcFqYsusqkY8h0ZPn5JQys0vbetyl2/LTc3n9AXFu4akgGE0K45k12hbHAZdFfzfpzAlfv8+2uyadOeEv4e677r+vrqKhqCfKwHEQ0qc7FXwE80YkKM7DDqcCBKXFftiDr6llpOxZ6x8O/w/Ni+dS+XAqZPWxqmyW/horqkNjL1KMNMLRhIfSGeMipkgjZNATWv3hjXAopBaJJzLsapRKDI6rRB+uzpjmToQVFmzo94myOBawmMgYlGqPfqfa42FW4Cg6pj3xW6C5E2VV0BeHg5PT8/GAze1Uz0ATiZzw6ZcJtU3/ZvWXg4C0VfEPHmvLUNNNm5QCQ3Lk4NSGhrzid0y6CHjqtKhEEjFUPcQ2HBkUxTD9QSoQ7dV01bJNwFYMNEOmtKb49UgHtNR630vvjjbCdD4AYKICytMclNXXilQiXbZObhJEGBdheLfL0Uy34/OS2oTMYofpxjsde1/K8jiuruYG4wCZpEcahDPhmCgB17m7kWasvTYuZje3Uz4DjRM54S9guj2pzORaM5yb4vwPakQGeEchPaMpPe4So3HIH44GKQ1MV6o5mQwHiIqgcaQGeZ6tGtxM1dQ6qDZKOal4FzgaAjXNAI2R4yDAJXAiVGFmRfaio5ZtMqGPWS9EBcvrmwZWcXgwT4kHPNQbB+a6LcdUZufIUerILDwUzdhCSgPF0ftgqbp5jzRNn3vL3cFJvUhzmK4HwQ1vODkx7tfgXHG++jwNKHLC1++z7a5xIif8JciInGl4RQVMLTwLpzHFmbB6YySs/LzYM2F4tuIehavBg06JCEY0Xe5A0QApzmF1xqnDsFIP4RvCEEZk3NtKUYhI2Ja5JXIYRBk4iprqcFxQ8okSLi+vpnu2gpja/Iw0PbgRUXGcVoQ3MQ5bj7Sje+rKWAu4LwQlvN7q8AXLcWRFhKX3ozWCY4IPwv5JlyZUbo6avbp42xoPkU0eCkeTDjW30z8DDSZywt+B8BAtpGKlynDMDwEScDRiE7GxkvszEoG/Wa1rSmMsteAORAuszjHgVDXSgKcXERHoaaIB981QLmXR1nMIDlBKpTxszEXvMUnNZLaMi3jmHOA33X+P06g9BnMXIbGwR/daKyq1zsK89TxeGTupCnhHqSTx0wrwznKKk9RxZ3uisw+LMIYbYcc4JXAPV2HkXOVUmEvjFIxj1DFbtR6gVRve7EqqoNJmT/g7bHb3jWegcSInfEVgKBhg5tRGqJjeEaciMjWwCl4DW7QtB0EnrqEKd9pTApZRwjal0gJuINuMocUJEYXQD4NC2AjRhIsi4CBodGzbkWCzvKfbj/Oo1R1W/cvLK3ZkE2PtCCLrjaRCPUU6bGeuRCGkHPMa7i2X6CoO0Q5lWaIORlNQgkYwmtEVkR0AI4l2CKETDsJi0MaLU/HBeeFY8UXsd7KtXppywPBnXALWkzganFZ6jprbaZ+B5ls44W9ATkLVVwDSCnTqAGxYpCH5CdmsrsxmgKBOVnFUAM0iKFQHVLnCUUqn3oRTJcc1AUn1IFolRABWZ6cqoueD7yYGAgOharQ4N2NgVB2ylghgsY8jSbs+h0l6U2nopDM4JCIYQNhAMAW7Kb95XIVdR4BX77WUsCs7ls8ZkWo+r/APKjJyNOzLIkh63APJdXAcy0a311peufzUCX99ze6e5Qw0TuSELws10EnZMMCgYwBH+cEouBmklNHUWbbYHCtubA/QtCCl+BxHFYxh0OpNtQXRZEBKLfCmpfMYTFA9QIXDOh7aVr/fQ6EwGAt8DHf6Cli1MJEijNkZG2pHTsQt+ERAeh0kL6c/rihVvkeqLeFwoJsMIGrc1vIAcQKKGsA9RiXxSA8N4KiOh5TlcNaOHIyn/Wk7EM9q2aXOqiGEIUKroCoVoovnX/WjJ/z1NbtrnMjpXwMCAw9qq721UxUdwMcITpKGO0qiZq/aPKsuCCSz8Eao1FDBybKvx3A+5aMREey4VKp3O9rJ+IlrpeJ0wKJ/ynGwHVIomKbXOCSivatSs6lOXhrxADxxAqRhGLJ1QIqZEx1YqpB/BeitzokPwyHKVYiMpqqT+4SosJAmRYNkRN6sPY4zwRGFgFcZqXT5Trgik88bcpv2pzSruwW9dt/dxc3tdM9AE4mc/Pk/8MouwwXsNJMTgBNw1axOyFyUSEM3MxhayqCmtTuj4L1KH8AIAEIVAYS4Vh0OjiNl0Wt0+gCrRCii3vs5MBD6ZpJSKDpSShMKfva5QETiQVFUeCLdQWQA8Gsw2AgqJVxFNIClavknDAm3I6nINUGkALq7u9ItETYDqcyfDfAX3MeSibw9pDfSJTivREk04nngVomarBS/t9P/uQ98tBkZcfLX77fssQFWT/hLkLGbDubqiqOOGLcRDNINjApNEBOzYH1GRT2qXvA9Aqr6RsXF5V6sT0anNwCm4mnMFQFHgP3J3Blta0eCQ6QMbZVO6eql7OtKTmHK4igAdCXMHLKXUVk2F0Fp+mYwfgBU4xc0ETr6gGFLp64iHvpkuPsQ0UaBrQp6GodjRoy7eMUPKZ+Z/aQNgFKvun/ZKJGZmgVpBeDfKMOv9DAclY4HexdBkxP+/prdfesZaCKRE74qWO3pkI0kYhibGBjt8nYoxchIIRKlpHUfP2MwEr+BcYIRYLResQuU6SpNjJDtUqVhH8YxSJ1gnKIu785hANzwVTLHJbjGpgBLHBbHct+F8/65IY1VUhbSGKpJ7HdKDgVDN6RTWKeUgZk7Q18L+3ZpuTJo4z4cadmdyAHhqCxixHEXZippXAVteTlRB8fY0yBvRmq6xK1jFzjcEM1O+Np9rt01TuSEvwiJ6YyQ01dtUwwb48wohtDaHdrbsWCh0QM5FORhXcfgSTtYsU1Ay89DgoYeCWaSiGCPNAW+CJUWysP6He0QHISdDRUblXDZBj08btGXMQfraLUuLC6YYEbEgBFPVZzEJVu9FjFl+mqISKxENm6wl5QmjqYOuqrPo3QWfde+qkbjijjYJzNpKCcbqi2As0FW/W7gVr9wntY2OxKPvvrwCX91ze6e4ww0TuSELw2F/kPQxbkDLIJRUH71TUbo8Q9gFAYSgTmCFSQViHXRk1dHOvghSreWFsCdeG13mgPNfVuhv1MWnI1LpGLDusSrf6Qi+ofzmhC9nMfZLimNFcq0Nff26HVwOvo4Gr3PokB60Kr0HCN3vTZRQnp9kpoUApoeZbtjAKpUaIilYLbqN+QTx3WfUbXF1R/jPlF1s6A0FSY5UsrY3a3tEtns9aanbnvnCX91ze4aJzIY14CIZdA+UuKVQdNCD2ELi2JYU/Q34JUmwghkkuiB1yCH6KFOtMkXBTTnOAWE3WVot1/K0Ch6dLD3SBpSAdlSuhLBIC/1xjOsAq+/IHF5bKVuT11dslHboRVANr0z7dbq2pqdE84k82RUXSnpENuxzog/Umnr5/PhI90vCMEtxDNeRC/OuLaTSKuy6mCswuYNA9ZOUu+NAjwffavzCx/8eGcwvtHmKJpI5ISvgZX1tW2iELfdm4MBUSuELf4mXAd0ZSUmGiD9sH8AhC1CxddW/0QmxlWYkCcT02gYpwO+a5ttrfDEJqa18wpwTUcGQxJj7hxGNEQpUzT/4TFkuByH96u7OR6uniTsWBdGsr3dF+19w7R7YyDF2VgHVncIbdFSRVSIaAncI2kJn39PjlDq8erbmTik2TvSkmNBhoDuYiIiUjAe72l/HTk4mgR1SuLpmttAnIHGiZzw16DVfYjKCJwQ0pja/uFuXBmaNTkMb4QGHoV1NbkV4pYhVksisipnUJVJZRibh2kLtyhVE3Q8mOFb9VcNUsL3sHGG+8Fz8FR4nJUeHIQ05fve9O1+rvJDAgBL90TPz05Pt1555212TOAkFlFi23QWE/24lT+iQhV3MWxDZEIkQZnZ3JV08lJdojKE4xySBivNeByTn1f0RBUJwNU0dzmrS1eeuHLCX1uzu+c5A40TOeHLY6vf3ydtSDoTYWJWZwvueCnmFqDU3buGJiLik18jI2CWKakPhoW2qcs2iWZMIUclnbGXVm8vaQR/kwaVaCHiSAFcqXywn4zITLYDc7byNjiqKUU1OI5ZjbLs9HdbZ+Zn/R66gQFXq9ORYIrTG6os7nGRcwLjIS3jsKHHs90JkcxqpEOqg0OFbUtVB4dWJQG64pUBwgYc3m0tzN/97hP+2prdNU5kcK4BOYEDSpas9gCHaHqwFGPQXpKpdhTeeJxGASHxOOZtpHJichet9PBISFHADQrASmrB/Bm0OtwVC98CglbhfeBs1AGbDlvt48zsrCMKqh6Mq4Ty7uNzuhVwE2eFn/Jh6D2uwnicZT2s4C/pjwkVvqrJO9oox814igO2RXrGcRayHaAuTmRHZWLexybG1by3rmPCIdG1u6rfNzobXUk7rgzON9ocSROJnPA10Ol1t+Fi0PCWUB+jS/du0Q09DEgwsPiVyB/CpzhsWCvNboZHUwM9lEh0D40wh77wA6cXrqJQxk36ZLEjqiNyNACpOJS2OmaJHK5IP2RtY9PcDKIBboflZUc6qRKFsSoKelEa4/i2IbY5xQl4Wnt3Kl09w8sBcolGFGlYKDaNdaQw6d5NwyGYycrahv92Z3MpWY8OH/Tf9/6PNeMzT/i6fb7dNU7kpL+Mvd6VKtIMX8TjKEk96HMh5C/G7uoMKzVmhicpUUrFHA48W7fMZaGaU1Me8gNXeyCbRZUMkJNogFTADXmlOa+qzOMstlQ+Jerg9sjTl5wOeXB3SavgiXQkl8igbW4eVYHCvMq2HnMJ/mKlNJwO8Q0lYBxJHIcPy58lh+fhdX5MOJBwmx04KHJIgKc4GQbqgIXg9Ogm3tSdlGtjY+mRk/7Kmv09/xlonMgJXyELs3f8oMBClz5YgTc9piE6GjTGYbxoc4AB4FzQHi3Mq4AiMkh6blw0ZfCTqyJlKh1DpBAc0lOUSF1poSrje0hsrgSVknHigOiMEEGA0zBM6m1veaMxFsDNRCFp03fjHX+DudjS87in9jkYSlrmyX16LryRsE5hsuLEPGhL+0F20VvQe67hMTiy0Pu3UGnDiWn7cFRI6zq9Trc9fu4HTvgra3b3AmegcSInfIlIUWx1a6vXxx8AaLpPRDeiAzREzSCVk0BOMASt4BN+GeVcE8bCZoV05ndjdXBGwDHwNKQcBZcAczGxy5UefE4ijK5Sqrw7zX+mqOv9HT0OoFq1PaYFotIAl9JzptAlDRMYq7Krh1658kIJt6QkNOyJvGbOC3fwEfu/ItRMKqbPhu4qTutQkgB+SboALEvAfRNmrR5ANFr0ue7PfeAjGyf8lTW7a5zIYF0DP/uBT8qeD3Yw3/TKJMAgjKeugsOoYzF5LtlJgEgMbwTsQAu8htvZUdhAqfTQa+NeGTkg0hw7G1V/wEEK7lLn56YhLzRyXoO0AJUXXkaKxe/GRIr6GKmMowKiJ70G7ITmOFIbU+bZno7VJWucgF5bBYQMDCMGMKwysDt985nc3u9jD+BLVQgQmG3tClxFa2SHqIdRnvpJytXfllJScxu4M9BEIqfwlYj3cYByV0qYqVBQCjX+wb9C+HKc4A5ZQxxFOoDIgwdKOddRie5+nR7DE+h3OyjYXZDW2C5VkYKXsPqnSS89LUQZpC6kG1dX11UR6ZpJek0FDRIbuAeRRlKWEOHSOwPQAdLpod36PbKHdPRGiBknto1jIxoiBdLfiXwgwRVhJDlAS0YqBOspverBytW+0DUhzVpR9+7SyqWnT+HranbZRCKDdw1oxd5b63a9eoeCTjYSvgYdtkQZVvHCmUDQYvXmzjtK9GA6uB1OmKm039fW/DT/QjnXal+0PQBXuUHqwjGlRT+hDpUPnBj6qt/57a/2Pms1hMiEqMYCRsZYmEgHUJuB31RigHcRikbDxFojOibSMvRf2b6HcE+MucHOzFWo/mA2ZQyG9WDpHNa2iEigzfd66pMBO/FxU5Xa25mbvfuHB+/bbI6oiURO4RoQ3XvYnbxmoirEN+ZR9DuIJswNCWJh8BNgNGGJIwGiioyjzGPusgH81E/gEUDLHa3m6Z8NZuFqjTAI/IDTJaKFUjUhvdmQU5uT8DJRBFwRVn8cm9XkcVyWPZRYkCKUVF4YOkXawUgH0hya5NTfoogl4ss5du8DrVeprSFGBHhM2sI+e6oIJUUiGmKOjbqZRWLbVZe/+4sKq7anyszq2ooY71vrp/B1Nbt8gTPQiBKdwiUip3HgnhAZj6USGa6NMxBvIuSrWv7MwWGcsEJrikH6AmcE8SJ0SGozG5kMnmdUUcU+wCVDqQA9UAhz5SV9KBh9X9GEPYqe91ArOYh1iRGdmZ9zJEI6BP7iOTDaMLOAcRwYPMAr+yIK8ewYlX5Ikdxtq/AjLNVEML6Fdps0rNysVOZ0BtId2iaKPuRA6nxiSr5UdIKFUM7e7f+b3/k8G2puA3YGmkjkFL6Q9c2NHXQ0PEAbo1SvC30hlFLhRlhsmX4Yc0dSybAGKs6DqCS1Dq/iQ2qtt54I+ERp1gNLcFWGqEVP4bBAY0No23YEwaS94qJs4EQHGOvc1JRLtsY/9EzUzdK4R9RExBNMJET8vio0+KKJognCZ0D9zIry9mqRPvQ2jaEkVatO1L072oY7f6k44aC83zBmqRYRvWxtrTXK7qdwrV7PLhsncj1n6Yhf8+RTjzztKkpqoxELcim0kLDiHvjLtHbASjM5bV5+kR/DMbhCg/MgXYEyTlUGOQB6Zgp7lLexK6ILE9dwG0QqMEsL7gBf5f67breT4bUemk2UUZwZRo6V40jo96F9H8eGNACYhgWLCvDK4zgEIisAHkDUnV0AUrFoGRa+JcdAaVf/tkhxHCHBd0FE2uMxXXY24U2fTbqsW6PDC28/4q+h2dwRnYHGiRzRibyRzdxz8VU/iDKIV3j+mdilCokigdq5G+5EZAutDWJ5gAyGShUES9fqTZRRboyTsCoazsJOJYQt7+eQ45HUgmgEicOUmUN842ZcRfsmjRll3CUGLQeGlgiOApq8uSIFuMUR1YiKFMQi04Wi7uMGNIa5Kpo75V+iEIIYHA7H5s9EZ7E5M3FsLnNTrdHvREgbm6sbv/7pzzV4yI1cZCf42saJnODJrrv6lx/65Mr2dq8DUzMKYoULAqhqA4RPkS5eIgIcyhiAJtGI2/xNEgl6yYptXkiqPOFlsIlsqxK5Eu2gdhaqPI/Tw8PjCDOTfjhVgfsBXmGHQKQBAS7ds6RcUXAPuzVEM8Y+oNBulDfHoN+Mc1BBKtWYTPgTiayn1MXNf9DxK9FMuidKh7blZdBZwbGU0+KmwKmJ8Wbo7ilcp9e7y8aJXO+ZOuLXCTfYZQVn1d2G4q1vwoCl90NoH7wkVZeUgAO8xnGQxhxAWXX5Jt28bMRsVmMX+WqpxLh3xphLhj+lAzcDtHnc7f0ilPHa+hjOYlNpB7tL636o7FE6I4Ig4oADkkFWma5Xh2aRqvF3JvBZd6RUY3x8YCSOqop2ihmwSeWIXioeYi6MjvdrD33t8hGf/mZzR3gGGidyhCfzRjYF6oGBsiI7fDdGQobC39EAcZNaudWGvOia1hb6yABA4oKngXEyu7cyWYegtuq52sNiqcQShbBZWKc4lSqOZO6Itl3n3JgI55QkivMWTWKeDDyPOq0OHZHCvKWjt84UBptJagbnTZGG0iFSIjAOOna5mTbvURNxmEnbBKrKqfK5KDurvLt7+4X733Uj57Z57cmegcaJnOz5Ptyb6Oieyes+XRdXUEunryUkMm5OGwrOgLOJmSUSCe5aRIkIAczNgKUKkWtc4Gdey3Yx8jqcim3W6gr7X1Hb/4OPP+lCcBrusmkwCZxFmuuiQOZ+Gv1de344DF7DtsFP4K4Y89BG3KBnRwggnE+EA5qXKhqyiO6pKTN6IbzUtIu3EaFsqleGT9Db2tyU41w7pa+p2e11nIHGiVzHSTqOl2z1Vp9aWl8/1BBNk13SEzNDSwSAkWLhfiTLutMWmKhEH2mp5/HgDwy3ct+KIww1zTlqEaZhxbLS/attkx5VAPPimcXhSVVb0D5FnDns1IyzrFWkqLDncqGnJg4lXbxxAjkM+CEZ2ZmZNzwPBuKStV6EdglKZdDZGRXBWE1Xi8GD9I90qo7IwHnt72w8/muf+lwpSx3HN9Fs88WegcaJvNgzeJPvn56+8A4JI3sMZF21q0QiBZXUUCKFSOpwWJqlpx9nALZg3kiiA0wwg6JwELA+02pfdUo84BtymrZHmbWPaJHuHo8JPwWmqkDUnQK8ErH0zS8Jtd5WbHwm2Avero7f5AUBd6HoZ2g4xwSmwf55swFikheeJxUquIrdY8FpiIzc0FfYsgKfu+Nji99/k6e4edsJnYHGiZzQif7m3fzzf/+h1a1+d4sQn6HZdiCkDCVKoDJiSUIZVQBW9ElV5i04g9mgOAaMlz4VyF1EIPAstvR77dTVY6Gu45WCPdSuWCQJSWFIlRZmptVJnEHgGDPiyyirhzCWMnOIp6kaUUEJeSxKZKkKQZqjBB1yXK0UWfe1OAocoweDl8+G84Fgx37q/B2iro6ilbX1q8u/+NFPNaXdU7pGr3e3jRO53jN1DK/rdjd7gJiUMVmtMT40RbF4pxEyOM9pIdVh/xDPyr/SmeLHYYian4Fhyrcw3c7Dnwrr1CSz+BBvOwPDw0K9vLrqT4ZRazqfHZmFyfQ3s3ddQbJAEh22vN3dfXJqiWrGAEqNm0BjR4A64yOcmpUqE07pmlBRLjmiERwa1Zu2BJsJbqoTAXDl7VvdtaZr9xiuu6PeZONEjvqM3sD2ZJB7Un+3YhiRiPkgwgm4YUS7+xmV4Pb+Eg2QErjPpkQssFXppiXtcTpDtiFgFcwE7ghArcdREMGAW5BiFA0PsJOl5SvL2sd+D8xE+7Diekkp2C1pDuVcsqg6s9d4jbYd4n0m1XkflKiJSoBpaNgDcIVURoxi2AbBZQGmRB/miIR8hvOE/IbbsSyBGvO29cvk1G0i5TW3QT8DjRM5xW9Iq7shxSvS8Kj8CwzJau38A05w5EB4ECyhOhh7GSuQpfyanhoeU9PcpAZWFUDVlRKiiLJd3mfgFBxjZ/PJ2xbPv6V10F/yEG03xaUnxg147sVJxGJsBdzFx5ao6WAvHBbuae0v3I/Cfq14hx2ee2P2rd7W1r3KHJDKuG9HaZWbBBVVEREtrV7d/MUPf7JJZU7x+rzeXTdO5HrP1DG8bnX18tMbWpkJ/Yk4WKUxZmuRUu4lxnd5NUrugTUoCxcqvCs4AVeRDEMlzDR3XiF/4jKtIgHwhbbKqnZKfjczXnZbve7mpgZoPy530F/nOFwViiyjcRa93w1x9mH2aNYEgdsRmnzhqxgbLcdJ3GFSW2WduvBsrKdyXHAaHB89NQFdsx0+N7erqxrTubX62DGc8maTx3AGGidyDCf1ejc5P337O4WAdnECGJA7YIkonHqk3yUr+DO2eGjQRB5FZ8SRQUhleygB8XqM3OXVjOSEtYpaO4aLEeMEutvbY4ovDtptKQZpJ5DccGJdUdNTvg0Bzs5EM2BMXC8HA/3e/XX8I7UpOAjOgTuplFERV2cqwyU/8Y0cg9my9A2p6Y+2f8sK6PWd7sbm6Mjc913veWxed7pnoHEip3j+/+UHP7GhDEUVGnXGevbLuDGBjHKI3imOhZv7VPwzBsstpd3CIcHEDYqmugKWAamM7YI74Ewo55IaEV0A4F6+erX7vvf/9oHU3g/cYIcgs5yNI5GCgXgUpkrGbAfFNQAPMBLv30rR4aHUkjMOg+Y/V2xcEHaoUQhnqdLg39wfw+aIYPST/ePgkGZU0+7Gr33695uB3ad4bd7IrhsnciNn6xhe29vqSiYkHbTVgbjj1sBpUgYXOpy6JMXxnyaZkXbwSgwzfS2ew4shuzkuUQGCQdEkiRHzfk2tWLlw9p7vZlMazj2Eslg1ZNwShLKy26Q0YCvQ3zlWE8sSpfjYQF3LrXbxDlH+ZX9+USkB48BKebgyVP3ZtW1SLiIeyspf/NoXm1m7x3CtHdcmGydyXGf2OrcrercrqtbcKKVcwnqqFWnlD/7Bf8+c7+LBUjiKSn23wTJXJqrvKJHRe8/72bYb5MBJqIyAPQiJ/dnf/KDV06PnEbDUGif6jyjDQ7eprBSJAbsvDtbOKHR4E98Ad8sMHGdSpZpkRXl2wLHaGToXM6cFvIaSMKAv+2e+DtGSpvbt3HvH6xrtkOu8fgbhZY0TOeVvYXRkTPwxSquZTke6QdnXeh0llQHnCLCZMqttVLRytNQTDUSU2TEJ0Yuew0CJIIguSEeIUBAcYjvMcyFtqTcZPdbtKXNUgGj/R6bAho+TkhPYQWogmVUwF9wLB3JIe6d0jDPypg7nbYHtRNgoHb0u3yrqiSBTgGEwEf5GnrG7eenLv/F7n2+qMqd8Xd7I7hsnciNn6xhe++gTDz1eQUZrrsqZWNeUdMYyAWiOROzHi7oxhACvXucp18pojUE4Kggb1A19GLkcAA1vmetLSpN0Rk7i8LuvDXNEIiiV4TzcV6O3Wx5RNzNMS5ThsjMA6WgZ4+n2YIcvBnTZQ7qReW+cBUArUgMcP+MnMgxLjsXRV6IlQOb9g+nvPYbT3GzyGM9A40SO8eRez6Yvnn3FO+UodhA3toOQsaKnASiKcPE+4GlNWUo2AdgauUTGQslhkHLQNEuJtxA3zH7dULZSAFlnIYXzQYRyeenq4SQ5DaHaz4CqAJ5EC8gfQonHc4CpsJ3MwEnJF5DVo20K9mHAFrzFgUjKujyGElqiqIgU4VNQcQM0xnHgbKDB87rt7c7mv/vdL2xez3lrXjM4Z6BxIqf8Xfx3H/7Eaner01tVtcSixTImsAGsra2oAOwDs8RAqz5HIVckbfBKn/m2wVbSeEeWgRoaDon3QeYimqDUu7PdW5+buu1N9aPLyJ2ghB9SxKH1HmuH0PznKCNDp/ASrqeYgh/OCo+h72oQWK9JWlNSMMcvSYkCygR7sco9pSkcpQ6WlGZ55XIjxnzK1+PN7L5xIjdz1o74PSPDDFqIYDOOBGM3GCqbozcFO2S0ZAEjTHFnJITv/G5OCeMckABICrJHxUR31NgNYgqHAAQ1n2R4r/fzv/2BtWtOZP8APIIbTXiUgmvk4l4d4yKJUir13dFIkW5k38J27GQ8xY7qkP5FaClACsdmZwNIi5CRnuso4uFGCqc5Of2RscV3HPGpbTZ3AmegcSIncJJfaBfibCB9HgzBKQct9QgUqS1emIhjkQJMEmGwcrtjtyQO4Yd4wTf93MaqFGTMdPnIG65LJcxt+U4ntkINLTd6bxALcipVcAtHFVZfj/I6mAb3qnXiEi1QbgFHU5aOw0AEaQ91MgPFcYIGheUq2dYeToMKkvqEPERc5V2JD3V+/VOfO3RsL3TOmucH5ww0TmQAvguxVW2SsFZpwCNrcGm2pDXWNzWmEILWocaZe/NDQnPGUejq9RUY6KhATDANBIZK5sE2nL4cOpHh4T3o9xFGagmf2DJTlkjD6usWNCLA8P8S0YSNZrA0Oq4RX3bBBmBV/1INSs8MQDAbYZodTiMzgPtSMNuyhonmyjw+AF9Fcwg3cQYaJ3ITJ+2o37K6enWZvhn4G6uSK8xqz1hNyGPMeaFEa/qZIUsbM9iEfUg6ajFQz2lhdS94yD7fLmpnE+3iTCIydGlp+RuciBTQhsE/UBtzqmEOBxgLnblizaLFavjWdZdEJYFRjHXg3KLnmojI8AfYipmvcTx2JlRo9BPQmIin2+37Nfv7253h4YWmKnPUF9YJba9xIid0op9vN3PTF76XMZEVkARktTGCh1CWLcpmAJxuube1xohT/k3VI6XaGHY1cKIEHIfTHN1ghA6jFfCMm8WakStUWsO9CjvjnMBlwGMS79ShWQUPYV86UAZ5h6dCkJLuYxPSIvzq46oNfURL4D0AveMSbKbU29m48rV/95nPBZRpbi+5M9A4kQH4yn71gc+tDR3s9gAiKfWiKhYKfDFAN+JlEFQV+7EDgXjGT9+FNWDExWB5kFkupBS90inM9gFHryxd6T3zY+vxIcBY64gY0I2zMNgLUU3pFD05ALooyaPzivMwZur8pYCpgVyM4XB33wwFGeutRrIA3If0hRus3I1uZ3u/NfMDA/A1NIdwk2egcSI3eeKO+m17+9IE81An5riEB+LfIW85wghtPDqqpcO3sEWNX+BkOKgQNewEkkmk1JppeopEtrr9V9777W9+5vGLjDayMDNjB2BQFL6JX1COgfJy7YMx6U0OpIhEe5iWVc7iMCC+sT+AVTs4QiP9Z04IsQkK7wZjwUzQEtnq/OrvfKZhqB71BXWC22ucyAme7OfblYxqf1piQnTfGru0PyiCQDTQFW3Tqrta8E1VPBRBsLIbg4gcQAZSUYAh39BT+pat4eE/9rZ+9jd+6xuqIEpl9p9eWvJ+cVKokTlqkSMaH4PBmu5hnIXTKZipLtei/5qowmruReSZo490Uaj7Vob3e3Bior0jEq2SM9T6jfXLDaA6INfgzR5G40Ru9swd8fvW1pYue5BVkUnEmB1J4EzAETwAuzS3Oa1AxMz80TgOiyan0Y2+GUrDxlhk6EQBPE6/zFNXroSc8YzbwtzswczkpIllOAnKr2HOEhnR55Jq0bDSkgPwkQOcGspn0Vh1BMIPvZC0J04kdaNUbEJA22Pwt34SNaXytNcdH11sANUjvpZOenONEznpM/4c+5uduvC2jc5mn5XbhlaJWslOTNLCqaSWq4iDNAIDRkvVEUskEj23pTTumVNK927R82DbczNTZC3fcJOTGZ6WEyESSaRBxSTRQ1rzMuDbFRi9yHR7On6JbQz2pjrjSk1JZ5QUxQmV9ItgyTqy/huG6k5rs7O6/muf+XyjGzIg1+DNHkbjRG72zB3x+/7VRz61OjS0J5gAsFFixjJWsBBo7IgFFRWRdMS61JswxVAEJDBW/oJlUKZ1CbZ8uykJR6+kFHW+4ejXNjf3e/0tp0N4mGgOpcPWoyoMuFKpiSARUq9EQdEmScrFG81fAWe1uhoOJSMqiDpQgUfgCB+oSeauEv3FV/68obkf8XV0GptrnMhpnPXn2Ofubt9l3lGiDL1GimN2DHWu7T5pCalGiqfppLVEYgkurGoWEJSfZpYQmei1pEls78+/9MWVb949r2caXR0shU+oqmj02pgda8Zqpt6ZOGbt59oTQ4pTxloQZdCRa5EkgFpSqpShiWa2hIWQVu3t7fTvufPbm8FUA3T93eyhNE7kZs/cMbwP46o0cSINT4TDUcBelfHZIVBOpRoDAIt0obESIgaiA1IKW667ezudnhmnyYAQg97vvPKu133HNx86DoTxljiM9Y6aaF09yf5xBBYx0j62d7ddMiaicNUlfiQ9MzBWPQYifNW85hoVHgdEdzCOjNvK8mNf+p9+7wvfUGo+hlPabPIEzkDjRE7gJF/vLibbE6Odrd6hHECloQN4jjk6Adwk+tAN/AOjNbkLQhnORsaPc2EKng0/CuykIMy/Hdrf3njfBz70La32wKEIEWH09NCQTuE98EdWmrcXCh9lGxo8ALA5H0UjBGqsSSpEH2nYw3PBuDXYq5+kMFRlrOC209s8GJr9nus9L83rBvsMNE5kgL6fx554+IlxBmeTLRhYTek0VRa6e9MfY8BUUQIpx4h6Y1yd8edIqTczaPZaU+0IPfMcFZdOr9N/to+rOS8BTXQH+0iVKPtMp25KvxyY5824vBvBoYzKxHFwcGAgOBz1/5BM6T1XVtas5M6AroCsrdby6tLGb33uj7YG6NQ3h/IizkDjRF7EyTvqt15cvPdt0kbdpUmN9KOjiMDK6rJLl3gzws4pi3t4xdtw3wzph3ife9vBJYgA2mMTruYAagJukoZoFMS3VGb4DBudzv7a5kZriqFS2u+EWPG8PpLvIboZxDXIWj51AU6Nj8T/pOrilAYHEtLZnMSOOG6im0qYu3TlqatHfe6a7Z3eGWicyOmd+2/Z8y9+7FNra5ua3ERmoGhiRo1z4CQZ2k1bPpKCAiaVqlCx2S04CRUc8AzSC7CJHWEXRC8ZFrXvzlluf/ylvzxUM3vmznEelHZJgTIbN3028DnIlJh0h86ryWRGS4lC2HaqREQ54CLWGtHfHIPB3+JYeA+9O0RXV1aWthbm7moA1QG67l7soTRO5MWewSN+v5AEVWIZik0qEfzDFZoi9hNqPFhIDBguB68dUpev21qoytjOUVIPaxV1M+jur33Fm5+1RwVUZVY8ERyJB2ipHEuZ2KpopCppB/YnNTO1OhKo9lRuOFYcnUFcqkXwVdL7Q0QFMItyGdHN6EHnod/83O8/qzM74lPZbO6EzkDjRE7oRF/vbmRsRg7SXEdFRMbIPxdd9lvjwj/aAK2aSMewqzFFDcy2bbdHlfqEdMa8W27mcsgpuOoztNcbHjlYf7bj6HS6uxg5aQ88FTRNMuRK9HeroTE+c8RDsNi/KSrgJERH1aHh5FyNwd3gjCK12FeKRUpGZLSz21eFd9Kzbprby+cMNE5kwL5LGd9IVNDL6l4qI2GNIuYsENUNcY4LQjord7picRr7pqVHK9VWref7272t9/3WR75B0ax+dHUOH1hprIC1BlHNQgFLZRwFGIucCO6B/auLl/HeBl0dgcTh9SQyRNQCHkI5eheMRlEJ7FRT4He31tRs1wgxD9g192IPp3EiL/YMHvH7O5ury1gvQKqb4bT6Y+BkEzgI66gSqZgrwgzb8DZE3jJJjXTGaZCb8CLSXCbYVUj0W45Yr9PW6a3Zjs/B7VDi5Wd5gG05fXKFBucSnkjtzzEhTg6kL6Fpp1KUoH1ced22HMkjjz/YNNsd8fUyCJtrnMggfAvPOIbZyYvfr9EJG1QyiEiMI7jd/toYzAywQhYgaU7I6uKDKFJBL5W/AVVJSSy5qLb9ra2t53Qiu9u9NdikGWiVNv2wYhlHQeQTGr2xEEsdcg/lPkFQ9o/IIy7OzX9yOm731+9sd39/p3/2zP2NbsiAXW9HcTiNEzmKs3iE2/i5D31ybX5mUgz3ZB5gEdz2VQnZVbSxT4UGMhlcDt2FMrgaYnCVaAGqvIlg6KIGhF3Z2NBrOs9ZVp0cnf+BvZ3uSnpktI/SAKgd2WGYhWp+itvqwh8hQSnqZTXqqNqvHAvREdUksjE+y5UrD3/xVz7+QKNedoTXyqBsqnEig/JNPOM4+n1Js1MexRipbIjFikr69o5SBY/IFMZA+RYavMIBYyhKF3Am22ps2y0lXngm8EjGh3eZM/OcUcB/+/HfW9/Z2ZKBC0BVRAIQiiPhZpV5O6aq46r9EGW4YsSAcfFSDtSRK0Zs+mdCduPYqfL42HZ7q63WTNPyP4DX2lEcUuNEjuIsHvE21FGrkTJhhbKSQwDTkDxR3gE79YC1V9MvY9wV4yU60MpPdoEuKv01ocfTs7Kx/l/++m+bf/JcN0UOBwCrtSMXDSEzVLUvqj9mw8ohAK8OAbzSG6OoBcV2yG3sN/00RlJcVSINAtfZlXrZv/nU55+VLXvEp67Z3CmcgbCKmttAnQGlKaZpoRkC3GB6O8kEqQUlWP3btyiQSrGlq3ZUuIejB1PS0fjY8bhKyr57u6Xr7fk/5RBSAVPjE8JSYMUWrollFqNyljnAVGWYzSseiZwXvTyjch7jHrIFOBsshqa+XfFI9va2Ww8/9uClgTrBzcEc6RloIpEjPZ1HszHxNFTpraMvI/xD48yI+k+sxi4soj3a9jxbUo+0/VNOpQGPaISyLKXYMgiripE87+FpL+AXDBBHchGRASsSUZEBXI2uCN4Fh2XQFtzFpJFM6rOT0VvMpiUNU/rV6W1snlm8rwFUj+bSGMitNE5kAL+WqYmJEaICblRFNhhxqZ8ps2aQN4JFdOs6LJDxIluIBABGvMMQbf1OaZh0Qtt61p6Zb/joIqCQzkyoaY/xEfs7qQBR5dkpv5swpshCotKKbjQzRtEQ+6FD2FT4MiUPB4Kqmd+7tfLof//xTzfqZQN4nR3VITXpzFGdySPcjijnQ7efWUgEUkqrUNh33e6vwqv7UEgs9DS4CEzRgBKOCuCTbGtSJqMnljQMS4PBX/B7Xpybk+JANFan1bNzbYA4Wqs4NPpr0lFM1CE35cjEfTFmyiLpKMKZHFBPZWlU4Hd2tzoHBzPfdYSnptnUAJ6BJhIZwC9FMoTDlHYxaKcKIpxVNoiBVL41UhcLJyNSlPZ9U9EFdk7IyTCge1yGvLapQg+lkhe4KZrYI4oB/5iZmjBDFUJZSsURaGbQ+KgcybbAVASRZgW4GofRMVjQqNsxoMq0PiQCOp21tZ//8Cebsu4LnfyX+PONExmwL/D/+D/7kXnHEg5CMmuGpjjjHKQxwiOGUDBDD5WeFEhpdNi6MELlRpiFDHhW4ydIifgphxSyyfPcRGg7aKM/YgBVKZDSFQDW0RGiG0q66cxtyzFBTAMTWdOkPg3uC8UdHEVOjOfGJSXA8TzxxCNPvtB+m+df+megcSID9h1eXXnkd6an5ubDQg3JjKgjs2+Lipl+C3gJTwOHktIvDmVI+Q3qYfPS8YCI5qlzUnN/vo/5D/7a26e1HU8LhyLPPJgxRSLsd0xOqS3HMCnHcFCclfVF8C3gLnBS4Kro+Dy9TwppU+Ntzdnd3Lrrjte+Y8BOb3M4x3AGGidyDCf1xWyyPTl7lvIpacW4unUtulxGWtKGggEDdHouDW34igIshmxSV1Ekg7eh8iopkSfa7Q8N/x9+7J3t5zqu/v7qRza39ucJZEw4Qy1e27BemsBVcJiOwNM6O4bqDfR3SO4Iu5O6eAaOnAlp0LIYslMTo9v/8rc/3qQyL+ZieIm8t3EiA/ZFtccn2+mNib4p6QExCGMpYZ9ui/thYhlkLz1DQx6zbl0NIe0g/WGmgzZgbomcyFh77uKV9Sc+85xOZG/k4sREe/TJK5qCh2tAXIhgQ84KmUTwDsZ52mHpOCCyWXUe8hlzevVzTOnNpIDclXUBuTrmS1cvNw5kwK6t4zqcxokc15m9ye06ctBKTxQBZRxnghF7whzb5BsrgkWJPqC7p58mf2P0UTZry8Ani/7HWHvm4nMd0t133DFFOfi2s4vutgXQmFJaYu4poO12FM4QgR6CiarnhczIifF/Ss7CUJQCIURUwByEiMKbb24v+zPwgqW/l/0ZGLAPeOe589IbEmAqRzIuwSEcSMSbS18tvSpOX9JtC6gJJR4nMN5u+3UII9NvQ5qDlCKVm7OL52af7aP+J3/jh0bOLZyZ2F5SZUX7mlI0sa5RE4JYXeb1ACvo9jgRwhNYtFDppd7e7/Vafcq++huB554ahRXRtJ5cXhe3pZkGMWCX1rEdThOJHNupvfEN/+c/+e5pET/GiAB6EMZkwIgm1/kv7k3RnaHYOIg1GWqHAdlEIHI8fS3+9LKgfyrSqyQTdVcksqZGvK2+wolnuU2028Nn5ubG3Z+jbfJzcWbaDgRQFeCWVGVH/A+ioTEdj8Sk9ZgkBw6k6g6FxBPvhlpn9T4CEFKwnX1rKja3W+AMNF/0AH3JW72nPzrZnpph9WfEAlUX1NMBUzHmTRnytiKUjnCRy6sb7o3ZltF2EWyWI9lQ9LEmAHQLDREZ8lR7QsSxCc2SmQLpeNb0QgQzKQjsD1FZiTTiaGta74MTUrkqQ8NIAciBpYJsaj3OTBCvmwA53rmpKYj3rVlVhRY0u2Z2cqqJcgfo2jrOQ2m+6OM8uze47bvvetUr3Q9Lq4yMeUQ9K0QU6IYMDWuqnSKLrtigqxsdcUHiWNxyjxDzxrbLq0QvcDhwKkzNO5CmCBHMZrf3rE4EfpqSlm1xPiYX5Gwy61c3RSJotQ6PCrSVzKHCC6UxYC9pClxirIX2wwXUFSFtbnqi1dneckVpV02/d18431xbN/j9v1Rf3kQiA/TN7R4MT+JApqS8Du8jU+bCwYC7wSCop5dXW1fX11uP6+fjy8utp1fXFZVw32g9fmWl9fTKeusx/Xzs8orTmA1FK0QKiiqelbX6//rl/2lvZWNdcIj2BOQhJ8B9YXZafTQSgZbzGBsv6mZqz4GDMiTHdtu5mdaEiGwPL620ZpTGPHTlil4/0frjh55oXdLxAKX81A+/K4rRze1lfQaa1WKAvl6VS8c8OQ5Uw4CmAEvUxRQVPHnlqhTKOmavgjmk5T/ds2rYkwFnzgyP0wDHrJnlDYZ5D7cmxURVLDP+t9/1/eO/8onPZBjuM25fefTRrZnZiyPzcgYe2UkjHpGH0NSx1qS2RxMfVHc5kSFVa+RIKPrQl0OH74NPXfEUzeXNLVHm5QeV46z29hZGh1Y+r4ffPECnuDmUYzgDjRM5hpN6s5sUSWvv3OI5V1SmpydbXaIPzbJibktXeAg4xZmFOauyp9mOkQ1SUy8zecFH+sgnFnlDKiRXFBXcde6sIorZM+ubj/6Bju2N33x8Al1bF87jiBR1KEVCWoB0Ck4ZoeroqMBUXSmRRsysG2mdtRYXz6gZsN1aWt9Q011m5TytaOnM3Kw5LjtDi2/8Oz/8V/5wvTv+H/zap7/wrMDuzZ6r5n2DcwaadGZAvou/84Nvn+ps9cUtTZWEKgfyhqvqT8GJwNs4uzBvXoYb84hWEANSakF0goAR+MnczJTTjEndL6gTmJLrlx5/MlHDyMT5Z/u4ihxE/Yhm65xwEVIns1EVBeHQILAx34bwY1M4ywbp0cxMqy1HN6rtTwhUnVA0NCa6u+b6th566pLFmSWZODwxc+dbRofWfm9ATnNzGMdwBhoncgwn9WY2+ZcP/ennuzsHM09e1cQIGSkRyJW1dW+KqsmkcBIa20hdSDeogrTFC4ExOqbUg9aXcSIJpTqAo5R+15TSjOu5s4pe0EBd7WyNveP13/4tOIUAW6sOUJnZ0OsicphBVqbZo98qh3JZWMyBnMTM/KxmyfSUXm0qNtEroenLsfUYn6njOCNnN6bXXV0TTnP5amvhzJ2v/hvf+x2TN3NemvcM/hlo0pkB+Y7uuuPe82dlnF3xQ5aUgpAW3H5uUU6j3Tq3qMZeWTaVjxi7KiDKNeCQXFpdFeYxbmIaXbuArBkXMWzexlmlFoAsOITNztaZP/vSH//5W19x/xs/99DXDzVPxTYVBHPgfQ/RQCdHtKFtLQmDgeI2IUelVxjwxdv0FB1R621TCta2kQ5Q9cdOqCPHBTBLRHL/Xbe31uRoBJWcmWhv/65O9VsG5HQ3h3GEZ6BxIkd4Mm92U+950+umJyemJnACKpIoGlhrzUxO2BnMqUoC8Wtqqt3akAg8oOquelo2IZyVJr2riliIGEwYU/qB4+BvHAPT50gtSINWOx05iYX7d7pXHn3DHTNrt5+753VTU+MHAkMlFk87/26rLcfDdrbpuZEjYGg40cW6dEm8b70GcGNVbFXSJvazJu2SJUUdOJkR4ScQ4S7r7yvLK61X3HERops4LiP3vvs73tz+yB/+cSPYfLMXyoC+r3EiA/DFbO8s/f54+/Y5iwoxzlLpAZwNtA7nlLYwJxdKOpgFeAWpybIa3eaFfwC+Mj5zQb/jNGYnlDUw2ApcRTjHqoz/nNIZ/n7FHRdainZG9g9ecUGYy4W9/tqjj1+6sv9nD26efdO3zWobM05kcDxT4oigUDbXnmw9qsY8WKzWWxUt/rElUq7MBeZ30qyLAllXNzfcFIgjo9JDNLSqCOUpvV/VnsXxkY3PvfXVr37L57761QZkHYDr7qgO4YW1N49qT812nvMM/PW3vu7yfXfedx4NVRrgqIwsKppQeOKKCcAqFHea2wBdMW6MnYoNpdgJpTNTwkeix1wn1TFDRorrciQ4IG5rSk+QPiTtIE1Cu5Vy7ZzeSynG7f6Kcu5+1d3e94YilzuFb3xdJdwp7cP4iBzZCmJEbFfHNSt2KuJEm0pj2nIq20qJRhWxzOv4NYmm1WUYlpzPktKzq0srB0uXH/yT+dn7vuNzX/1y40heJjbRRCID8EVOT04OE12w+lO+BTQl+mC1X1dDPY6DMi7pDamJwVVVY3AEKL6z4quy05qUQzHbVZEMz+EUwCfQY52Uo0ApngFXfo34JXecnRfeofeDodDMtzMNbtLqPb3UUktva0b7Wdns2YFg8eqHaa1rm0Qa7Ivjubqyaie2LuzjDefPtWbOLLaGtK+lXrd1UanYpJzMskrAcYjjauUZebNkqB9/050Tj9x115u+/wOf+3zjTAbgGnwxh9BEIi/m7B3Be9/9+tfOnDs//fh4e2YekeN7L5zzTFvPbpGhLilt6QuXICKBgAZmgtFGIFljHDz0O04DLAPwlS5bHElPBDEewzFh+FWIGSdybn7OZDaihwk5JJwWUQndw/3eduvy0lrrFa+611IERDzrSkvm5RA2hIXAcrus6hGRESAveMi3nTsnZ6OoaG6mdaDjEzgisttma0Rl5zE5la4iFUdEeu/Djz3Z+rru9922cGVov/vYwcj5t/7yhz6SuaHN7SV3Bhoncspf2Q+9/o6vvOG1b361x026qsLUOfXICOuAck4ag4Ogp8b/CmBKqoIzAXQl/cl7adOnzyazagBqWeb5kuGW+M6QKd3AOIgmZhT9wDC1kev1XbX4IzrUU8Tx4BNXWj/4vd/RelLUdqdaavcH8MXZoSQPoHpOacuqqPZ3LC6IgKape3Ik7Ymp1rZwmSE5p77kE0fGpBgv5zerfaJ3sqTXLymCIYp58NEnW6++++LGxOjQVre7cnlq5p7v/PnffL9mUDS3l8oZaNKZU/ym/urrXjN5+4W586zQOAxwhlkRt8AcqJZgpDTV9RUldLqyK4UFC7Na6elxkZNYUwRAigI2QQUE3RB4IpR8iRDQ+YCIxjZo3yfaAJjFuWwIHzmnqGHutvNOe/pFyIhjwJEsr3fstFyyRRAavRJoq0p7cFy8Byf0B19+sPX6u+5oHUjhnel3kwcj2v6Woo+J1kNPPiWMVyMotB3Kzd0NdRlvruk4tlpzIyLPnTnT6gv4PbO4MPuHX3xwdnZyQrjQlUs/9Z7v3+p3lh79lU99qRk3cYrX5/XuunEi13umjuF1qlb8/p5qJ2waIaEZlUxxHE9p5SfSmFEEQnTw2vMXW73ZXZVVBYQSiSi0mFRUMSXD3FCa0ZeDacMdkaO4fXHO4CkRzIpGOMyJVUrr/hipBn0tsE3lBC5rH8sCOxf1WssIaDs7PCdHQffuzE7b3A8a7qbllBhQRe8Ox9hTU9+eyGfwVGaUqrT1PIVfnI3LyXJqHTkiRn5+36vvi3yAYF/Yt4o4hO+A9yj1Ghprfe+rX936s8tPtt7zfW922vbo05fn7rxwfm5n9+KF925sPXLP+bml9vjt3/Vfv/9DjVLaMVyDR7HJJp05irN4E9t426teOXHHxdnLZxbOziI6RIs/JduvP3nJqcx9wkaQNzyjcZnjbT0v42T157Ylp4DWSFsGTwTieby6O9IA9JShc2MeLnjGlt5LynNRpV5XduQsiCq4f/aLX219t7CPK3IQZxdmlSK17Tg25QQQiL77jvMCb8dbl+Vw9kQ4Q+cVzgkALaVlIp2LAlM3+lutO88vOtJZXeu0+jL573j1va2zAledQFmVPl3AYDiQ2jZXNoX5rLX+4MGvt2YXph2NUWG6rA7ls7OzrUVFXftyoo8+8fDTo3tbT/yTj/7Jd97EqW7ecsxnoHEix3yCn2vzb3vlmS/dfedrvm2SqEFg5VmlFr//lYdarxHLcxpqudKBA63MjH4gXWEoFIY9SbpCh60igUeEKZxR+kM0cEHYRFezbxm0ubK5qXb9MZVfZ1oz2havvyqQE1AUJ3JOZVsGcKN2SHTA6x8RPZ3H7zp3xo6EsiwOYWlts/XKe+9wZAGIS2pFcx0g7LicHIbfVuRC5YZu4asrG7Qgt97+lte3LggnoQQdrIZ+oG1jIzTwjYiYtilV+KvLS63HLl1prVEKlvARgkakS488vdw6q88+IUc4JLD3MTmWif3NR+bP3P2q/9uv/noDwp7Sdftsu23SmVP6MkQck4D6futrTz7tI6D6AdgpyVJFFGrl76637llctMGCjvLYvSqhnpWRsbJ39fyItAk3lAa95vaLnno3oUoIqmaPoUYC90PpwsWZOaU/IqHJKV2S/siQIoM9aabOUXJVJHKbHM0VEdQW5XT+4omnWl1m2Wj7s2LIPrG8uv3W++8f/8rXH5eDmVgTbiKyrFKVzS3hrPtDF+cXxybGpoeF1xxMTU8Obax3hw52DmbXt+Wqdnblp6Dph72y05fmawGPe7uqWytygXOCU1LdqfX6M9OtjhzTzv52q6vjXpwca/3ul7/Wetur7rcTXOtstsZn5u49KwnYf/S3/tbc//1f/+vGkZzStfvNu22cyCl9EZ3tyW9/8NEvfen8udsviOux/9UnH9+VxODB1YOeqOY7u6+4cFGD6LbGV9e6OxoHsd/f2jq47RV3TCpFmWkPj45p8tyBsIb9+wROTquVly5e+mfWe5vWRFWVZnthbnJfDw8LR9l97PKT2zv97SHwCKUx+yP700N7Y1rnh0cnet3OzpmJycm33n17a3aREu1I5+7b5jeVvow8cWV96g+++OBXh/bu+65//dk/CGvtOW4//RPvnTrTXv/cW15z/7nx0YO5fr87Ojo0IRHFvW21/oyMT03sbq2ujIquv78tdLfX39rvddekPLDbXu50NVavtb/W3dx5YmlpBZD2O+87N7G88rTSpXNT56fHDtY2lrZXp8ba3ZWv0hXcgK6ndO1+826bdOaUv4g3XFyUUbVaX7y8cl0r6z/+X/2kjG5oeHt7e+8f/g/vt1rZz/xv/+aYyr0OWbYkJyBBot2f/h9+++Af/+2/rkBmeEijHA7+T7+a1z7z9n/98XdoFvjB0P/ztx74luf+07/2dukNDbX+q2d57npO2S/9w/9oWD05oxpmRaWX2jQpzcGWqj0SONLP7YPuVm//77/vf2zIZtdzQpvXNGegOQPNGWjOQHMGmjPQnIHmDDRnoDkDzRlozkBzBpoz0JyB5gw0Z6A5A80ZaM5AcwaaM9CcgeYMNGegOQPNGWjOQHMGmjPQnIHmDDRnoDkDzRlozkBzBpoz0JyB5gw0Z+CWPQP/f1Wqc+oAhFxOAAAAAElFTkSuQmCC;" vertex="1" parent="1">
          <mxGeometry x="580" y="140" width="126.15" height="250" as="geometry" />
        </mxCell>
        <mxCell id="wimUQkEXMuBrnLNLjIfS-16" value="" style="shape=trapezoid;perimeter=trapezoidPerimeter;whiteSpace=wrap;html=1;fixedSize=1;rounded=0;shadow=0;labelBackgroundColor=none;sketch=0;fillStyle=cross-hatch;strokeWidth=1;gradientDirection=radial;rotation=85;size=4.389999999999873;" vertex="1" parent="1">
          <mxGeometry x="260" y="220" width="135.61" height="115" as="geometry" />
        </mxCell>
      </root>
    </mxGraphModel>
  </diagram>
</mxfile>
